{
.appVersion = "3530";
.formatVersion = 3;
DisplayStrings = (
"titt raviver without
tritt raviver without
tritt raviver without
kuHXe7UcF7HoLpGMWH
",
n,
H,
oLEZOtHxnI,
"ÍJ íj ij",
"ȷ",
G,
L,
"̂",
" /uni2028  ",
"/nbspace",
"/uni2029/uni2028"
);
axes = (
{
name = Weight;
tag = wght;
}
);
classes = (
{

glyphs = (
{
glyphname = .notdef;
lastChange = "2026-05-06 13:17:42 +0000";
layers = (
{
background = {
shapes = (
{
closed = 1;
nodes = (
(166,188,l),
(399,188,l),
(399,218,l),
(166,218,l)
);
}
);
};
layerId = master01;
shapes = (
{
closed = 1;
nodes = (
(496,0,l,{
"Letterink-NibData" = {
ValidForParentWidth = 21;
};
}),
(496,721,l,{
"Letterink-NibData" = {
ValidForParentWidth = 21;
};
}),
(70,721,l,{
"Letterink-NibData" = {
ValidForParentWidth = 21;
};
}),
(70,0,l,{
"Letterink-NibData" = {
ValidForParentWidth = 21;
};
})
);
},
{
closed = 1;
nodes = (
(340,169,o),
(357,199,o),
(357,247,cs,{
"Letterink-NibData" = {
ValidForParentWidth = 21;
};
}),
(357,313,o),
(332,364,o),
(275,364,cs,{
"Letterink-NibData" = {
ValidForParentWidth = 21;
};
}),
(227,364,o),
(209,335,o),
(209,287,cs,{
"Letterink-NibData" = {
ValidForParentWidth = 21;
};
}),
(209,220,o),
(234,169,o),
(291,169,cs,{
"Letterink-NibData" = {
ValidForParentWidth = 21;
};
})
);
},
{
closed = 1;
nodes = (
(137,633,l,{
"Letterink-NibData" = {
ValidForParentWidth = 21;
};
}),
(429,633,l,{
"Letterink-NibData" = {
ValidForParentWidth = 21;
};
}),
(429,88,l,{
"Letterink-NibData" = {
ValidForParentWidth = 21;
};
}),
(137,88,l,{
"Letterink-NibData" = {
ValidForParentWidth = 21;
};
})
);
},
{
closed = 1;
nodes = (
(389,464,l,{
"Letterink-NibData" = {
ValidForParentWidth = 21;
};
}),
(389,553,l,{
"Letterink-NibData" = {
ValidForParentWidth = 21;
};
}),
(177,553,l,{
"Letterink-NibData" = {
ValidForParentWidth = 21;
};
}),
(177,464,l,{
"Letterink-NibData" = {
ValidForParentWidth = 21;
};
})
);
}
);
width = 566;
},
{
layerId = "FA803571-32C9-4FEE-972F-1FEF49B82217";
shapes = (
{
closed = 1;
nodes = (
(457,0,l),
(457,735,l),
(80,735,l),
(80,0,l)
);
},
{
closed = 1;
nodes = (
(319,138,o),
(340,165,o),
(340,215,cs),
(340,277,o),
(318,317,o),
(268,317,cs),
(218,317,o),
(196,290,o),
(197,239,cs),
(198,178,o),
(220,138,o),
(270,138,cs)
);
},
{
closed = 1;
nodes = (
(122,697,l),
(415,697,l),
(415,38,l),
(122,38,l)
);
},
{
closed = 1;
nodes = (
(375,535,l),
(375,596,l),
(162,596,l),
(162,535,l)
);
}
);
width = 537;
},
{
layerId = "494556E7-144A-4E25-B9FC-0C21051BD184";
shapes = (
{
closed = 1;
nodes = (
(579,0,l),
(579,733,l),
(48,733,l),
(48,0,l)
);
},
{
closed = 1;
nodes = (
(346,221,o),
(353,242,o),
(353,275,cs),
(353,320,o),
(342,357,o),
(308,357,cs),
(280,357,o),
(274,335,o),
(274,303,cs),
(274,257,o),
(285,221,o),
(319,221,cs)
);
},
{
closed = 1;
nodes = (
(248,583,l),
(379,583,l),
(379,160,l),
(248,160,l)
);
},
{
closed = 1;
nodes = (
(350,481,l),
(350,522,l),
(278,522,l),
(278,481,l)
);
}
);
width = 637;
}
);
note = .notdef;
},
{
color = 1;
glyphname = A;
kernLeft = A;
kernRight = A;
lastChange = "2026-07-10 13:44:55 +0000";
layers = (
{
anchors = (
{
name = "#ogonek";
pos = (551,0);
},
{
name = top;
pos = (327,750);
}
);
layerId = master01;
shapes = (
{
closed = 1;
nodes = (
(130,0,l,{
"Letterink-NibData" = {
ValidForParentWidth = "21";
};
}),
(190,202,l),
(457,202,l),
(518,0,l,{
"Letterink-NibData" = {
ValidForParentWidth = "21";
};
}),
(618,0,l,{
"Letterink-NibData" = {
ValidForParentWidth = "21";
};
}),
(371,755,l,{
"Letterink-NibData" = {
ValidForParentWidth = "21";
};
}),
(291,755,l,{
"Letterink-NibData" = {
ValidForParentWidth = "21";
};
}),
(40,0,l,{
"Letterink-NibData" = {
ValidForParentWidth = "21";
};
})
);
},
{
closed = 1;
nodes = (
(336,691,l),
(310,691,l),
(433,282,l),
(214,282,l)
);
}
);
width = 648;
},
{
anchors = (
{
name = "#ogonek";
pos = (562,0);
},
{
name = top;
pos = (303,750);
}
);
background = {
shapes = (
{
closed = 1;
nodes = (
(489,0,l),
(589,0,l),
(342,750,l),
(262,750,l),
(11,0,l),
(101,0,l),
(321,732,l),
(270,722,l)
);
},
{
closed = 1;
nodes = (
(408,352,l),
(175,352,l),
(149,272,l),
(440,272,l)
);
}
);
};
layerId = "FA803571-32C9-4FEE-972F-1FEF49B82217";
shapes = (
{
closed = 1;
nodes = (
(73,0,l),
(144,212,l),
(455,212,l),
(524,0,l),
(573,0,l),
(322,751,l),
(287,751,l),
(30,0,l)
);
},
{
closed = 1;
nodes = (
(316,730,l),
(288,730,l),
(444,246,l),
(155,246,l)
);
}
);
width = 608;
},
{
anchors = (
{
name = "#ogonek";
pos = (579,0);
},
{
name = top;
pos = (347,750);
}
);
layerId = "494556E7-144A-4E25-B9FC-0C21051BD184";
shapes = (
{
closed = 1;
nodes = (
(226,0,l,{
"Letterink-NibData" = {
ValidForParentWidth = "30";
};
}),
(257,137,l),
(425,137,l),
(457,0,l,{
"Letterink-NibData" = {
ValidForParentWidth = "30";
};
}),
(686,0,l,{
"Letterink-NibData" = {
ValidForParentWidth = "30";
};
}),
(452,750,l,{
"Letterink-NibData" = {
ValidForParentWidth = "30";
};
}),
(242,750,l,{
"Letterink-NibData" = {
ValidForParentWidth = "30";
};
}),
(10,0,l,{
"Letterink-NibData" = {
ValidForParentWidth = "30";
};
})
);
},
{
closed = 1;
nodes = (
(351,547,l),
(331,547,l),
(394,272,l),
(288,272,l)
);
}
);
width = 691;
}
);
note = "
A
";
unicode = 65;
userData = {
"terminalChecked_FA803571-32C9-4FEE-972F-1FEF49B82217_31,0 / 74,0" = 0;
"terminalChecked_FA803571-32C9-4FEE-972F-1FEF49B82217_323,751 / 288,751" = 0;
"terminalChecked_FA803571-32C9-4FEE-972F-1FEF49B82217_525,0 / 574,0" = 0;
"terminalChecked_master01_30,0 / 120,0" = 0;
"terminalChecked_master01_361,755 / 281,755" = 0;
"terminalChecked_master01_508,0 / 608,0" = 0;
};
},
{
color = 5;
glyphname = B;
kernLeft = H;
kernRight = B;
lastChange = "2026-05-06 13:17:42 +0000";
layers = (
{
background = {
shapes = (
{
closed = 1;
nodes = (
(90,750,l),
(90,0,l),
(180,0,l),
(180,750,l)
);
},
{
closed = 1;
nodes = (
(90,0,l),
(154,-11,o),
(220,-14,o),
(310,-14,cs),
(505,-14,o),
(555,113,o),
(555,224,cs),
(555,332,o),
(469,425,o),
(377,425,cs),
(161,425,l),
(133,350,l),
(323,350,l),
(413,350,o),
(465,279,o),
(465,216,cs),
(465,165,o),
(449,116,o),
(411,76,c),
(382,64,o),
(331,62,o),
(275,62,cs),
(217,62,o),
(153,75,o),
(106,91,c)
);
},
{
closed = 1;
nodes = (
(166,683,o),
(232,687,o),
(263,687,cs),
(382,687,o),
(434,630,o),
(434,558,cs),
(434,496,o),
(393,449,o),
(357,425,c),
(365,366,l),
(459,410,o),
(521,480,o),
(521,574,cs),
(521,674,o),
(445,764,o),
(285,764,cs),
(203,764,o),
(107,753,o),
(90,750,c),
(134,674,l)
);
}
);
};
layerId = master01;
shapes = (
{
closed = 1;
nodes = (
(441,-14,o),
(555,39,o),
(555,224,cs,{
"Letterink-NibData" = {
ValidForParentWidth = 21;
};
}),
(555,307,o),
(504,381,o),
(438,411,c),
(490,453,o),
(521,507,o),
(521,574,cs,{
"Letterink-NibData" = {
ValidForParentWidth = 21;
};
}),
(521,674,o),
(445,764,o),
(285,764,cs,{
"Letterink-NibData" = {
ValidForParentWidth = 21;
};
}),
(203,764,o),
(107,753,o),
(90,750,c,{
"Letterink-NibData" = {
ValidForParentWidth = 21;
};
}),
(90,0,l,{
"Letterink-NibData" = {
ValidForParentWidth = 21;
};
}),
(155,-8,o),
(215,-14,o),
(270,-14,cs,{
"Letterink-NibData" = {
ValidForParentWidth = 21;
};
})
);
},
{
closed = 1;
nodes = (
(244,62,o),
(211,66,o),
(180,72,c),
(180,350,l),
(323,350,ls,{
"Letterink-NibData" = {
ValidForParentWidth = 21;
};
}),
(413,350,o),
(465,279,o),
(465,216,cs,{
"Letterink-NibData" = {
ValidForParentWidth = 21;
};
}),
(465,165,o),
(449,116,o),
(411,76,c,{
"Letterink-NibData" = {
ValidForParentWidth = 21;
};
}),
(382,64,o),
(331,62,o),
(275,62,cs,{
"Letterink-NibData" = {
ValidForParentWidth = 21;
};
})
);
},
{
closed = 1;
nodes = (
(180,682,l),
(209,685,o),
(243,687,o),
(263,687,cs,{
"Letterink-NibData" = {
ValidForParentWidth = 21;
};
}),
(382,687,o),
(434,630,o),
(434,558,cs,{
"Letterink-NibData" = {
ValidForParentWidth = 21;
};
}),
(434,496,o),
(393,449,o),
(357,425,c,{
"Letterink-NibData" = {
ValidForParentWidth = 21;
};
}),
(180,425,l)
);
}
);
width = 595;
},
{
background = {
shapes = (
{
closed = 1;
nodes = (
(140,0,l),
(140,749,l),
(100,749,l),
(100,0,l)
);
},
{
closed = 1;
nodes = (
(151,721,o),
(203,724,o),
(232,724,cs),
(367,724,o),
(432,660,o),
(432,573,cs),
(432,487,o),
(377,440,o),
(327,414,c),
(282,403,l),
(316,378,l),
(407,408,o),
(472,483,o),
(472,573,cs),
(472,683,o),
(389,764,o),
(234,764,cs),
(201,764,o),
(142,760,o),
(100,750,c),
(113,713,l)
);
},
{
closed = 1;
nodes = (
(146,-10,o),
(207,-14,o),
(249,-14,cs),
(427,-14,o),
(508,83,o),
(508,218,cs),
(508,331,o),
(399,414,o),
(329,414,cs),
(124,414,l),
(124,379,l),
(267,379,ls),
(385,379,o),
(463,304,o),
(463,200,cs),
(463,139,o),
(444,106,o),
(399,58,c),
(351,38,o),
(292,26,o),
(237,26,cs),
(195,26,o),
(150,30,o),
(119,44,c),
(100,0,l)
);
}
);
};
layerId = "FA803571-32C9-4FEE-972F-1FEF49B82217";
shapes = (
{
closed = 1;
nodes = (
(427,-14,o),
(508,83,o),
(508,218,cs),
(508,309,o),
(438,380,o),
(373,405,c),
(433,443,o),
(472,503,o),
(472,573,cs),
(472,683,o),
(389,764,o),
(234,764,cs),
(201,764,o),
(142,760,o),
(100,749,c),
(100,0,l),
(146,-10,o),
(207,-14,o),
(249,-14,cs)
);
},
{
closed = 1;
nodes = (
(207,26,o),
(169,31,o),
(140,38,c),
(140,379,l),
(267,379,ls),
(385,379,o),
(463,304,o),
(463,200,cs),
(463,129,o),
(438,95,o),
(403,57,c),
(360,34,o),
(300,26,o),
(246,26,cs)
);
},
{
closed = 1;
nodes = (
(140,718,l),
(172,722,o),
(209,724,o),
(232,724,cs),
(367,724,o),
(432,660,o),
(432,573,cs),
(432,487,o),
(377,440,o),
(327,414,c),
(140,414,l)
);
}
);
width = 568;
},
{
background = {
shapes = (
{
closed = 1;
nodes = (
(519,-14,o),
(630,91,o),
(630,229,cs),
(630,310,o),
(587,370,o),
(516,403,c),
(567,435,o),
(602,484,o),
(602,546,cs),
(602,702,o),
(428,764,o),
(264,764,cs),
(160,764,o),
(107,756,o),
(80,750,c),
(80,0,l),
(226,-16,o),
(181,-14,o),
(317,-14,cs)
);
},
{
closed = 1;
nodes = (
(324,128,o),
(308,130,o),
(290,133,c),
(290,330,l),
(298,330,ls),
(386,330,o),
(440,286,o),
(440,224,cs),
(440,188,o),
(425,162,o),
(408,139,c),
(393,131,o),
(363,128,o),
(339,128,cs)
);
},
{
closed = 1;
nodes = (
(290,610,l),
(303,611,o),
(313,612,o),
(325,612,cs),
(402,612,o),
(433,584,o),
(433,523,cs),
(433,466,o),
(400,443,o),
(377,430,c),
(290,430,l)
);
}
);
};
layerId = "494556E7-144A-4E25-B9FC-0C21051BD184";
shapes = (
{
closed = 1;
nodes = (
(514,-14,o),
(625,91,o),
(625,229,cs),
(625,310,o),
(582,370,o),
(511,403,c),
(562,435,o),
(597,484,o),
(597,546,cs),
(597,702,o),
(423,764,o),
(259,764,cs),
(155,764,o),
(102,756,o),
(75,750,c),
(75,0,l),
(221,-16,o),
(246,-14,o),
(312,-14,cs)
);
},
{
closed = 1;
nodes = (
(319,128,o),
(303,130,o),
(285,133,c),
(285,330,l),
(293,330,ls),
(381,330,o),
(435,286,o),
(435,224,cs),
(435,188,o),
(420,162,o),
(403,139,c),
(388,131,o),
(358,128,o),
(334,128,cs)
);
},
{
closed = 1;
nodes = (
(285,610,l),
(298,611,o),
(308,612,o),
(320,612,cs),
(397,612,o),
(428,584,o),
(428,523,cs),
(428,466,o),
(395,443,o),
(372,430,c),
(285,430,l)
);
}
);
width = 658;
}
);
metricLeft = H;
note = B;
unicode = 66;
},
{
color = 5;
glyphname = C;
kernLeft = O;
kernRight = C;
lastChange = "2026-07-10 13:45:09 +0000";
layers = (
{
anchors = (
{
name = bottom;
pos = (322,0);
},
{
name = top;
pos = (335,750);
}
);
background = {
shapes = (
{
closed = 1;
nodes = (
(564,140,l),
(474,98,o),
(389,71,o),
(339,62,c),
(224,83,o),
(126,171,o),
(135,434,cs),
(141,619,o),
(227,679,o),
(315,689,c),
(387,679,o),
(489,649,o),
(554,615,c),
(588,703,l),
(495,748,o),
(438,764,o),
(369,764,cs),
(139,764,o),
(45,615,o),
(45,374,cs),
(45,126,o),
(170,-14,o),
(344,-14,cs),
(415,-14,o),
(529,22,o),
(593,61,c)
);
}
);
};
guides = (
{
angle = 250.3462;
pos = (483,415);
},
{
angle = -70.3462;
pos = (468,410);
}
);
layerId = master01;
shapes = (
{
closed = 1;
nodes = (
(415,-14,o),
(529,22,o),
(593,61,c,{
"Letterink-NibData" = {
ValidForParentWidth = 21;
};
}),
(564,140,l,{
"Letterink-NibData" = {
ValidForParentWidth = 21;
};
}),
(474,98,o),
(389,71,o),
(339,62,c,{
"Letterink-NibData" = {
ValidForParentWidth = 21;
};
}),
(199,85,o),
(135,207,o),
(135,447,cs,{
"Letterink-NibData" = {
ValidForParentWidth = 21;
};
}),
(135,575,o),
(205,685,o),
(315,688,c,{
"Letterink-NibData" = {
ValidForParentWidth = 21;
};
}),
(387,678,o),
(489,647,o),
(554,615,c,{
"Letterink-NibData" = {
ValidForParentWidth = 21;
};
}),
(586,704,l),
(494,748,o),
(437,764,o),
(369,764,cs,{
"Letterink-NibData" = {
ValidForParentWidth = 21;
};
}),
(145,764,o),
(45,607,o),
(45,375,cs,{
"Letterink-NibData" = {
ValidForParentWidth = 21;
};
}),
(45,151,o),
(139,-14,o),
(344,-14,cs,{
"Letterink-NibData" = {
ValidForParentWidth = 21;
};
})
);
}
);
width = 633;
},
{
anchors = (
{
name = bottom;
pos = (352,0);
},
{
name = top;
pos = (345,750);
}
);
background = {
guides = (
{
angle = 250.887;
pos = (557,657);
},
{
angle = 105.7808;
pos = (580,108);
}
);
shapes = (
{
closed = 1;
nodes = (
(555,89,l),
(495,60,o),
(388,28,o),
(337,26,c),
(128,57,o),
(104,229,o),
(104,424,cs),
(104,620,o),
(187,707,o),
(354,724,c),
(402,720,o),
(495,696,o),
(554,672,c),
(567,713,l),
(500,741,o),
(424,764,o),
(370,764,cs),
(159,764,o),
(60,632,o),
(60,374,cs),
(60,167,o),
(162,-14,o),
(353,-14,cs),
(410,-14,o),
(498,15,o),
(568,48,c)
);
}
);
};
guides = (
{
angle = 250.3462;
pos = (475,427);
},
{
angle = -70.3462;
pos = (433,427);
}
);
layerId = "FA803571-32C9-4FEE-972F-1FEF49B82217";
shapes = (
{
closed = 1;
nodes = (
(410,-14,o),
(498,15,o),
(568,48,c),
(554,89,l),
(494,60,o),
(383,32,o),
(331,29,c),
(126,47,o),
(104,214,o),
(104,422,cs),
(104,591,o),
(186,724,o),
(354,724,c),
(402,719,o),
(493,696,o),
(552,672,c),
(567,713,l),
(492,744,o),
(417,764,o),
(360,764,cs),
(150,764,o),
(60,592,o),
(60,372,cs),
(60,161,o),
(146,-14,o),
(353,-14,cs)
);
}
);
width = 623;
},
{
anchors = (
{
name = bottom;
pos = (347,0);
},
{
name = top;
pos = (380,750);
}
);
background = {
shapes = (
{
closed = 1;
nodes = (
(475,-14,o),
(606,18,o),
(669,63,c),
(609,244,l),
(567,219,o),
(500,187,o),
(416,148,c),
(304,156,o),
(246,243,o),
(246,372,cs),
(246,494,o),
(287,558,o),
(370,597,c),
(452,581,o),
(546,558,o),
(609,528,c),
(663,691,l),
(568,750,o),
(470,765,o),
(390,765,cs),
(157,765,o),
(25,633,o),
(25,376,cs),
(25,152,o),
(153,-14,o),
(379,-14,cs)
);
}
);
};
guides = (
{
angle = 70.2405;
pos = (559,413);
},
{
angle = -70.3462;
pos = (542,404);
}
);
layerId = "494556E7-144A-4E25-B9FC-0C21051BD184";
shapes = (
{
closed = 1;
nodes = (
(470,-14,o),
(601,18,o),
(664,63,c),
(600,242,l),
(558,217,o),
(492,186,o),
(411,148,c),
(299,156,o),
(241,243,o),
(241,372,cs),
(241,494,o),
(282,568,o),
(365,607,c),
(446,591,o),
(538,559,o),
(601,530,c),
(659,691,l),
(564,750,o),
(465,765,o),
(385,765,cs),
(152,765,o),
(20,633,o),
(20,376,cs),
(20,152,o),
(148,-14,o),
(374,-14,cs)
);
}
);
width = 689;
}
);
metricLeft = O;
note = C;
unicode = 67;
userData = {
"terminalChecked_FA803571-32C9-4FEE-972F-1FEF49B82217_552,672 / 567,713" = 0;
"terminalChecked_FA803571-32C9-4FEE-972F-1FEF49B82217_568,48 / 554,89" = 0;
};
},
{
color = 5;
glyphname = D;
kernLeft = H;
kernRight = O;
lastChange = "2026-07-10 13:44:55 +0000";
layers = (
{
anchors = (
{
name = "#stroke";
pos = (179,337);
},
{
name = top;
pos = (332,750);
}
);
background = {
shapes = (
{
closed = 1;
nodes = (
(90,750,l),
(90,0,l),
(180,0,l),
(180,750,l)
);
},
{
closed = 1;
nodes = (
(90,0,l),
(155,-7,o),
(222,-14,o),
(287,-14,cs),
(492,-14,o),
(627,113,o),
(627,393,cs),
(627,692,o),
(472,764,o),
(305,764,cs),
(215,764,o),
(159,762,o),
(90,750,c),
(135,671,l),
(172,681,o),
(208,688,o),
(298,688,cs),
(445,688,o),
(537,590,o),
(537,380,cs),
(537,211,o),
(494,136,o),
(423,78,c),
(398,66,o),
(352,62,o),
(303,62,cs),
(223,62,o),
(153,68,o),
(107,82,c)
);
}
);
};
layerId = master01;
shapes = (
{
closed = 1;
nodes = (
(521,-14,o),
(629,133,o),
(629,368,cs,{
"Letterink-NibData" = {
ValidForParentWidth = 21;
};
}),
(629,623,o),
(531,763,o),
(313,763,cs,{
"Letterink-NibData" = {
ValidForParentWidth = 21;
};
}),
(239,763,o),
(152,756,o),
(90,750,c,{
"Letterink-NibData" = {
ValidForParentWidth = 21;
};
}),
(90,0,l,{
"Letterink-NibData" = {
ValidForParentWidth = 21;
};
}),
(155,-7,o),
(232,-14,o),
(297,-14,cs,{
"Letterink-NibData" = {
ValidForParentWidth = 21;
};
})
);
},
{
closed = 1;
nodes = (
(258,62,o),
(215,64,o),
(180,68,c),
(180,681,l),
(213,685,o),
(247,687,o),
(275,687,cs,{
"Letterink-NibData" = {
ValidForParentWidth = 21;
};
}),
(463,687,o),
(539,578,o),
(539,348,cs,{
"Letterink-NibData" = {
ValidForParentWidth = 21;
};
}),
(539,182,o),
(500,122,o),
(443,78,c,{
"Letterink-NibData" = {
ValidForParentWidth = 21;
};
}),
(415,67,o),
(364,62,o),
(303,62,cs,{
"Letterink-NibData" = {
ValidForParentWidth = 21;
};
})
);
}
);
width = 674;
},
{
anchors = (
{
name = "#stroke";
pos = (157,339);
},
{
name = top;
pos = (322,750);
}
);
layerId = "FA803571-32C9-4FEE-972F-1FEF49B82217";
shapes = (
{
closed = 1;
nodes = (
(516,-13,o),
(608,151,o),
(608,376,cs),
(608,604,o),
(525,764,o),
(285,764,cs),
(223,764,o),
(162,757,o),
(100,749,c),
(100,0,l),
(159,-12,o),
(227,-13,o),
(286,-13,cs)
);
},
{
closed = 1;
nodes = (
(231,25,o),
(183,30,o),
(140,41,c),
(140,713,l),
(186,720,o),
(236,724,o),
(282,724,cs),
(508,724,o),
(564,607,o),
(564,347,cs),
(564,138,o),
(478,79,o),
(407,41,c),
(371,30,o),
(305,25,o),
(277,25,cs)
);
}
);
width = 668;
},
{
anchors = (
{
name = "#stroke";
pos = (211,340);
},
{
name = top;
pos = (327,750);
}
);
guides = (
{
pos = (75,375);
}
);
layerId = "494556E7-144A-4E25-B9FC-0C21051BD184";
shapes = (
{
closed = 1;
nodes = (
(487,-14,o),
(672,113,o),
(672,393,cs),
(672,692,o),
(467,764,o),
(300,764,cs),
(210,764,o),
(144,758,o),
(75,750,c),
(75,0,l),
(138,-9,o),
(200,-14,o),
(282,-14,cs)
);
},
{
closed = 1;
nodes = (
(290,135,o),
(289,135,o),
(285,136,c),
(285,614,l),
(288,614,o),
(290,614,o),
(293,614,cs),
(380,614,o),
(452,506,o),
(452,380,cs),
(452,281,o),
(429,204,o),
(358,146,c),
(332,136,o),
(314,135,o),
(294,135,cs)
);
}
);
width = 692;
}
);
metricLeft = H;
metricRight = O;
note = D;
unicode = 68;
},
{
color = 1;
glyphname = E;
kernLeft = H;
kernRight = E;
lastChange = "2026-07-10 13:44:55 +0000";
layers = (
{
anchors = (
{
name = "#ogonek";
pos = (439,0);
},
{
name = top;
pos = (281,750);
}
);
background = {
shapes = (
{
closed = 1;
nodes = (
(161,81,l),
(161,0,l),
(505,0,l),
(476,89,l)
);
},
{
closed = 1;
nodes = (
(161,399,l),
(161,318,l),
(430,318,l),
(430,399,l)
);
},
{
closed = 1;
nodes = (
(459,604,l),
(496,700,l),
(80,700,l),
(80,0,l),
(170,0,l),
(170,619,l)
);
}
);
};
guides = (
{
angle = 71.6915;
pos = (102,406);
},
{
angle = 250.3462;
pos = (648,427);
}
);
layerId = master01;
shapes = (
{
closed = 1;
nodes = (
(171,0,l,{
"Letterink-NibData" = {
ValidForParentWidth = 21;
};
}),
(180,0,l,{
"Letterink-NibData" = {
ValidForParentWidth = 21;
};
}),
(495,0,l,{
"Letterink-NibData" = {
ValidForParentWidth = 21;
};
}),
(526,86,l,{
"Letterink-NibData" = {
ValidForParentWidth = 21;
};
}),
(180,79,l),
(180,344,l),
(471,344,l,{
"Letterink-NibData" = {
ValidForParentWidth = 21;
};
}),
(471,424,l,{
"Letterink-NibData" = {
ValidForParentWidth = 21;
};
}),
(180,424,l),
(180,670,l,{
"Letterink-NibData" = {
ValidForParentWidth = 21;
};
}),
(497,663,l,{
"Letterink-NibData" = {
ValidForParentWidth = 21;
};
}),
(527,750,l,{
"Letterink-NibData" = {
ValidForParentWidth = 21;
};
}),
(180,750,l,{
"Letterink-NibData" = {
ValidForParentWidth = 21;
};
}),
(170,750,l,{
"Letterink-NibData" = {
ValidForParentWidth = 21;
};
}),
(90,750,l,{
"Letterink-NibData" = {
ValidForParentWidth = 21;
};
}),
(90,0,l,{
"Letterink-NibData" = {
ValidForParentWidth = 21;
};
})
);
}
);
width = 562;
},
{
anchors = (
{
name = "#ogonek";
pos = (441,0);
},
{
name = top;
pos = (271,750);
}
);
background = {
shapes = (
{
closed = 1;
nodes = (
(166,79,l),
(166,0,l),
(505,0,l),
(521,86,l)
);
},
{
closed = 1;
nodes = (
(166,434,l),
(166,354,l),
(466,354,l),
(466,434,l)
);
},
{
closed = 1;
nodes = (
(506,663,l),
(522,750,l),
(85,750,l),
(85,0,l),
(175,0,l),
(175,670,l)
);
}
);
};
guides = (
{
angle = 250.3462;
pos = (601,427);
}
);
layerId = "FA803571-32C9-4FEE-972F-1FEF49B82217";
shapes = (
{
closed = 1;
nodes = (
(131,0,l),
(140,0,l),
(449,0,l),
(462,38,l),
(140,32,l),
(140,373,l),
(406,373,l),
(406,407,l),
(140,407,l),
(140,718,l),
(448,712,l),
(461,750,l),
(140,750,l),
(131,750,l),
(100,750,l),
(100,0,l)
);
}
);
width = 512;
},
{
anchors = (
{
name = "#ogonek";
pos = (450,0);
},
{
name = top;
pos = (336,740);
}
);
guides = (
{
angle = 250.3462;
pos = (697,427);
}
);
layerId = "494556E7-144A-4E25-B9FC-0C21051BD184";
shapes = (
{
closed = 1;
nodes = (
(226,0,l),
(285,0,l),
(545,0,l),
(598,150,l),
(285,141,l),
(285,307,l),
(528,307,l),
(528,457,l),
(285,457,l),
(285,608,l),
(544,600,l),
(597,750,l),
(285,750,l),
(216,750,l),
(75,750,l),
(75,0,l)
);
}
);
width = 628;
}
);
metricLeft = H;
note = E;
unicode = 69;
userData = {
"terminalChecked_FA803571-32C9-4FEE-972F-1FEF49B82217_141,0 / 150,0" = 0;
"terminalChecked_FA803571-32C9-4FEE-972F-1FEF49B82217_150,750 / 141,750" = 0;
"terminalChecked_FA803571-32C9-4FEE-972F-1FEF49B82217_416,373 / 416,407" = 0;
"terminalChecked_FA803571-32C9-4FEE-972F-1FEF49B82217_458,712 / 471,750" = 0;
"terminalChecked_FA803571-32C9-4FEE-972F-1FEF49B82217_459,0 / 472,38" = 0;
"terminalChecked_master01_171,0 / 180,0" = 0;
"terminalChecked_master01_180,750 / 170,750" = 0;
"terminalChecked_master01_471,344 / 471,424" = 0;
"terminalChecked_master01_495,0 / 526,86" = 0;
"terminalChecked_master01_497,663 / 527,750" = 0;
};
},
{
color = 5;
glyphname = F;
kernLeft = H;
kernRight = F;
lastChange = "2026-05-06 13:17:42 +0000";
layers = (
{
background = {
shapes = (
{
closed = 1;
nodes = (
(180,0,l),
(180,750,l),
(90,750,l),
(90,0,l)
);
},
{
closed = 1;
nodes = (
(171,354,l),
(460,354,l),
(460,434,l),
(171,434,l)
);
},
{
closed = 1;
nodes = (
(498,663,l),
(527,750,l),
(170,750,l),
(180,670,l)
);
}
);
};
layerId = master01;
shapes = (
{
closed = 1;
nodes = (
(180,0,l,{
"Letterink-NibData" = {
ValidForParentWidth = 21;
};
}),
(180,318,l),
(460,318,l,{
"Letterink-NibData" = {
ValidForParentWidth = 21;
};
}),
(460,398,l,{
"Letterink-NibData" = {
ValidForParentWidth = 21;
};
}),
(180,398,l),
(180,670,l,{
"Letterink-NibData" = {
ValidForParentWidth = 21;
};
}),
(497,663,l,{
"Letterink-NibData" = {
ValidForParentWidth = 21;
};
}),
(527,750,l,{
"Letterink-NibData" = {
ValidForParentWidth = 21;
};
}),
(180,750,l,{
"Letterink-NibData" = {
ValidForParentWidth = 21;
};
}),
(170,750,l,{
"Letterink-NibData" = {
ValidForParentWidth = 21;
};
}),
(90,750,l,{
"Letterink-NibData" = {
ValidForParentWidth = 21;
};
}),
(90,0,l,{
"Letterink-NibData" = {
ValidForParentWidth = 21;
};
})
);
}
);
width = 552;
},
{
background = {
shapes = (
{
closed = 1;
nodes = (
(140,0,l),
(140,749,l),
(100,749,l),
(100,0,l)
);
},
{
closed = 1;
nodes = (
(131,373,l),
(406,373,l),
(406,407,l),
(131,407,l)
);
},
{
closed = 1;
nodes = (
(448,711,l),
(461,749,l),
(131,749,l),
(131,717,l)
);
}
);
};
guides = (
{
angle = 250.3462;
pos = (346,427);
}
);
layerId = "FA803571-32C9-4FEE-972F-1FEF49B82217";
shapes = (
{
closed = 1;
nodes = (
(140,0,l),
(140,343,l),
(406,343,l),
(406,377,l),
(140,377,l),
(140,718,l),
(448,712,l),
(461,750,l),
(140,750,l),
(131,750,l),
(100,750,l),
(100,0,l)
);
}
);
width = 496;
},
{
guides = (
{
angle = 250.3462;
pos = (482,427);
}
);
layerId = "494556E7-144A-4E25-B9FC-0C21051BD184";
shapes = (
{
closed = 1;
nodes = (
(285,0,l),
(285,271,l),
(519,271,l),
(519,421,l),
(285,421,l),
(285,608,l),
(544,600,l),
(597,750,l),
(285,750,l),
(216,750,l),
(75,750,l),
(75,0,l)
);
}
);
width = 596;
}
);
metricLeft = H;
note = F;
unicode = 70;
userData = {
"terminalChecked_FA803571-32C9-4FEE-972F-1FEF49B82217_110,0 / 150,0" = 0;
"terminalChecked_FA803571-32C9-4FEE-972F-1FEF49B82217_150,750 / 141,750" = 0;
"terminalChecked_FA803571-32C9-4FEE-972F-1FEF49B82217_416,343 / 416,377" = 0;
"terminalChecked_FA803571-32C9-4FEE-972F-1FEF49B82217_458,712 / 471,750" = 0;
"terminalChecked_master01_180,750 / 170,750" = 0;
"terminalChecked_master01_460,318 / 460,398" = 0;
"terminalChecked_master01_497,663 / 527,750" = 0;
"terminalChecked_master01_90,0 / 180,0" = 0;
};
},
{
color = 5;
glyphname = G;
kernLeft = O;
kernRight = O;
lastChange = "2026-07-10 13:45:09 +0000";
layers = (
{
anchors = (
{
name = bottom;
pos = (342,0);
},
{
name = top;
pos = (368,750);
}
);
guides = (
{
angle = 250.3462;
pos = (417,427);
},
{
pos = (495,364);
},
{
angle = 250.3462;
pos = (707,427);
}
);
layerId = master01;
shapes = (
{
closed = 1;
nodes = (
(407,-14,o),
(507,16,o),
(573,51,c,{
"Letterink-NibData" = {
ValidForParentWidth = 21;
};
}),
(596,117,l,{
"Letterink-NibData" = {
ValidForParentWidth = 21;
};
}),
(596,364,l,{
"Letterink-NibData" = {
ValidForParentWidth = 21;
};
}),
(394,364,l,{
"Letterink-NibData" = {
ValidForParentWidth = 21;
};
}),
(363,275,l,{
"Letterink-NibData" = {
ValidForParentWidth = 21;
};
}),
(506,280,l,{
"Letterink-NibData" = {
ValidForParentWidth = 21;
};
}),
(506,104,l,{
"Letterink-NibData" = {
ValidForParentWidth = 21;
};
}),
(467,85,o),
(388,65,o),
(339,62,c,{
"Letterink-NibData" = {
ValidForParentWidth = 21;
};
}),
(199,85,o),
(135,207,o),
(135,447,cs,{
"Letterink-NibData" = {
ValidForParentWidth = 21;
};
}),
(135,574,o),
(204,684,o),
(314,687,c,{
"Letterink-NibData" = {
ValidForParentWidth = "21";
};
}),
(386,677,o),
(488,646,o),
(553,614,c,{
"Letterink-NibData" = {
ValidForParentWidth = "21";
};
}),
(585,703,l),
(493,747,o),
(436,763,o),
(368,763,cs,{
"Letterink-NibData" = {
ValidForParentWidth = "21";
};
}),
(136,763,o),
(45,599,o),
(45,375,cs,{
"Letterink-NibData" = {
ValidForParentWidth = 21;
};
}),
(45,133,o),
(150,-14,o),
(342,-14,cs,{
"Letterink-NibData" = {
ValidForParentWidth = 21;
};
})
);
}
);
width = 636;
},
{
anchors = (
{
name = bottom;
pos = (342,0);
},
{
name = top;
pos = (350,750);
}
);
guides = (
{
pos = (492,365);
},
{
angle = 250.887;
pos = (509,657);
}
);
layerId = "FA803571-32C9-4FEE-972F-1FEF49B82217";
shapes = (
{
closed = 1;
nodes = (
(409,-14,o),
(497,10,o),
(555,62,c),
(576,124,l),
(576,365,l),
(408,365,l),
(395,329,l),
(536,333,l),
(536,89,l),
(458,41,o),
(454,40,o),
(370,27,c),
(129,27,o),
(104,202,o),
(104,422,cs),
(104,603,o),
(196,724,o),
(354,724,c),
(402,719,o),
(493,696,o),
(553,673,c),
(567,713,l),
(490,745,o),
(418,764,o),
(360,764,cs),
(150,764,o),
(60,592,o),
(60,372,cs),
(60,129,o),
(167,-13,o),
(353,-14,cs)
);
}
);
width = 639;
},
{
anchors = (
{
name = bottom;
pos = (365,0);
},
{
name = top;
pos = (365,750);
}
);
guides = (
{
pos = (534,424);
},
{
angle = 70.2405;
pos = (756,427);
},
{
angle = -70.3462;
pos = (654,418);
}
);
layerId = "494556E7-144A-4E25-B9FC-0C21051BD184";
shapes = (
{
closed = 1;
nodes = (
(447,-14,o),
(554,2,o),
(620,47,c),
(646,121,l),
(646,424,l),
(422,424,l),
(370,279,l),
(466,287,l),
(466,175,l),
(451,163,o),
(389,160,o),
(360,163,c),
(305,187,o),
(241,244,o),
(241,371,cs),
(241,493,o),
(282,557,o),
(365,596,c),
(445,580,o),
(537,559,o),
(600,530,c),
(658,691,l),
(563,750,o),
(465,765,o),
(385,765,cs),
(152,765,o),
(20,633,o),
(20,376,cs),
(20,157,o),
(142,-14,o),
(376,-14,cs)
);
}
);
width = 687;
}
);
metricLeft = O;
note = G;
unicode = 71;
userData = {
"terminalChecked_FA803571-32C9-4FEE-972F-1FEF49B82217_408,365 / 395,329" = 0;
"terminalChecked_FA803571-32C9-4FEE-972F-1FEF49B82217_553,673 / 567,713" = 0;
"terminalChecked_FA803571-32C9-4FEE-972F-1FEF49B82217_555,62 / 576,124" = 0;
"terminalChecked_master01_394,364 / 363,275" = 1;
"terminalChecked_master01_573,51 / 596,117" = 1;
"terminalChecked_master01_575,51 / 596,117" = 0;
};
},
{
color = 1;
glyphname = H;
kernLeft = H;
kernRight = H;
lastChange = "2026-07-10 13:44:55 +0000";
layers = (
{
anchors = (
{
name = "#stroke";
pos = (357,342);
},
{
name = top;
pos = (358,750);
}
);
background = {
shapes = (
{
closed = 1;
nodes = (
(80,750,l),
(80,0,l),
(170,0,l),
(170,750,l)
);
},
{
closed = 1;
nodes = (
(525,750,l),
(525,0,l),
(615,0,l),
(615,750,l)
);
},
{
closed = 1;
nodes = (
(161,437,l),
(161,357,l),
(533,357,l),
(533,437,l)
);
}
);
};
guides = (
{
pos = (175.5,593.5);
},
{
angle = 90;
pos = (357.5,750);
}
);
layerId = master01;
shapes = (
{
closed = 1;
nodes = (
(625,0,l,{
"Letterink-NibData" = {
ValidForParentWidth = 21;
};
}),
(625,750,l,{
"Letterink-NibData" = {
ValidForParentWidth = 21;
};
}),
(535,750,l,{
"Letterink-NibData" = {
ValidForParentWidth = 21;
};
}),
(535,437,l),
(180,437,l),
(180,750,l,{
"Letterink-NibData" = {
ValidForParentWidth = 21;
};
}),
(90,750,l,{
"Letterink-NibData" = {
ValidForParentWidth = 21;
};
}),
(90,0,l,{
"Letterink-NibData" = {
ValidForParentWidth = 21;
};
}),
(180,0,l,{
"Letterink-NibData" = {
ValidForParentWidth = 21;
};
}),
(180,357,l),
(535,357,l),
(535,0,l,{
"Letterink-NibData" = {
ValidForParentWidth = 21;
};
})
);
}
);
width = 715;
},
{
anchors = (
{
name = "#stroke";
pos = (327,336);
},
{
name = top;
pos = (328,750);
}
);
guides = (
{
pos = (136,579);
},
{
angle = 90;
pos = (328,750);
}
);
layerId = "FA803571-32C9-4FEE-972F-1FEF49B82217";
shapes = (
{
closed = 1;
nodes = (
(555,0,l),
(555,750,l),
(515,750,l),
(515,407,l),
(140,407,l),
(140,750,l),
(100,750,l),
(100,0,l),
(140,0,l),
(140,373,l),
(515,373,l),
(515,0,l)
);
}
);
width = 655;
},
{
anchors = (
{
name = "#stroke";
pos = (382,342);
},
{
name = top;
pos = (385,750);
}
);
guides = (
{
pos = (241,594);
},
{
angle = 90;
pos = (385,750);
}
);
layerId = "494556E7-144A-4E25-B9FC-0C21051BD184";
shapes = (
{
closed = 1;
nodes = (
(695,0,l),
(695,750,l),
(485,750,l),
(485,437,l),
(285,437,l),
(285,750,l),
(75,750,l),
(75,0,l),
(285,0,l),
(285,297,l),
(485,297,l),
(485,0,l)
);
}
);
width = 770;
}
);
note = H;
unicode = 72;
userData = {
"terminalChecked_FA803571-32C9-4FEE-972F-1FEF49B82217_110,0 / 150,0" = 0;
"terminalChecked_FA803571-32C9-4FEE-972F-1FEF49B82217_150,750 / 110,750" = 0;
"terminalChecked_FA803571-32C9-4FEE-972F-1FEF49B82217_525,0 / 565,0" = 0;
"terminalChecked_FA803571-32C9-4FEE-972F-1FEF49B82217_565,750 / 525,750" = 0;
"terminalChecked_master01_180,750 / 90,750" = 0;
"terminalChecked_master01_535,0 / 625,0" = 0;
"terminalChecked_master01_625,750 / 535,750" = 0;
"terminalChecked_master01_90,0 / 180,0" = 0;
};
},
{
color = 1;
glyphname = I;
kernLeft = H;
kernRight = H;
lastChange = "2026-07-10 13:44:55 +0000";
layers = (
{
anchors = (
{
name = "#ogonek";
pos = (134,0);
},
{
name = top;
pos = (145,750);
}
);
layerId = master01;
shapes = (
{
closed = 1;
nodes = (
(190,0,l,{
"Letterink-NibData" = {
ValidForParentWidth = 21;
};
}),
(190,750,l,{
"Letterink-NibData" = {
ValidForParentWidth = 21;
};
}),
(100,750,l,{
"Letterink-NibData" = {
ValidForParentWidth = 21;
};
}),
(100,0,l,{
"Letterink-NibData" = {
ValidForParentWidth = 21;
};
})
);
}
);
width = 290;
},
{
anchors = (
{
name = "#ogonek";
pos = (142,0);
},
{
name = top;
pos = (130,750);
}
);
layerId = "FA803571-32C9-4FEE-972F-1FEF49B82217";
shapes = (
{
closed = 1;
nodes = (
(150,0,l),
(150,750,l),
(110,750,l),
(110,0,l)
);
}
);
width = 260;
},
{
anchors = (
{
name = "#ogonek";
pos = (200,0);
},
{
name = top;
pos = (190,740);
}
);
layerId = "494556E7-144A-4E25-B9FC-0C21051BD184";
shapes = (
{
closed = 1;
nodes = (
(295,0,l),
(295,750,l),
(85,750,l),
(85,0,l)
);
}
);
width = 380;
}
);
note = I;
unicode = 73;
userData = {
"terminalChecked_FA803571-32C9-4FEE-972F-1FEF49B82217_110,0 / 150,0" = 0;
"terminalChecked_FA803571-32C9-4FEE-972F-1FEF49B82217_150,750 / 110,750" = 0;
"terminalChecked_master01_100,0 / 190,0" = 0;
"terminalChecked_master01_190,750 / 100,750" = 0;
};
},
{
color = 1;
glyphname = J;
kernLeft = J;
kernRight = H;
lastChange = "2026-07-10 13:44:55 +0000";
layers = (
{
anchors = (
{
name = top;
pos = (328,750);
}
);
guides = (
{
angle = 70.3462;
pos = (164,427);
}
);
layerId = master01;
shapes = (
{
closed = 1;
nodes = (
(328,-14,o),
(373,79,o),
(373,194,cs,{
"Letterink-NibData" = {
ValidForParentWidth = 21;
};
}),
(373,750,l,{
"Letterink-NibData" = {
ValidForParentWidth = 21;
};
}),
(283,750,l,{
"Letterink-NibData" = {
ValidForParentWidth = 21;
};
}),
(283,233,ls,{
"Letterink-NibData" = {
ValidForParentWidth = 21;
};
}),
(283,188,o),
(276,90,o),
(246,60,c,{
"Letterink-NibData" = {
ValidForParentWidth = 21;
};
}),
(194,63,o),
(101,94,o),
(53,117,c,{
"Letterink-NibData" = {
ValidForParentWidth = 21;
};
}),
(24,35,l,{
"Letterink-NibData" = {
ValidForParentWidth = 21;
};
}),
(91,7,o),
(166,-14,o),
(242,-14,cs,{
"Letterink-NibData" = {
ValidForParentWidth = 21;
};
})
);
}
);
width = 463;
},
{
anchors = (
{
name = top;
pos = (308,750);
}
);
background = {
shapes = (
{
closed = 1;
nodes = (
(288,749,l),
(288,223,ls),
(288,78,o),
(272,49,o),
(237,19,c),
(187,19,o),
(91,40,o),
(41,64,c),
(29,29,l),
(92,2,o),
(151,-14,o),
(233,-14,cs),
(289,-14,o),
(328,79,o),
(328,184,cs),
(328,749,l)
);
}
);
};
guides = (
{
angle = 70.3462;
pos = (492,427);
},
{
angle = 70.3462;
pos = (171,427);
}
);
layerId = "FA803571-32C9-4FEE-972F-1FEF49B82217";
shapes = (
{
closed = 1;
nodes = (
(297,-14,o),
(328,53,o),
(328,204,cs),
(328,750,l),
(288,750,l),
(288,223,ls),
(288,78,o),
(272,49,o),
(237,19,c),
(187,19,o),
(91,40,o),
(41,64,c),
(29,29,l),
(103,1,o),
(160,-14,o),
(204,-14,cs)
);
}
);
width = 433;
},
{
anchors = (
{
name = top;
pos = (313,740);
}
);
guides = (
{
angle = 70.3462;
pos = (140,426);
}
);
layerId = "494556E7-144A-4E25-B9FC-0C21051BD184";
shapes = (
{
closed = 1;
nodes = (
(404,-14,o),
(418,118,o),
(418,290,cs),
(418,750,l),
(208,750,l),
(208,299,ls),
(208,260,o),
(208,190,o),
(193,144,c),
(146,153,o),
(96,169,o),
(55,189,c),
(5,48,l),
(89,11,o),
(148,-14,o),
(248,-14,cs)
);
}
);
width = 478;
}
);
note = J;
unicode = 74;
userData = {
"terminalChecked_FA803571-32C9-4FEE-972F-1FEF49B82217_339,750 / 299,750" = 0;
"terminalChecked_FA803571-32C9-4FEE-972F-1FEF49B82217_52,64 / 40,29" = 0;
"terminalChecked_master01_373,749 / 283,749" = 0;
};
},
{
color = 1;
glyphname = K;
kernLeft = H;
kernRight = K;
lastChange = "2026-07-10 13:45:09 +0000";
layers = (
{
anchors = (
{
name = bottom;
pos = (300,-14);
}
);
guides = (
{
angle = 90;
pos = (319,0);
},
{
angle = -19.6538;
pos = (487,736);
},
{
angle = -19.6538;
pos = (487,736);
}
);
layerId = master01;
shapes = (
{
closed = 1;
nodes = (
(180,0,l,{
"Letterink-NibData" = {
ValidForParentWidth = 21;
};
}),
(180,289,l),
(266,394,l),
(458,0,l,{
"Letterink-NibData" = {
ValidForParentWidth = 21;
};
}),
(568,0,l,{
"Letterink-NibData" = {
ValidForParentWidth = 21;
};
}),
(327,468,l),
(534,719,l),
(448,750,l,{
"Letterink-NibData" = {
ValidForParentWidth = 21;
};
}),
(180,404,l),
(180,750,l,{
"Letterink-NibData" = {
ValidForParentWidth = 21;
};
}),
(90,750,l,{
"Letterink-NibData" = {
ValidForParentWidth = 21;
};
}),
(90,0,l,{
"Letterink-NibData" = {
ValidForParentWidth = 21;
};
})
);
}
);
width = 608;
},
{
anchors = (
{
name = bottom;
pos = (275,0);
}
);
background = {
guides = (
{
angle = 341.5651;
pos = (467,736);
}
);
shapes = (
{
closed = 1;
nodes = (
(120,360,l),
(135,266,l),
(510,721,l),
(423,750,l)
);
},
{
closed = 1;
nodes = (
(64,750,l),
(64,0,l),
(154,0,l),
(154,750,l)
);
},
{
closed = 1;
nodes = (
(291,488,l),
(232,410,l),
(432,0,l),
(542,0,l)
);
}
);
};
guides = (
{
angle = 90;
pos = (293,0);
},
{
angle = -19.6538;
pos = (439,745);
},
{
angle = 19.6538;
pos = (439,712);
}
);
layerId = "FA803571-32C9-4FEE-972F-1FEF49B82217";
shapes = (
{
closed = 1;
nodes = (
(140,1,l),
(140,303,l),
(230,425,l),
(446,0,l),
(489,0,l),
(254,457,l),
(459,738,l),
(425,750,l),
(140,356,l),
(140,750,l),
(100,750,l),
(100,1,l)
);
}
);
width = 544;
},
{
anchors = (
{
name = bottom;
pos = (350,0);
}
);
background = {
shapes = (
{
pos = (-4,0);
ref = X;
}
);
};
guides = (
{
angle = 90;
pos = (381,0);
},
{
pos = (208,324);
},
{
angle = 49.9503;
pos = (322,255);
},
{
angle = 117.3887;
pos = (587,221);
},
{
angle = 114.8756;
pos = (402,145);
},
{
angle = -19.7595;
pos = (564,730);
}
);
layerId = "494556E7-144A-4E25-B9FC-0C21051BD184";
shapes = (
{
closed = 1;
nodes = (
(285,0,l),
(285,210,l),
(341,278,l),
(469,0,l),
(701,0,l),
(475,437,l),
(684,686,l),
(504,750,l),
(285,468,l),
(285,750,l),
(75,750,l),
(75,0,l)
);
}
);
width = 696;
}
);
metricLeft = H;
note = K;
unicode = 75;
userData = {
"terminalChecked_FA803571-32C9-4FEE-972F-1FEF49B82217_110,1 / 150,1" = 0;
"terminalChecked_FA803571-32C9-4FEE-972F-1FEF49B82217_150,750 / 110,750" = 0;
"terminalChecked_FA803571-32C9-4FEE-972F-1FEF49B82217_456,0 / 499,0" = 0;
"terminalChecked_FA803571-32C9-4FEE-972F-1FEF49B82217_470,737 / 436,749" = 1;
"terminalChecked_FA803571-32C9-4FEE-972F-1FEF49B82217_471,736 / 436,749" = 0;
"terminalChecked_FA803571-32C9-4FEE-972F-1FEF49B82217_471,736 / 437,749" = 1;
"terminalChecked_master01_180,289 / 266,394" = 1;
"terminalChecked_master01_180,750 / 90,750" = 0;
"terminalChecked_master01_458,0 / 568,0" = 0;
"terminalChecked_master01_534,719 / 448,750" = 1;
"terminalChecked_master01_90,0 / 180,0" = 0;
};
},
{
color = 1;
glyphname = L;
kernLeft = H;
kernRight = L;
lastChange = "2026-07-10 13:45:09 +0000";
layers = (
{
anchors = (
{
name = "#slashlong";
pos = (135,0);
},
{
name = bottom;
pos = (265,0);
},
{
name = top;
pos = (135,750);
},
{
name = topright;
pos = (168,515);
}
);
guides = (
{
angle = 70.3462;
pos = (602,427);
},
{
angle = 90;
pos = (270,0);
},
{
angle = 90;
pos = (135,750);
}
);
layerId = master01;
shapes = (
{
closed = 1;
nodes = (
(450,0,l,{
"Letterink-NibData" = {
ValidForParentWidth = 21;
};
}),
(481,87,l,{
"Letterink-NibData" = {
ValidForParentWidth = 21;
};
}),
(180,78,l),
(180,750,l,{
"Letterink-NibData" = {
ValidForParentWidth = 21;
};
}),
(90,750,l,{
"Letterink-NibData" = {
ValidForParentWidth = 21;
};
}),
(90,0,l,{
"Letterink-NibData" = {
ValidForParentWidth = 21;
};
})
);
}
);
width = 506;
},
{
anchors = (
{
name = "#slashlong";
pos = (106,0);
},
{
name = bottom;
pos = (267,0);
},
{
name = top;
pos = (120,750);
},
{
name = topright;
pos = (118,504);
}
);
guides = (
{
angle = 70.3462;
pos = (592,427);
},
{
angle = 250.3462;
pos = (592,427);
}
);
layerId = "FA803571-32C9-4FEE-972F-1FEF49B82217";
shapes = (
{
closed = 1;
nodes = (
(440,0,l),
(454,38,l),
(140,32,l),
(140,750,l),
(100,750,l),
(100,0,l)
);
}
);
width = 489;
},
{
anchors = (
{
name = "#slashlong";
pos = (119,0);
},
{
name = bottom;
pos = (269,0);
},
{
name = top;
pos = (180,750);
},
{
name = topright;
pos = (203,515);
}
);
guides = (
{
angle = 70.3462;
pos = (638,427);
},
{
angle = 90;
pos = (180,750);
}
);
layerId = "494556E7-144A-4E25-B9FC-0C21051BD184";
shapes = (
{
closed = 1;
nodes = (
(485,-1,l),
(538,149,l),
(285,142,l),
(285,750,l),
(75,750,l),
(75,0,l)
);
}
);
width = 553;
}
);
metricLeft = H;
note = L;
unicode = 76;
userData = {
"terminalChecked_FA803571-32C9-4FEE-972F-1FEF49B82217_141,0 / 150,0" = 0;
"terminalChecked_FA803571-32C9-4FEE-972F-1FEF49B82217_150,750 / 110,750" = 0;
"terminalChecked_FA803571-32C9-4FEE-972F-1FEF49B82217_450,0 / 464,38" = 0;
"terminalChecked_master01_171,0 / 180,0" = 0;
"terminalChecked_master01_180,750 / 90,750" = 0;
"terminalChecked_master01_450,0 / 481,87" = 0;
};
},
{
color = 1;
glyphname = M;
lastChange = "2026-05-06 13:17:42 +0000";
layers = (
{
background = {
shapes = (
{
closed = 1;
nodes = (
(388,100,l),
(464,100,l),
(636,675,l),
(599,750,l),
(413,167,l),
(460,167,l),
(253,750,l),
(205,678,l)
);
},
{
closed = 1;
nodes = (
(136,0,l),
(231,679,l),
(253,750,l),
(163,750,l),
(50,0,l)
);
},
{
closed = 1;
nodes = (
(802,0,l),
(689,750,l),
(599,750,l),
(617,676,l),
(705,0,l)
);
}
);
};
layerId = master01;
shapes = (
{
closed = 1;
nodes = (
(141,0,l,{
"Letterink-NibData" = {
ValidForParentWidth = 21;
};
}),
(228,621,l),
(393,100,l,{
"Letterink-NibData" = {
ValidForParentWidth = 21;
};
}),
(469,100,l,{
"Letterink-NibData" = {
ValidForParentWidth = 21;
};
}),
(628,630,l),
(710,0,l,{
"Letterink-NibData" = {
ValidForParentWidth = 21;
};
}),
(807,0,l,{
"Letterink-NibData" = {
ValidForParentWidth = 21;
};
}),
(694,750,l,{
"Letterink-NibData" = {
ValidForParentWidth = 21;
};
}),
(604,750,l,{
"Letterink-NibData" = {
ValidForParentWidth = 21;
};
}),
(440,237,l),
(258,750,l,{
"Letterink-NibData" = {
ValidForParentWidth = 21;
};
}),
(168,750,l,{
"Letterink-NibData" = {
ValidForParentWidth = 21;
};
}),
(55,0,l,{
"Letterink-NibData" = {
ValidForParentWidth = 21;
};
})
);
}
);
width = 852;
},
{
background = {
shapes = (
{
closed = 1;
nodes = (
(388,100,l),
(433,100,l),
(624,750,l),
(595,750,l),
(407,136,l),
(417,136,l),
(215,750,l),
(179,750,l)
);
},
{
closed = 1;
nodes = (
(96,0,l),
(200,720,l),
(214,750,l),
(170,750,l),
(60,0,l)
);
},
{
closed = 1;
nodes = (
(763,0,l),
(640,750,l),
(593,750,l),
(609,708,l),
(722,0,l)
);
}
);
};
guides = (
{
angle = 81.6561;
pos = (115,375);
},
{
angle = -80.6864;
pos = (702,375);
}
);
layerId = "FA803571-32C9-4FEE-972F-1FEF49B82217";
shapes = (
{
closed = 1;
nodes = (
(96,0,l),
(196,698,l),
(388,100,l),
(433,100,l),
(610,702,l),
(722,0,l),
(763,0,l),
(640,750,l),
(595,750,l),
(412,152,l),
(215,750,l),
(170,750,l),
(60,0,l)
);
}
);
width = 818;
},
{
guides = (
{
angle = -79.1315;
pos = (812,375);
},
{
angle = -75.8263;
pos = (412,554);
}
);
layerId = "494556E7-144A-4E25-B9FC-0C21051BD184";
shapes = (
{
closed = 1;
nodes = (
(232,0,l),
(283,452,l),
(378,100,l),
(518,100,l),
(604,457,l),
(664,0,l),
(884,0,l),
(740,750,l),
(544,750,l),
(456,378,l),
(362,750,l),
(166,750,l),
(22,0,l)
);
}
);
width = 914;
}
);
note = M;
unicode = 77;
userData = {
"terminalChecked_FA803571-32C9-4FEE-972F-1FEF49B82217_215,750 / 170,750" = 0;
"terminalChecked_FA803571-32C9-4FEE-972F-1FEF49B82217_388,100 / 433,100" = 0;
"terminalChecked_FA803571-32C9-4FEE-972F-1FEF49B82217_60,0 / 96,0" = 0;
"terminalChecked_FA803571-32C9-4FEE-972F-1FEF49B82217_640,750 / 595,750" = 0;
"terminalChecked_FA803571-32C9-4FEE-972F-1FEF49B82217_722,0 / 763,0" = 0;
"terminalChecked_master01_258,750 / 168,750" = 0;
"terminalChecked_master01_393,100 / 469,100" = 0;
"terminalChecked_master01_55,0 / 141,0" = 0;
"terminalChecked_master01_694,750 / 604,750" = 0;
"terminalChecked_master01_710,0 / 807,0" = 0;
};
},
{
color = 1;
glyphname = N;
kernLeft = H;
kernRight = H;
lastChange = "2026-07-10 13:45:09 +0000";
layers = (
{
anchors = (
{
name = bottom;
pos = (350,0);
},
{
name = top;
pos = (355,750);
}
);
background = {
shapes = (
{
closed = 1;
nodes = (
(510,0,l),
(566,84,l),
(170,750,l),
(98,692,l)
);
},
{
closed = 1;
nodes = (
(170,0,l),
(170,750,l),
(80,750,l),
(80,0,l)
);
},
{
closed = 1;
nodes = (
(600,0,l),
(600,750,l),
(510,750,l),
(510,0,l)
);
}
);
};
guides = (
{
angle = 90;
pos = (350,0);
}
);
layerId = master01;
shapes = (
{
closed = 1;
nodes = (
(180,0,l,{
"Letterink-NibData" = {
ValidForParentWidth = 21;
};
}),
(180,621,l),
(157,615,l),
(520,0,l,{
"Letterink-NibData" = {
ValidForParentWidth = 21;
};
}),
(610,0,l,{
"Letterink-NibData" = {
ValidForParentWidth = 21;
};
}),
(610,750,l,{
"Letterink-NibData" = {
ValidForParentWidth = 21;
};
}),
(520,750,l,{
"Letterink-NibData" = {
ValidForParentWidth = 21;
};
}),
(520,128,l),
(543,134,l),
(180,750,l,{
"Letterink-NibData" = {
ValidForParentWidth = 21;
};
}),
(90,750,l,{
"Letterink-NibData" = {
ValidForParentWidth = 21;
};
}),
(90,0,l,{
"Letterink-NibData" = {
ValidForParentWidth = 21;
};
})
);
}
);
width = 700;
},
{
anchors = (
{
name = bottom;
pos = (337,0);
},
{
name = top;
pos = (340,750);
}
);
background = {
shapes = (
{
closed = 1;
nodes = (
(541,0,l),
(557,51,l),
(140,750,l),
(124,700,l)
);
},
{
closed = 1;
nodes = (
(140,0,l),
(140,750,l),
(100,750,l),
(100,0,l)
);
},
{
closed = 1;
nodes = (
(581,0,l),
(581,750,l),
(541,750,l),
(541,0,l)
);
}
);
};
guides = (
{
angle = 90;
pos = (341,0);
}
);
layerId = "FA803571-32C9-4FEE-972F-1FEF49B82217";
shapes = (
{
closed = 1;
nodes = (
(140,0,l),
(140,718,l),
(116,712,l),
(541,0,l),
(581,0,l),
(581,750,l),
(541,750,l),
(541,33,l),
(564,39,l),
(140,750,l),
(100,750,l),
(100,0,l)
);
}
);
width = 681;
},
{
anchors = (
{
name = bottom;
pos = (378,0);
},
{
name = top;
pos = (380,740);
}
);
guides = (
{
angle = 90;
pos = (390,0);
}
);
layerId = "494556E7-144A-4E25-B9FC-0C21051BD184";
shapes = (
{
closed = 1;
nodes = (
(285,0,l),
(270,478,l),
(253,473,l),
(495,0,l),
(695,0,l),
(695,750,l),
(485,750,l),
(500,248,l),
(528,253,l),
(275,750,l),
(75,750,l),
(75,0,l)
);
}
);
width = 770;
}
);
metricLeft = H;
metricRight = H;
note = N;
unicode = 78;
userData = {
"terminalChecked_FA803571-32C9-4FEE-972F-1FEF49B82217_110,0 / 150,0" = 0;
"terminalChecked_FA803571-32C9-4FEE-972F-1FEF49B82217_150,750 / 110,750" = 0;
"terminalChecked_FA803571-32C9-4FEE-972F-1FEF49B82217_551,0 / 591,0" = 0;
"terminalChecked_FA803571-32C9-4FEE-972F-1FEF49B82217_591,750 / 551,750" = 0;
"terminalChecked_master01_180,750 / 90,750" = 0;
"terminalChecked_master01_520,0 / 610,0" = 0;
"terminalChecked_master01_610,750 / 520,750" = 0;
"terminalChecked_master01_90,0 / 180,0" = 0;
};
},
{
color = 5;
glyphname = O;
kernLeft = O;
kernRight = O;
lastChange = "2026-07-10 13:44:55 +0000";
layers = (
{
anchors = (
{
name = top;
pos = (356,750);
}
);
background = {
shapes = (
{
closed = 1;
nodes = (
(570,-14,o),
(670,135,o),
(667,374,cs),
(664,604,o),
(559,764,o),
(359,764,cs),
(139,764,o),
(43,615,o),
(43,374,cs),
(43,146,o),
(150,-14,o),
(350,-14,cs)
);
},
{
closed = 1;
nodes = (
(133,599,o),
(216,688,o),
(330,688,cs),
(490,688,o),
(577,584,o),
(577,314,cs),
(577,151,o),
(494,62,o),
(379,62,cs),
(219,62,o),
(133,164,o),
(133,434,cs)
);
}
);
};
guides = (
{
pos = (361,769);
}
);
layerId = master01;
shapes = (
{
closed = 1;
nodes = (
(556,-14,o),
(666,136,o),
(664,375,cs,{
"Letterink-NibData" = {
ValidForParentWidth = 21;
};
}),
(662,612,o),
(564,764,o),
(357,764,cs,{
"Letterink-NibData" = {
ValidForParentWidth = 21;
};
}),
(153,764,o),
(45,613,o),
(45,375,cs,{
"Letterink-NibData" = {
ValidForParentWidth = 21;
};
}),
(45,137,o),
(146,-14,o),
(350,-14,cs,{
"Letterink-NibData" = {
ValidForParentWidth = 21;
};
})
);
},
{
closed = 1;
nodes = (
(186,61,o),
(135,228,o),
(135,447,cs,{
"Letterink-NibData" = {
ValidForParentWidth = 21;
};
}),
(135,579,o),
(182,688,o),
(328,688,cs,{
"Letterink-NibData" = {
ValidForParentWidth = 21;
};
}),
(522,688,o),
(574,523,o),
(574,303,cs,{
"Letterink-NibData" = {
ValidForParentWidth = 21;
};
}),
(574,171,o),
(526,61,o),
(383,61,cs,{
"Letterink-NibData" = {
ValidForParentWidth = 21;
};
})
);
}
);
width = 709;
},
{
anchors = (
{
name = top;
pos = (356,750);
}
);
background = {
shapes = (
{
closed = 1;
nodes = (
(578,-14,o),
(663,167,o),
(663,364,cs),
(663,583,o),
(553,764,o),
(338,764,cs),
(118,764,o),
(33,583,o),
(33,386,cs),
(33,167,o),
(143,-14,o),
(358,-14,cs)
);
},
{
closed = 1;
nodes = (
(183,26,o),
(77,167,o),
(77,384,cs),
(77,688,o),
(235,724,o),
(353,724,cs),
(513,724,o),
(619,583,o),
(619,366,cs),
(619,62,o),
(461,26,o),
(343,26,cs)
);
}
);
};
layerId = "FA803571-32C9-4FEE-972F-1FEF49B82217";
shapes = (
{
closed = 1;
nodes = (
(561,-14,o),
(651,157,o),
(651,377,cs),
(651,567,o),
(580,764,o),
(360,764,cs),
(150,764,o),
(60,592,o),
(60,372,cs),
(60,182,o),
(131,-14,o),
(351,-14,cs)
);
},
{
closed = 1;
nodes = (
(129,26,o),
(104,202,o),
(104,422,cs),
(104,597,o),
(196,724,o),
(342,724,cs),
(582,724,o),
(607,547,o),
(607,327,cs),
(607,152,o),
(515,26,o),
(369,26,cs)
);
}
);
width = 711;
},
{
anchors = (
{
name = top;
pos = (375,740);
}
);
layerId = "494556E7-144A-4E25-B9FC-0C21051BD184";
shapes = (
{
closed = 1;
nodes = (
(629,-14,o),
(730,153,o),
(730,365,cs),
(730,584,o),
(614,764,o),
(374,764,cs),
(120,764,o),
(20,596,o),
(20,384,cs),
(20,165,o),
(135,-14,o),
(375,-14,cs)
);
},
{
closed = 1;
nodes = (
(279,146,o),
(240,267,o),
(240,421,cs),
(240,530,o),
(262,604,o),
(358,604,cs),
(472,604,o),
(510,482,o),
(510,327,cs),
(510,216,o),
(486,146,o),
(393,146,cs)
);
}
);
width = 750;
}
);
note = O;
unicode = 79;
},
{
color = 5;
glyphname = P;
kernLeft = H;
kernRight = P;
lastChange = "2026-05-06 13:17:42 +0000";
layers = (
{
background = {
shapes = (
{
closed = 1;
nodes = (
(90,0,l),
(180,0,l),
(180,750,l),
(90,750,l)
);
},
{
closed = 1;
nodes = (
(529,669,o),
(417,764,o),
(245,764,cs),
(160,764,o),
(108,753,o),
(90,750,c),
(135,671,l),
(168,680,o),
(201,685,o),
(232,685,cs),
(346,685,o),
(439,622,o),
(439,502,cs),
(439,422,o),
(420,376,o),
(381,335,c),
(356,325,o),
(322,324,o),
(289,324,cs),
(238,324,o),
(185,338,o),
(152,360,c),
(152,277,l),
(192,259,o),
(243,249,o),
(294,249,cs),
(442,249,o),
(529,384,o),
(529,513,cs)
);
}
);
};
layerId = master01;
shapes = (
{
closed = 1;
nodes = (
(442,249,o),
(529,374,o),
(529,513,cs,{
"Letterink-NibData" = {
ValidForParentWidth = 21;
};
}),
(529,674,o),
(417,764,o),
(245,764,cs,{
"Letterink-NibData" = {
ValidForParentWidth = 21;
};
}),
(160,764,o),
(108,753,o),
(90,750,c,{
"Letterink-NibData" = {
ValidForParentWidth = 21;
};
}),
(90,0,l,{
"Letterink-NibData" = {
ValidForParentWidth = 21;
};
}),
(180,0,l,{
"Letterink-NibData" = {
ValidForParentWidth = 21;
};
}),
(180,266,l),
(214,255,o),
(254,249,o),
(294,249,cs,{
"Letterink-NibData" = {
ValidForParentWidth = 21;
};
})
);
},
{
closed = 1;
nodes = (
(180,681,l),
(199,684,o),
(215,685,o),
(232,685,cs,{
"Letterink-NibData" = {
ValidForParentWidth = 21;
};
}),
(346,685,o),
(439,627,o),
(439,502,cs,{
"Letterink-NibData" = {
ValidForParentWidth = 21;
};
}),
(439,412,o),
(420,376,o),
(381,335,c,{
"Letterink-NibData" = {
ValidForParentWidth = 21;
};
}),
(356,325,o),
(322,324,o),
(289,324,cs,{
"Letterink-NibData" = {
ValidForParentWidth = 21;
};
}),
(251,324,o),
(211,332,o),
(180,345,c)
);
}
);
width = 574;
},
{
background = {
shapes = (
{
closed = 1;
nodes = (
(403,274,o),
(498,356,o),
(498,532,cs),
(498,670,o),
(406,764,o),
(236,764,cs),
(200,764,o),
(146,761,o),
(100,749,c),
(115,710,l),
(157,722,o),
(204,724,o),
(236,724,cs),
(385,724,o),
(458,647,o),
(458,532,cs),
(458,445,o),
(440,403,o),
(393,354,c),
(349,328,o),
(299,314,o),
(248,314,cs),
(211,314,o),
(174,321,o),
(137,336,c),
(123,298,l),
(164,282,o),
(206,274,o),
(248,274,cs)
);
},
{
closed = 1;
nodes = (
(140,0,l),
(140,749,l),
(100,749,l),
(100,0,l)
);
}
);
};
layerId = "FA803571-32C9-4FEE-972F-1FEF49B82217";
shapes = (
{
closed = 1;
nodes = (
(403,274,o),
(498,356,o),
(498,532,cs),
(498,670,o),
(406,764,o),
(236,764,cs),
(200,764,o),
(146,762,o),
(100,750,c),
(100,0,l),
(140,0,l),
(140,292,l),
(176,280,o),
(212,274,o),
(248,274,cs)
);
},
{
closed = 1;
nodes = (
(140,716,l),
(176,723,o),
(210,724,o),
(236,724,cs),
(385,724,o),
(458,647,o),
(458,532,cs),
(458,445,o),
(440,393,o),
(393,344,c),
(349,318,o),
(299,314,o),
(248,314,cs),
(212,314,o),
(176,321,o),
(140,335,c)
);
}
);
width = 553;
},
{
background = {
shapes = (
{
closed = 1;
nodes = (
(481,193,o),
(624,293,o),
(624,473,cs),
(624,707,o),
(446,764,o),
(278,764,cs),
(172,764,o),
(108,756,o),
(80,750,c),
(80,0,l),
(290,0,l),
(290,195,l),
(316,194,o),
(345,193,o),
(369,193,cs)
);
},
{
closed = 1;
nodes = (
(290,612,l),
(294,612,o),
(299,612,o),
(303,612,cs),
(380,612,o),
(424,559,o),
(424,463,cs),
(424,411,o),
(418,372,o),
(393,339,c),
(366,324,o),
(341,319,o),
(301,319,cs),
(297,319,o),
(293,319,o),
(290,319,c)
);
}
);
};
layerId = "494556E7-144A-4E25-B9FC-0C21051BD184";
shapes = (
{
closed = 1;
nodes = (
(529,204,o),
(619,324,o),
(619,473,cs),
(619,707,o),
(441,764,o),
(273,764,cs),
(167,764,o),
(103,756,o),
(75,750,c),
(75,0,l),
(285,0,l),
(285,195,l),
(308,191,o),
(337,188,o),
(367,191,cs)
);
},
{
closed = 1;
nodes = (
(285,612,l),
(289,612,o),
(294,612,o),
(298,612,cs),
(375,612,o),
(419,559,o),
(419,463,cs),
(419,411,o),
(413,372,o),
(388,339,c),
(361,324,o),
(336,319,o),
(296,319,cs),
(292,319,o),
(288,319,o),
(285,319,c)
);
}
);
width = 639;
}
);
metricLeft = H;
note = P;
unicode = 80;
userData = {
"terminalChecked_FA803571-32C9-4FEE-972F-1FEF49B82217_110,0 / 150,0" = 0;
"terminalChecked_master01_90,0 / 180,0" = 0;
};
},
{
color = 1;
glyphname = Q;
kernLeft = O;
kernRight = Q;
lastChange = "2026-05-13 14:36:15 +0000";
layers = (
{
background = {
shapes = (
{
closed = 1;
nodes = (
(692,-8,l),
(340,27,l),
(253,-6,l),
(672,-100,l)
);
},
{
closed = 1;
nodes = (
(557,-14,o),
(667,167,o),
(667,386,cs),
(667,598,o),
(591,764,o),
(357,764,cs),
(147,764,o),
(37,583,o),
(37,364,cs),
(37,152,o),
(113,-14,o),
(347,-14,cs)
);
},
{
closed = 1;
nodes = (
(170,62,o),
(127,207,o),
(127,406,cs),
(127,527,o),
(167,688,o),
(322,688,cs),
(534,688,o),
(577,543,o),
(577,344,cs),
(577,223,o),
(537,62,o),
(382,62,cs)
);
}
);
};
guides = (
{
angle = 250.3462;
pos = (859,427);
}
);
layerId = master01;
shapes = (
{
closed = 1;
nodes = (
(704,-8,l,{
"Letterink-NibData" = {
ValidForParentWidth = 21;
};
}),
(350,27,l,{
"Letterink-NibData" = {
ValidForParentWidth = 21;
};
}),
(283,-7,l,{
"Letterink-NibData" = {
ValidForParentWidth = 21;
};
}),
(674,-90,l,{
"Letterink-NibData" = {
ValidForParentWidth = 21;
};
})
);
},
{
ref = O;
}
);
width = 745;
},
{
background = {
shapes = (
{
closed = 1;
nodes = (
(672,-48,l),
(291,14,l),
(284,-8,l),
(664,-88,l)
);
},
{
closed = 1;
nodes = (
(565,-14,o),
(675,167,o),
(675,386,cs),
(675,583,o),
(590,764,o),
(370,764,cs),
(155,764,o),
(45,583,o),
(45,364,cs),
(45,167,o),
(130,-14,o),
(350,-14,cs)
);
},
{
closed = 1;
nodes = (
(237,18,o),
(85,62,o),
(85,366,cs),
(85,583,o),
(185,732,o),
(355,732,cs),
(483,732,o),
(635,688,o),
(635,384,cs),
(635,167,o),
(535,18,o),
(365,18,cs)
);
}
);
};
guides = (
{
angle = 70.3462;
pos = (841,427);
}
);
layerId = "FA803571-32C9-4FEE-972F-1FEF49B82217";
shapes = (
{
closed = 1;
nodes = (
(675,-38,l),
(291,24,l),
(315,-7,l),
(661,-77,l)
);
},
{
ref = O;
}
);
width = 731;
},
{
guides = (
{
angle = 70.3462;
pos = (864,427);
}
);
layerId = "494556E7-144A-4E25-B9FC-0C21051BD184";
shapes = (
{
closed = 1;
nodes = (
(735,65,l),
(427,93,l),
(303,-8,l),
(683,-81,l)
);
},
{
ref = O;
}
);
width = 751;
}
);
metricLeft = O;
metricRight = "=O-4";
note = Q;
unicode = 81;
userData = {
"terminalChecked_FA803571-32C9-4FEE-972F-1FEF49B82217_291,24 / 315,-7" = 1;
"terminalChecked_FA803571-32C9-4FEE-972F-1FEF49B82217_661,-77 / 675,-38" = 0;
"terminalChecked_master01_350,27 / 283,-7" = 1;
"terminalChecked_master01_674,-90 / 704,-8" = 0;
};
},
{
color = 5;
glyphname = R;
kernLeft = H;
kernRight = R;
lastChange = "2026-07-10 13:45:09 +0000";
layers = (
{
anchors = (
{
name = bottom;
pos = (307,0);
},
{
name = top;
pos = (289,750);
}
);
background = {
shapes = (
{
closed = 1;
nodes = (
(180,750,l),
(90,750,l),
(90,0,l),
(180,0,l)
);
},
{
closed = 1;
nodes = (
(431,297,o),
(526,420,o),
(526,548,cs),
(526,658,o),
(437,764,o),
(257,764,cs),
(172,764,o),
(108,753,o),
(90,750,c),
(135,673,l),
(185,684,o),
(198,685,o),
(243,685,cs),
(353,685,o),
(437,622,o),
(437,542,cs),
(437,467,o),
(406,428,o),
(375,396,c),
(336,380,o),
(294,373,o),
(252,373,cs),
(210,373,o),
(187,380,o),
(152,394,c),
(152,314,l),
(195,301,o),
(226,297,o),
(262,297,cs)
);
},
{
closed = 1;
nodes = (
(545,0,l),
(363,369,l),
(271,361,l),
(432,0,l)
);
}
);
};
guides = (
{
angle = 90;
pos = (306,0);
}
);
layerId = master01;
shapes = (
{
closed = 1;
nodes = (
(180,0,l,{
"Letterink-NibData" = {
ValidForParentWidth = 21;
};
}),
(180,306,l),
(210,299,o),
(234,297,o),
(262,297,cs,{
"Letterink-NibData" = {
ValidForParentWidth = 21;
};
}),
(275,297,o),
(288,298,o),
(299,299,c),
(432,0,l,{
"Letterink-NibData" = {
ValidForParentWidth = 21;
};
}),
(545,0,l,{
"Letterink-NibData" = {
ValidForParentWidth = 21;
};
}),
(386,322,l),
(478,363,o),
(526,449,o),
(526,548,cs,{
"Letterink-NibData" = {
ValidForParentWidth = 21;
};
}),
(526,668,o),
(437,764,o),
(257,764,cs,{
"Letterink-NibData" = {
ValidForParentWidth = 21;
};
}),
(172,764,o),
(108,753,o),
(90,750,c,{
"Letterink-NibData" = {
ValidForParentWidth = 21;
};
}),
(90,0,l,{
"Letterink-NibData" = {
ValidForParentWidth = 21;
};
})
);
},
{
closed = 1;
nodes = (
(241,371,o),
(207,375,o),
(180,383,c),
(180,682,l),
(200,685,o),
(215,685,o),
(243,685,cs,{
"Letterink-NibData" = {
ValidForParentWidth = 21;
};
}),
(365,685,o),
(436,624,o),
(436,535,cs,{
"Letterink-NibData" = {
ValidForParentWidth = 21;
};
}),
(436,470,o),
(418,431,o),
(378,387,c,{
"Letterink-NibData" = {
ValidForParentWidth = 21;
};
}),
(352,377,o),
(313,371,o),
(273,371,cs,{
"Letterink-NibData" = {
ValidForParentWidth = 21;
};
})
);
}
);
width = 585;
},
{
anchors = (
{
name = bottom;
pos = (297,0);
},
{
name = top;
pos = (269,750);
}
);
background = {
shapes = (
{
closed = 1;
nodes = (
(132,325,l),
(172,312,o),
(211,306,o),
(248,306,cs),
(406,306,o),
(497,414,o),
(497,534,cs),
(497,675,o),
(420,763,o),
(248,763,cs),
(198,763,o),
(150,758,o),
(100,750,c),
(100,707,l),
(188,733,o),
(316,732,o),
(393,688,c),
(435,638,o),
(453,603,o),
(453,524,cs),
(453,426,o),
(376,346,o),
(245,346,cs),
(209,346,o),
(171,353,o),
(132,368,c)
);
},
{
closed = 1;
nodes = (
(140,750,l),
(100,750,l),
(100,0,l),
(140,0,l)
);
},
{
closed = 1;
nodes = (
(522,0,l),
(356,336,l),
(321,325,l),
(478,0,l)
);
}
);
};
guides = (
{
angle = 90;
pos = (309,0);
},
{
angle = 115.8352;
pos = (402,158);
}
);
layerId = "FA803571-32C9-4FEE-972F-1FEF49B82217";
shapes = (
{
closed = 1;
nodes = (
(140,0,l),
(140,325,l),
(176,313,o),
(212,308,o),
(248,308,cs),
(275,308,o),
(298,311,o),
(323,318,c),
(476,0,l),
(522,0,l),
(360,328,l),
(441,362,o),
(497,435,o),
(497,547,cs),
(497,677,o),
(406,764,o),
(236,764,cs),
(200,764,o),
(146,761,o),
(100,750,c),
(100,0,l)
);
},
{
closed = 1;
nodes = (
(212,346,o),
(175,352,o),
(140,365,c),
(140,718,l),
(176,725,o),
(210,726,o),
(236,726,cs),
(385,726,o),
(457,655,o),
(457,547,cs),
(457,466,o),
(441,425,o),
(394,380,c),
(350,356,o),
(299,346,o),
(248,346,cs)
);
}
);
width = 582;
},
{
anchors = (
{
name = bottom;
pos = (332,0);
},
{
name = top;
pos = (334,750);
}
);
background = {
shapes = (
{
closed = 1;
nodes = (
(290,0,l),
(290,265,l),
(305,264,o),
(319,264,o),
(335,263,c),
(421,0,l),
(646,0,l),
(508,307,l),
(570,349,o),
(614,422,o),
(614,523,cs),
(614,703,o),
(436,764,o),
(268,764,cs),
(162,764,o),
(108,756,o),
(80,750,c),
(80,0,l)
);
},
{
closed = 1;
nodes = (
(290,612,l),
(290,612,o),
(292,612,o),
(293,612,cs),
(370,612,o),
(411,590,o),
(411,497,cs),
(411,466,o),
(398,421,o),
(378,397,c),
(364,391,o),
(339,389,o),
(319,389,cs),
(309,389,o),
(301,389,o),
(290,391,c)
);
}
);
};
guides = (
{
angle = 90;
pos = (351,0);
}
);
layerId = "494556E7-144A-4E25-B9FC-0C21051BD184";
shapes = (
{
closed = 1;
nodes = (
(285,0,l),
(285,265,l),
(296,265,o),
(308,265,o),
(308,265,cs),
(308,265,o),
(330,265,o),
(330,265,c),
(416,0,l),
(641,0,l),
(503,307,l),
(565,349,o),
(609,430,o),
(609,523,cs),
(609,711,o),
(460,764,o),
(263,764,cs),
(186,764,o),
(103,756,o),
(75,750,c),
(75,0,l)
);
},
{
closed = 1;
nodes = (
(304,389,o),
(296,389,o),
(285,391,c),
(285,612,l),
(289,612,o),
(284,612,o),
(288,612,c),
(365,612,o),
(406,576,o),
(406,497,cs),
(406,452,o),
(393,421,o),
(373,397,c),
(359,391,o),
(334,389,o),
(314,389,cs)
);
}
);
width = 651;
}
);
metricLeft = H;
note = R;
unicode = 82;
userData = {
"terminalChecked_FA803571-32C9-4FEE-972F-1FEF49B82217_110,0 / 150,0" = 0;
"terminalChecked_FA803571-32C9-4FEE-972F-1FEF49B82217_486,0 / 532,0" = 0;
"terminalChecked_master01_432,0 / 545,0" = 0;
"terminalChecked_master01_90,0 / 180,0" = 0;
};
},
{
color = 5;
glyphname = S;
kernLeft = S;
kernRight = S;
lastChange = "2026-07-10 13:45:09 +0000";
layers = (
{
anchors = (
{
name = bottom;
pos = (238,0);
},
{
name = top;
pos = (279,750);
}
);
background = {
shapes = (
{
closed = 1;
nodes = (
(479,691,l,{
"Letterink-NibData" = {
ValidForParentWidth = "21";
};
}),
(415,742,o),
(344,764,o),
(280,764,cs,{
"Letterink-NibData" = {
ValidForParentWidth = "21";
};
}),
(153,764,o),
(47,668,o),
(47,552,cs,{
"Letterink-NibData" = {
ValidForParentWidth = "21";
};
}),
(47,440,o),
(157,393,o),
(257,341,cs,{
"Letterink-NibData" = {
ValidForParentWidth = "21";
};
}),
(328,304,o),
(390,272,o),
(413,201,c,{
"Letterink-NibData" = {
ValidForParentWidth = "21";
};
}),
(383,111,o),
(309,77,o),
(243,77,cs,{
"Letterink-NibData" = {
ValidForParentWidth = "21";
};
}),
(187,77,o),
(121,115,o),
(60,168,c,{
"Letterink-NibData" = {
ValidForParentWidth = "21";
};
}),
(30,77,l,{
"Letterink-NibData" = {
ValidForParentWidth = "21";
};
}),
(94,16,o),
(187,-14,o),
(247,-14,cs,{
"Letterink-NibData" = {
ValidForParentWidth = "21";
};
}),
(361,-14,o),
(489,85,o),
(489,213,cs,{
"Letterink-NibData" = {
ValidForParentWidth = "21";
};
}),
(489,320,o),
(395,384,o),
(302,432,cs,{
"Letterink-NibData" = {
ValidForParentWidth = "21";
};
}),
(222,473,o),
(147,492,o),
(123,554,c,{
"Letterink-NibData" = {
ValidForParentWidth = "21";
};
}),
(143,654,o),
(217,673,o),
(283,673,cs,{
"Letterink-NibData" = {
ValidForParentWidth = "21";
};
}),
(339,673,o),
(388,645,o),
(449,600,c,{
"Letterink-NibData" = {
ValidForParentWidth = "21";
};
})
);
}
);
};
guides = (
{
angle = 90;
pos = (488,112);
},
{
angle = 70.3462;
pos = (155,427);
},
{
angle = 70.3462;
pos = (376,427);
}
);
layerId = master01;
shapes = (
{
closed = 1;
nodes = (
(361,-14,o),
(489,85,o),
(489,213,cs,{
"Letterink-NibData" = {
ValidForParentWidth = 21;
};
}),
(489,320,o),
(395,393,o),
(302,441,cs,{
"Letterink-NibData" = {
ValidForParentWidth = 21;
};
}),
(222,482,o),
(147,501,o),
(123,563,c,{
"Letterink-NibData" = {
ValidForParentWidth = 21;
};
}),
(143,663,o),
(217,673,o),
(283,673,cs,{
"Letterink-NibData" = {
ValidForParentWidth = 21;
};
}),
(336,673,o),
(383,648,o),
(440,607,c),
(472,696,l),
(410,744,o),
(342,764,o),
(280,764,cs,{
"Letterink-NibData" = {
ValidForParentWidth = 21;
};
}),
(153,764,o),
(47,677,o),
(47,561,cs,{
"Letterink-NibData" = {
ValidForParentWidth = 21;
};
}),
(47,449,o),
(157,402,o),
(257,350,cs,{
"Letterink-NibData" = {
ValidForParentWidth = 21;
};
}),
(328,313,o),
(390,272,o),
(413,201,c,{
"Letterink-NibData" = {
ValidForParentWidth = 21;
};
}),
(383,111,o),
(309,77,o),
(243,77,cs,{
"Letterink-NibData" = {
ValidForParentWidth = 21;
};
}),
(188,77,o),
(122,114,o),
(62,166,c),
(30,77,l,{
"Letterink-NibData" = {
ValidForParentWidth = 21;
};
}),
(94,16,o),
(187,-14,o),
(247,-14,cs,{
"Letterink-NibData" = {
ValidForParentWidth = 21;
};
})
);
}
);
width = 516;
},
{
anchors = (
{
name = bottom;
pos = (284,0);
},
{
name = top;
pos = (299,750);
}
);
background = {
guides = (
{
angle = 248.1986;
pos = (459,649);
}
);
shapes = (
{
closed = 1;
nodes = (
(109,7,o),
(190,-14,o),
(267,-14,cs),
(369,-14,o),
(503,65,o),
(503,200,cs),
(503,336,o),
(367,384,o),
(281,425,cs),
(193,467,o),
(142,489,o),
(122,563,c),
(132,663,o),
(192,723,o),
(294,723,cs),
(355,723,o),
(394,701,o),
(439,662,c),
(455,704,l),
(401,740,o),
(367,763,o),
(294,763,cs),
(174,763,o),
(78,682,o),
(78,573,cs),
(78,487,o),
(179,427,o),
(265,385,cs),
(353,342,o),
(449,322,o),
(459,190,c),
(439,59,o),
(332,26,o),
(262,26,cs),
(204,26,o),
(130,55,o),
(71,118,c),
(47,82,l)
);
}
);
};
guides = (
{
angle = 70.3462;
pos = (350,426);
},
{
angle = 70.3462;
pos = (181,426);
}
);
layerId = "FA803571-32C9-4FEE-972F-1FEF49B82217";
shapes = (
{
closed = 1;
nodes = (
(383,-14,o),
(505,82,o),
(505,204,cs),
(505,313,o),
(395,370,o),
(287,429,cs),
(209,472,o),
(133,506,o),
(102,572,c),
(122,671,o),
(203,724,o),
(294,724,cs),
(342,724,o),
(394,708,o),
(439,676,c),
(455,720,l),
(411,749,o),
(358,764,o),
(306,764,cs),
(185,764,o),
(66,682,o),
(66,576,cs),
(66,492,o),
(164,447,o),
(265,388,cs),
(354,336,o),
(445,283,o),
(469,208,c),
(452,95,o),
(359,26,o),
(267,26,cs),
(200,26,o),
(128,56,o),
(71,118,c),
(55,73,l),
(112,14,o),
(188,-14,o),
(261,-14,cs)
);
}
);
width = 572;
},
{
anchors = (
{
name = bottom;
pos = (289,0);
},
{
name = top;
pos = (324,750);
}
);
background = {
shapes = (
{
closed = 1;
nodes = (
(462,-14,o),
(590,66,o),
(590,215,cs),
(590,290,o),
(508,362,o),
(423,433,cs),
(359,486,o),
(276,538,o),
(226,575,c),
(259,585,o),
(289,590,o),
(319,590,cs),
(381,590,o),
(439,569,o),
(514,530,c),
(571,691,l),
(508,734,o),
(398,764,o),
(324,764,cs),
(179,764,o),
(66,671,o),
(66,554,cs),
(66,470,o),
(146,393,o),
(226,325,cs),
(294,267,o),
(379,218,o),
(422,186,c),
(396,182,o),
(370,180,o),
(346,180,cs),
(262,180,o),
(185,202,o),
(109,246,c),
(45,67,l),
(119,19,o),
(243,-14,o),
(316,-14,cs)
);
}
);
};
guides = (
{
angle = 70.3462;
pos = (169,427);
},
{
angle = 70.3462;
pos = (472,427);
}
);
layerId = "494556E7-144A-4E25-B9FC-0C21051BD184";
shapes = (
{
closed = 1;
nodes = (
(457,-14,o),
(585,66,o),
(585,215,cs),
(585,290,o),
(503,362,o),
(418,433,cs),
(354,486,o),
(271,538,o),
(221,575,c),
(254,585,o),
(284,590,o),
(314,590,cs),
(376,590,o),
(434,569,o),
(509,530,c),
(566,691,l),
(503,734,o),
(393,764,o),
(319,764,cs),
(174,764,o),
(61,671,o),
(61,554,cs),
(61,470,o),
(141,393,o),
(221,325,cs),
(289,267,o),
(374,218,o),
(417,186,c),
(392,182,o),
(367,180,o),
(341,180,cs),
(266,180,o),
(187,198,o),
(104,246,c),
(40,67,l),
(114,19,o),
(238,-14,o),
(311,-14,cs)
);
}
);
width = 625;
}
);
note = S;
unicode = 83;
userData = {
"terminalChecked_FA803571-32C9-4FEE-972F-1FEF49B82217_439,676 / 455,720" = 0;
"terminalChecked_FA803571-32C9-4FEE-972F-1FEF49B82217_71,118 / 55,73" = 0;
};
},
{
color = 1;
glyphname = T;
kernLeft = T;
kernRight = T;
lastChange = "2026-07-10 13:45:09 +0000";
layers = (
{
anchors = (
{
name = "#stroke";
pos = (309,365);
},
{
name = bottom;
pos = (303,0);
},
{
name = top;
pos = (303,750);
}
);
guides = (
{
angle = 70.3462;
pos = (474,427);
},
{
angle = 90;
pos = (303,750);
},
{
angle = 250.3462;
pos = (475,427);
},
{
angle = -70.3462;
pos = (450,427);
}
);
layerId = master01;
shapes = (
{
closed = 1;
nodes = (
(348,0,l,{
"Letterink-NibData" = {
ValidForParentWidth = "21";
};
}),
(348,678,l,{
"Letterink-NibData" = {
ValidForParentWidth = "21";
};
}),
(560,669,l,{
"Letterink-NibData" = {
ValidForParentWidth = "21";
};
}),
(589,750,l,{
"Letterink-NibData" = {
ValidForParentWidth = "21";
};
}),
(30,750,l,{
"Letterink-NibData" = {
ValidForParentWidth = "21";
};
}),
(30,669,l,{
"Letterink-NibData" = {
ValidForParentWidth = "21";
};
}),
(256,678,l,{
"Letterink-NibData" = {
ValidForParentWidth = "21";
};
}),
(258,0,l,{
"Letterink-NibData" = {
ValidForParentWidth = "21";
};
})
);
}
);
width = 606;
},
{
anchors = (
{
name = "#stroke";
pos = (271,351);
},
{
name = bottom;
pos = (272,0);
},
{
name = top;
pos = (271,750);
}
);
background = {
shapes = (
{
closed = 1;
nodes = (
(291,0,l),
(291,723,l),
(291,750,l),
(251,750,l),
(251,723,l),
(251,0,l)
);
}
);
};
guides = (
{
angle = 70.3462;
pos = (409,427);
},
{
angle = 90;
pos = (271,750);
},
{
angle = 250.3462;
pos = (409,427);
},
{
angle = -70.3462;
pos = (377,427);
}
);
layerId = "FA803571-32C9-4FEE-972F-1FEF49B82217";
shapes = (
{
closed = 1;
nodes = (
(291,0,l),
(291,723,l),
(512,716,l),
(524,750,l),
(25,750,l),
(25,716,l),
(251,723,l),
(251,0,l)
);
}
);
width = 539;
},
{
anchors = (
{
name = "#stroke";
pos = (306,333);
},
{
name = bottom;
pos = (267,0);
},
{
name = top;
pos = (286,750);
}
);
guides = (
{
angle = 70.3462;
pos = (472,427);
},
{
angle = 90;
pos = (286,750);
},
{
angle = 70.2405;
pos = (472,427);
},
{
angle = -70.3462;
pos = (444,418);
}
);
layerId = "494556E7-144A-4E25-B9FC-0C21051BD184";
shapes = (
{
closed = 1;
nodes = (
(391,0,l),
(391,619,l),
(534,600,l),
(587,750,l),
(0,750,l),
(0,600,l),
(181,619,l),
(181,0,l)
);
}
);
width = 587;
}
);
note = T;
unicode = 84;
userData = {
"terminalChecked_FA803571-32C9-4FEE-972F-1FEF49B82217_255,0 / 295,0" = 0;
"terminalChecked_FA803571-32C9-4FEE-972F-1FEF49B82217_29,750 / 29,716" = 0;
"terminalChecked_FA803571-32C9-4FEE-972F-1FEF49B82217_516,716 / 528,750" = 0;
"terminalChecked_master01_258,0 / 348,0" = 0;
"terminalChecked_master01_30,750 / 30,669" = 0;
"terminalChecked_master01_560,669 / 589,750" = 0;
};
},
{
color = 1;
glyphname = U;
kernLeft = U;
kernRight = U;
lastChange = "2026-07-10 13:44:55 +0000";
layers = (
{
anchors = (
{
name = "#ogonek";
pos = (586,0);
},
{
name = top;
pos = (349,750);
}
);
background = {
shapes = (
{
closed = 1;
nodes = (
(642,0,l,{
"Letterink-NibData" = {
ValidForParentWidth = "21";
};
}),
(621,73,o),
(607,174,o),
(607,247,cs,{
"Letterink-NibData" = {
ValidForParentWidth = "21";
};
}),
(607,750,l,{
"Letterink-NibData" = {
ValidForParentWidth = "21";
};
}),
(517,750,l,{
"Letterink-NibData" = {
ValidForParentWidth = "21";
};
}),
(517,158,l,{
"Letterink-NibData" = {
ValidForParentWidth = "21";
};
}),
(552,0,l,{
"Letterink-NibData" = {
ValidForParentWidth = "21";
};
})
);
},
{
closed = 1;
nodes = (
(432,-244,o),
(475,-232,o),
(501,-214,c,{
"Letterink-NibData" = {
ValidForParentWidth = "21";
};
}),
(479,-153,l),
(454,-170,o),
(427,-181,o),
(402,-188,c,{
"Letterink-NibData" = {
ValidForParentWidth = "21";
};
}),
(374,-180,o),
(355,-140,o),
(355,-85,cs),
(355,-32,o),
(383,17,o),
(419,42,c),
(400,58,l),
(337,33,o),
(289,-29,o),
(289,-111,cs),
(289,-203,o),
(332,-244,o),
(397,-244,cs)
);
}
);
};
guides = (
{
angle = 90;
pos = (321,103.5);
}
);
layerId = master01;
shapes = (
{
closed = 1;
nodes = (
(314,-13,o),
(441,49,o),
(530,102,c),
(552,0,l,{
"Letterink-NibData" = {
ValidForParentWidth = 21;
};
}),
(642,0,l,{
"Letterink-NibData" = {
ValidForParentWidth = 21;
};
}),
(621,73,o),
(607,174,o),
(607,247,cs,{
"Letterink-NibData" = {
ValidForParentWidth = 21;
};
}),
(607,750,l,{
"Letterink-NibData" = {
ValidForParentWidth = 21;
};
}),
(517,750,l,{
"Letterink-NibData" = {
ValidForParentWidth = 21;
};
}),
(517,190,l),
(473,155,o),
(336,76,o),
(230,76,c,{
"Letterink-NibData" = {
ValidForParentWidth = 21;
};
}),
(194,105,o),
(180,183,o),
(180,240,cs,{
"Letterink-NibData" = {
ValidForParentWidth = 21;
};
}),
(180,750,l,{
"Letterink-NibData" = {
ValidForParentWidth = 21;
};
}),
(90,750,l,{
"Letterink-NibData" = {
ValidForParentWidth = 21;
};
}),
(90,207,ls,{
"Letterink-NibData" = {
ValidForParentWidth = 21;
};
}),
(90,87,o),
(135,-13,o),
(239,-13,cs,{
"Letterink-NibData" = {
ValidForParentWidth = 21;
};
})
);
}
);
width = 717;
},
{
anchors = (
{
name = "#ogonek";
pos = (580,0);
},
{
name = top;
pos = (321,750);
}
);
background = {
shapes = (
{
closed = 1;
nodes = (
(135,750,l),
(95,750,l),
(95,177,ls),
(95,67,o),
(156,-14,o),
(220,-14,cs),
(290,-14,o),
(438,84,o),
(525,144,c),
(514,183,l),
(463,142,o),
(290,22,o),
(212,21,c),
(172,40,o),
(135,73,o),
(135,210,cs)
);
},
{
closed = 1;
nodes = (
(547,750,l),
(507,750,l),
(507,158,l),
(554,-14,l),
(595,-12,l),
(579,35,o),
(547,135,o),
(547,202,cs)
);
}
);
};
layerId = "FA803571-32C9-4FEE-972F-1FEF49B82217";
shapes = (
{
closed = 1;
nodes = (
(277,-14,o),
(425,76,o),
(513,136,c),
(550,0,l),
(591,0,l),
(571,80,o),
(547,154,o),
(547,202,cs),
(547,749,l),
(507,749,l),
(507,178,l),
(447,132,o),
(278,22,o),
(202,21,c),
(162,40,o),
(135,73,o),
(135,210,cs),
(135,749,l),
(95,749,l),
(95,177,ls),
(95,57,o),
(146,-14,o),
(210,-14,cs)
);
}
);
width = 652;
},
{
anchors = (
{
name = "#ogonek";
pos = (637,0);
},
{
name = top;
pos = (378,740);
}
);
layerId = "494556E7-144A-4E25-B9FC-0C21051BD184";
shapes = (
{
closed = 1;
nodes = (
(349,-14,o),
(432,33,o),
(507,82,c),
(531,0,l),
(732,0,l),
(711,73,o),
(692,175,o),
(692,267,cs),
(692,750,l),
(482,750,l),
(482,239,l),
(434,200,o),
(368,166,o),
(325,166,c),
(279,201,o),
(275,272,o),
(275,377,cs),
(275,750,l),
(65,750,l),
(65,227,ls),
(65,87,o),
(160,-14,o),
(274,-14,cs)
);
}
);
width = 757;
}
);
note = U;
unicode = 85;
userData = {
"terminalChecked_FA803571-32C9-4FEE-972F-1FEF49B82217_145,749 / 105,749" = 0;
"terminalChecked_FA803571-32C9-4FEE-972F-1FEF49B82217_557,749 / 517,749" = 0;
"terminalChecked_FA803571-32C9-4FEE-972F-1FEF49B82217_560,0 / 601,0" = 0;
"terminalChecked_master01_180,750 / 90,750" = 0;
"terminalChecked_master01_607,750 / 517,750" = 0;
};
},
{
color = 1;
glyphname = V;
kernLeft = V;
kernRight = V;
lastChange = "2026-05-12 16:17:37 +0000";
layers = (
{
background = {
guides = (
{
angle = 161.3127;
pos = (270,830);
}
);
shapes = (
{
pos = (75,0);
ref = K;
}
);
};
guides = (
{
angle = -19.6538;
pos = (1430,426);
}
);
layerId = master01;
shapes = (
{
closed = 1;
nodes = (
(365,0,l,{
"Letterink-NibData" = {
ValidForParentWidth = 21;
};
}),
(609,719,l,{
"Letterink-NibData" = {
ValidForParentWidth = 21;
};
}),
(523,750,l,{
"Letterink-NibData" = {
ValidForParentWidth = 21;
};
}),
(318,61,l),
(344,61,l),
(138,750,l,{
"Letterink-NibData" = {
ValidForParentWidth = 21;
};
}),
(35,750,l,{
"Letterink-NibData" = {
ValidForParentWidth = 21;
};
}),
(285,0,l,{
"Letterink-NibData" = {
ValidForParentWidth = 21;
};
})
);
}
);
width = 646;
},
{
guides = (
{
angle = 160.3462;
pos = (433,785);
}
);
layerId = "FA803571-32C9-4FEE-972F-1FEF49B82217";
shapes = (
{
closed = 1;
nodes = (
(318,0,l),
(564,738,l),
(530,750,l),
(292,23,l),
(312,23,l),
(76,750,l),
(34,750,l),
(283,0,l)
);
}
);
width = 600;
},
{
guides = (
{
angle = 160.3462;
pos = (-354,1051);
}
);
layerId = "494556E7-144A-4E25-B9FC-0C21051BD184";
shapes = (
{
closed = 1;
nodes = (
(455,-1,l),
(680,681,l),
(485,751,l),
(346,196,l),
(368,196,l),
(234,750,l),
(5,750,l),
(245,-1,l)
);
}
);
width = 690;
}
);
note = V;
unicode = 86;
userData = {
"terminalChecked_FA803571-32C9-4FEE-972F-1FEF49B82217_283,0 / 318,0" = 0;
"terminalChecked_FA803571-32C9-4FEE-972F-1FEF49B82217_564,738 / 530,750" = 0;
"terminalChecked_FA803571-32C9-4FEE-972F-1FEF49B82217_564,739 / 531,750" = 1;
"terminalChecked_FA803571-32C9-4FEE-972F-1FEF49B82217_76,750 / 34,750" = 0;
"terminalChecked_master01_138,750 / 35,750" = 0;
"terminalChecked_master01_285,0 / 365,0" = 0;
"terminalChecked_master01_609,719 / 523,750" = 1;
"terminalChecked_master01_611,720 / 523,751" = 1;
};
},
{
color = 1;
glyphname = W;
kernLeft = V;
kernRight = V;
lastChange = "2026-07-10 13:44:55 +0000";
layers = (
{
anchors = (
{
name = top;
pos = (472,750);
}
);
guides = (
{
angle = 160.3462;
pos = (1722,427);
}
);
layerId = master01;
shapes = (
{
closed = 1;
nodes = (
(312,0,l,{
"Letterink-NibData" = {
ValidForParentWidth = 21;
};
}),
(467,618,l),
(447,617,l),
(622,0,l,{
"Letterink-NibData" = {
ValidForParentWidth = 21;
};
}),
(702,0,l,{
"Letterink-NibData" = {
ValidForParentWidth = 21;
};
}),
(903,719,l,{
"Letterink-NibData" = {
ValidForParentWidth = 21;
};
}),
(817,750,l,{
"Letterink-NibData" = {
ValidForParentWidth = 21;
};
}),
(659,102,l),
(687,102,l),
(518,735,l,{
"Letterink-NibData" = {
ValidForParentWidth = 21;
};
}),
(428,735,l,{
"Letterink-NibData" = {
ValidForParentWidth = 21;
};
}),
(268,91,l),
(289,91,l),
(145,750,l,{
"Letterink-NibData" = {
ValidForParentWidth = 21;
};
}),
(35,750,l,{
"Letterink-NibData" = {
ValidForParentWidth = 21;
};
}),
(232,0,l,{
"Letterink-NibData" = {
ValidForParentWidth = 21;
};
})
);
}
);
width = 940;
},
{
anchors = (
{
name = top;
pos = (439,750);
}
);
background = {
shapes = (
{
closed = 1;
nodes = (
(782,554,l),
(843,738,l),
(809,750,l),
(750,570,l)
);
}
);
};
guides = (
{
angle = 160.3462;
pos = (431,885);
}
);
layerId = "FA803571-32C9-4FEE-972F-1FEF49B82217";
shapes = (
{
closed = 1;
nodes = (
(262,0,l),
(448,696,l),
(424,696,l),
(616,0,l),
(651,0,l),
(843,738,l),
(809,750,l),
(624,12,l),
(647,13,l),
(452,735,l),
(427,735,l),
(235,13,l),
(258,12,l),
(76,750,l),
(34,750,l),
(227,0,l)
);
}
);
width = 879;
},
{
anchors = (
{
name = top;
pos = (505,740);
}
);
guides = (
{
angle = 160.3462;
pos = (-50,1051);
}
);
layerId = "494556E7-144A-4E25-B9FC-0C21051BD184";
shapes = (
{
closed = 1;
nodes = (
(405,0,l),
(504,428,l),
(483,428,l),
(587,0,l),
(797,0,l),
(982,683,l),
(793,750,l),
(693,222,l),
(709,222,l),
(610,750,l),
(400,750,l),
(314,224,l),
(330,224,l),
(225,750,l),
(5,750,l),
(195,0,l)
);
}
);
width = 992;
}
);
metricLeft = V;
metricRight = V;
note = W;
unicode = 87;
userData = {
"terminalChecked_FA803571-32C9-4FEE-972F-1FEF49B82217_227,0 / 262,0" = 0;
"terminalChecked_FA803571-32C9-4FEE-972F-1FEF49B82217_452,735 / 427,735" = 0;
"terminalChecked_FA803571-32C9-4FEE-972F-1FEF49B82217_616,0 / 651,0" = 0;
"terminalChecked_FA803571-32C9-4FEE-972F-1FEF49B82217_76,750 / 34,750" = 0;
"terminalChecked_FA803571-32C9-4FEE-972F-1FEF49B82217_842,739 / 809,750" = 1;
"terminalChecked_FA803571-32C9-4FEE-972F-1FEF49B82217_843,738 / 809,750" = 0;
"terminalChecked_master01_145,750 / 35,750" = 0;
"terminalChecked_master01_232,0 / 312,0" = 1;
"terminalChecked_master01_518,735 / 428,735" = 0;
"terminalChecked_master01_622,0 / 702,0" = 1;
"terminalChecked_master01_903,719 / 817,750" = 1;
"terminalChecked_master01_905,719 / 817,751" = 1;
};
},
{
color = 1;
glyphname = X;
kernLeft = X;
kernRight = X;
lastChange = "2026-05-06 13:17:42 +0000";
layers = (
{
background = {
shapes = (
{
pos = (-19,0);
ref = V;
}
);
};
guides = (
{
angle = 160.3462;
pos = (462,765);
}
);
layerId = master01;
shapes = (
{
closed = 1;
nodes = (
(149,0,l,{
"Letterink-NibData" = {
ValidForParentWidth = 21;
};
}),
(325,307,l),
(516,0,l,{
"Letterink-NibData" = {
ValidForParentWidth = 21;
};
}),
(631,0,l,{
"Letterink-NibData" = {
ValidForParentWidth = 21;
};
}),
(386,394,l),
(590,719,l),
(505,750,l,{
"Letterink-NibData" = {
ValidForParentWidth = 21;
};
}),
(344,462,l),
(165,750,l,{
"Letterink-NibData" = {
ValidForParentWidth = 21;
};
}),
(50,750,l,{
"Letterink-NibData" = {
ValidForParentWidth = 21;
};
}),
(282,376,l),
(35,0,l,{
"Letterink-NibData" = {
ValidForParentWidth = 21;
};
})
);
}
);
width = 666;
},
{
background = {
shapes = (
{
closed = 1;
nodes = (
(499,554,l),
(560,738,l),
(526,750,l),
(467,570,l)
);
}
);
};
guides = (
{
angle = 160.3462;
pos = (433,783);
}
);
layerId = "FA803571-32C9-4FEE-972F-1FEF49B82217";
shapes = (
{
closed = 1;
nodes = (
(78,0,l),
(305,354,l),
(530,0,l),
(575,0,l),
(335,382,l),
(560,738,l),
(526,750,l),
(317,410,l),
(104,750,l),
(59,750,l),
(289,384,l),
(35,0,l)
);
}
);
width = 610;
},
{
guides = (
{
angle = -19.7595;
pos = (564,723);
}
);
layerId = "494556E7-144A-4E25-B9FC-0C21051BD184";
shapes = (
{
closed = 1;
nodes = (
(238,0,l),
(349,199,l),
(473,0,l),
(706,0,l),
(468,382,l),
(666,686,l),
(485,750,l),
(367,545,l),
(239,750,l),
(6,750,l),
(243,369,l),
(6,0,l)
);
}
);
width = 704;
}
);
note = X;
unicode = 88;
userData = {
"terminalChecked_FA803571-32C9-4FEE-972F-1FEF49B82217_104,750 / 59,750" = 0;
"terminalChecked_FA803571-32C9-4FEE-972F-1FEF49B82217_35,0 / 78,0" = 0;
"terminalChecked_FA803571-32C9-4FEE-972F-1FEF49B82217_530,0 / 575,0" = 0;
"terminalChecked_FA803571-32C9-4FEE-972F-1FEF49B82217_560,738 / 526,750" = 0;
"terminalChecked_master01_165,750 / 50,750" = 0;
"terminalChecked_master01_35,0 / 149,0" = 0;
"terminalChecked_master01_516,0 / 631,0" = 0;
"terminalChecked_master01_590,719 / 505,750" = 1;
"terminalChecked_master01_592,719 / 505,750" = 1;
};
},
{
color = 1;
glyphname = Y;
kernLeft = Y;
kernRight = Y;
lastChange = "2026-07-10 13:44:55 +0000";
layers = (
{
anchors = (
{
name = top;
pos = (308,750);
}
);
guides = (
{
pos = (83,750);
}
);
layerId = master01;
shapes = (
{
closed = 1;
nodes = (
(261,0,l,{
"Letterink-NibData" = {
ValidForParentWidth = 21;
};
}),
(351,0,l,{
"Letterink-NibData" = {
ValidForParentWidth = 21;
};
}),
(351,297,l,{
"Letterink-NibData" = {
ValidForParentWidth = 21;
};
}),
(562,719,l),
(476,750,l,{
"Letterink-NibData" = {
ValidForParentWidth = 21;
};
}),
(309,369,l),
(138,750,l,{
"Letterink-NibData" = {
ValidForParentWidth = 21;
};
}),
(28,750,l,{
"Letterink-NibData" = {
ValidForParentWidth = 21;
};
}),
(261,297,l,{
"Letterink-NibData" = {
ValidForParentWidth = 21;
};
})
);
}
);
width = 617;
},
{
anchors = (
{
name = top;
pos = (288,750);
}
);
background = {
shapes = (
{
closed = 1;
nodes = (
(504,655,l),
(532,738,l),
(498,750,l),
(471,668,l)
);
}
);
};
guides = (
{
angle = 160.3462;
pos = (433,773);
}
);
layerId = "FA803571-32C9-4FEE-972F-1FEF49B82217";
shapes = (
{
closed = 1;
nodes = (
(271,0,l),
(311,0,l),
(311,287,l),
(532,738,l),
(498,750,l),
(293,319,l),
(76,750,l),
(30,750,l),
(271,287,l)
);
}
);
width = 566;
},
{
anchors = (
{
name = top;
pos = (363,740);
}
);
guides = (
{
angle = 160.3462;
pos = (-350,1051);
}
);
layerId = "494556E7-144A-4E25-B9FC-0C21051BD184";
shapes = (
{
closed = 1;
nodes = (
(251,0,l),
(461,0,l),
(461,270,l),
(684,682,l),
(494,750,l),
(361,431,l),
(232,750,l),
(5,750,l),
(251,270,l)
);
}
);
width = 697;
}
);
note = Y;
unicode = 89;
userData = {
"terminalChecked_FA803571-32C9-4FEE-972F-1FEF49B82217_271,0 / 311,0" = 0;
"terminalChecked_FA803571-32C9-4FEE-972F-1FEF49B82217_530,739 / 498,750" = 1;
"terminalChecked_FA803571-32C9-4FEE-972F-1FEF49B82217_532,738 / 498,750" = 0;
"terminalChecked_FA803571-32C9-4FEE-972F-1FEF49B82217_76,750 / 30,750" = 0;
"terminalChecked_master01_138,750 / 28,750" = 0;
"terminalChecked_master01_261,0 / 351,0" = 0;
"terminalChecked_master01_562,719 / 476,750" = 1;
"terminalChecked_master01_563,719 / 476,750" = 1;
};
},
{
color = 1;
glyphname = Z;
kernLeft = Z;
kernRight = Z;
lastChange = "2026-07-10 13:44:55 +0000";
layers = (
{
anchors = (
{
name = top;
pos = (279,750);
}
);
background = {
anchors = (
{
name = "#top";
pos = (309,750);
}
);
shapes = (
{
closed = 1;
nodes = (
(521,681,l,{
"Letterink-NibData" = {
ValidForParentWidth = "21";
};
}),
(423,688,l,{
"Letterink-NibData" = {
ValidForParentWidth = "21";
};
}),
(60,78,l,{
"Letterink-NibData" = {
ValidForParentWidth = "21";
};
}),
(161,68,l,{
"Letterink-NibData" = {
ValidForParentWidth = "21";
};
})
);
},
{
closed = 1;
nodes = (
(539,0,l,{
"Letterink-NibData" = {
ValidForParentWidth = "21";
};
}),
(566,89,l,{
"Letterink-NibData" = {
ValidForParentWidth = "21";
};
}),
(60,78,l,{
"Letterink-NibData" = {
ValidForParentWidth = "21";
};
}),
(86,0,l,{
"Letterink-NibData" = {
ValidForParentWidth = "21";
};
})
);
},
{
closed = 1;
nodes = (
(521,681,l,{
"Letterink-NibData" = {
ValidForParentWidth = "21";
};
}),
(494,750,l,{
"Letterink-NibData" = {
ValidForParentWidth = "21";
};
}),
(67,750,l,{
"Letterink-NibData" = {
ValidForParentWidth = "21";
};
}),
(67,663,l,{
"Letterink-NibData" = {
ValidForParentWidth = "21";
};
})
);
}
);
};
guides = (
{
angle = -70.3462;
pos = (487,765);
},
{
angle = 250.3462;
pos = (807,765);
}
);
layerId = master01;
shapes = (
{
closed = 1;
nodes = (
(65,61,l),
(171,67,l),
(166,57,l,{
"Letterink-NibData" = {
ValidForParentWidth = "21";
};
}),
(65,61,l,{
"Letterink-NibData" = {
ValidForParentWidth = "21";
};
}),
(408,684,l),
(409,685,l,{
"Letterink-NibData" = {
ValidForParentWidth = "21";
};
}),
(514,690,l),
(408,684,l),
(67,663,l,{
"Letterink-NibData" = {
ValidForParentWidth = "21";
};
}),
(67,750,l,{
"Letterink-NibData" = {
ValidForParentWidth = "21";
};
}),
(493,750,l,{
"Letterink-NibData" = {
ValidForParentWidth = "21";
};
}),
(514,690,l,{
"Letterink-NibData" = {
ValidForParentWidth = "21";
};
}),
(171,67,l),
(566,89,l,{
"Letterink-NibData" = {
ValidForParentWidth = "21";
};
}),
(534,0,l,{
"Letterink-NibData" = {
ValidForParentWidth = "21";
};
}),
(87,0,l,{
"Letterink-NibData" = {
ValidForParentWidth = "21";
};
})
);
}
);
width = 611;
},
{
anchors = (
{
name = top;
pos = (279,750);
}
);
background = {
shapes = (
{
closed = 1;
nodes = (
(96,32,l),
(481,717,l),
(442,729,l),
(49,32,l)
);
},
{
closed = 1;
nodes = (
(517,0,l),
(529,38,l),
(49,32,l),
(59,0,l)
);
},
{
closed = 1;
nodes = (
(481,717,l),
(470,750,l),
(41,750,l),
(41,710,l)
);
}
);
};
layerId = "FA803571-32C9-4FEE-972F-1FEF49B82217";
shapes = (
{
closed = 1;
nodes = (
(49,29,l),
(96,30,l),
(95,29,l),
(49,29,l),
(434,720,l),
(439,729,l),
(480,721,l),
(434,720,l),
(41,709,l),
(41,750,l),
(470,750,l),
(480,721,l),
(96,30,l),
(530,42,l),
(516,0,l),
(59,0,l)
);
}
);
width = 579;
},
{
anchors = (
{
name = top;
pos = (334,750);
}
);
guides = (
{
angle = -70.3462;
pos = (658,427);
},
{
angle = 70.3462;
pos = (696,427);
}
);
layerId = "494556E7-144A-4E25-B9FC-0C21051BD184";
shapes = (
{
closed = 1;
nodes = (
(3,145,l),
(254,153,l),
(242,138,l),
(3,145,l),
(342,596,l),
(357,615,l),
(594,606,l),
(342,596,l),
(30,583,l),
(30,750,l),
(543,750,l),
(594,606,l),
(254,153,l),
(602,165,l),
(543,0,l),
(55,0,l)
);
}
);
width = 615;
}
);
note = Z;
unicode = 90;
userData = {
"terminalChecked_FA803571-32C9-4FEE-972F-1FEF49B82217_41,709 / 41,750" = 0;
"terminalChecked_FA803571-32C9-4FEE-972F-1FEF49B82217_434,720 / 439,729" = 0;
"terminalChecked_FA803571-32C9-4FEE-972F-1FEF49B82217_470,750 / 480,721" = 0;
"terminalChecked_FA803571-32C9-4FEE-972F-1FEF49B82217_530,42 / 516,0" = 0;
"terminalChecked_FA803571-32C9-4FEE-972F-1FEF49B82217_59,0 / 49,29" = 0;
"terminalChecked_master01_171,67 / 166,57" = 1;
"terminalChecked_master01_493,750 / 514,690" = 0;
"terminalChecked_master01_566,89 / 534,0" = 0;
"terminalChecked_master01_566,89 / 535,0" = 0;
"terminalChecked_master01_67,663 / 67,750" = 0;
"terminalChecked_master01_86,0 / 65,61" = 0;
"terminalChecked_master01_87,0 / 65,61" = 0;
};
},
{
color = 5;
glyphname = a;
kernLeft = a;
kernRight = a;
lastChange = "2026-07-10 13:45:09 +0000";
layers = (
{
anchors = (
{
name = "#ogonek";
pos = (441,0);
},
{
name = bottom;
pos = (200,-14);
},
{
name = top;
pos = (276,515);
}
);
guides = (
{
angle = -19.6538;
pos = (272,-42);
},
{
angle = 19.6538;
pos = (277,-67);
}
);
layerId = master01;
shapes = (
{
closed = 1;
nodes = (
(256,-14,o),
(330,28,o),
(385,70,c),
(395,40,o),
(412,2,o),
(425,-14,c,{
"Letterink-NibData" = {
ValidForParentWidth = 21;
};
}),
(492,10,l),
(472,46,o),
(449,136,o),
(449,188,cs,{
"Letterink-NibData" = {
ValidForParentWidth = 21;
};
}),
(449,376,ls,{
"Letterink-NibData" = {
ValidForParentWidth = 21;
};
}),
(449,458,o),
(427,529,o),
(355,529,cs,{
"Letterink-NibData" = {
ValidForParentWidth = 21;
};
}),
(288,529,o),
(137,484,o),
(87,442,c,{
"Letterink-NibData" = {
ValidForParentWidth = 21;
};
}),
(111,375,l,{
"Letterink-NibData" = {
ValidForParentWidth = 21;
};
}),
(168,414,o),
(273,453,o),
(341,458,c,{
"Letterink-NibData" = {
ValidForParentWidth = 21;
};
}),
(362,437,o),
(365,395,o),
(365,352,cs,{
"Letterink-NibData" = {
ValidForParentWidth = 21;
};
}),
(365,324,l),
(220,321,o),
(49,264,o),
(49,127,cs,{
"Letterink-NibData" = {
ValidForParentWidth = 21;
};
}),
(49,47,o),
(112,-14,o),
(198,-14,cs,{
"Letterink-NibData" = {
ValidForParentWidth = 21;
};
})
);
},
{
closed = 1;
nodes = (
(163,54,o),
(137,92,o),
(137,132,cs,{
"Letterink-NibData" = {
ValidForParentWidth = 21;
};
}),
(137,219,o),
(263,250,o),
(365,252,c),
(365,131,l),
(319,93,o),
(259,57,o),
(214,47,c,{
"Letterink-NibData" = {
ValidForParentWidth = 21;
};
})
);
}
);
width = 552;
},
{
anchors = (
{
name = "#ogonek";
pos = (440,1);
},
{
name = bottom;
pos = (198,-14);
},
{
name = top;
pos = (266,505);
}
);
background = {
shapes = (
{
closed = 1;
nodes = (
(470,-4,l),
(451,30,o),
(419,109,o),
(419,174,cs),
(419,369,ls),
(419,449,o),
(399,519,o),
(340,519,cs),
(277,519,o),
(153,474,o),
(101,445,c),
(114,405,l),
(176,445,o),
(277,475,o),
(348,480,c),
(371,454,o),
(381,422,o),
(381,378,cs),
(381,114,l),
(393,114,l),
(393,87,o),
(422,13,o),
(443,-13,c)
);
},
{
closed = 1;
nodes = (
(272,-13,o),
(360,58,o),
(415,103,c),
(393,140,l),
(346,92,o),
(281,28,o),
(202,18,c),
(129,32,o),
(103,65,o),
(103,122,cs),
(103,257,o),
(290,270,o),
(393,273,c),
(397,310,l),
(249,310,o),
(61,271,o),
(61,121,cs),
(61,46,o),
(123,-13,o),
(208,-13,cs)
);
}
);
};
guides = (
{
angle = -70.3462;
pos = (107,427);
},
{
angle = -70.3462;
pos = (107,427);
},
{
angle = 19.6538;
pos = (107,-133);
}
);
layerId = "FA803571-32C9-4FEE-972F-1FEF49B82217";
shapes = (
{
closed = 1;
nodes = (
(266,-13,o),
(342,44,o),
(398,89,c),
(407,56,o),
(429,7,o),
(443,-13,c),
(470,-3,l),
(455,31,o),
(419,99,o),
(419,174,cs),
(419,369,ls),
(419,449,o),
(399,519,o),
(340,519,cs),
(277,519,o),
(153,474,o),
(101,445,c),
(115,405,l),
(177,445,o),
(277,475,o),
(348,480,c),
(371,454,o),
(381,422,o),
(381,378,cs),
(381,310,l),
(235,307,o),
(61,266,o),
(61,121,cs),
(61,46,o),
(123,-13,o),
(208,-13,cs)
);
},
{
closed = 1;
nodes = (
(129,32,o),
(103,65,o),
(103,122,cs),
(103,252,o),
(275,269,o),
(381,273,c),
(381,128,l),
(335,82,o),
(274,27,o),
(202,18,c)
);
}
);
width = 529;
},
{
anchors = (
{
name = "#ogonek";
pos = (477,0);
},
{
name = bottom;
pos = (335,0);
},
{
name = top;
pos = (307,520);
}
);
background = {
shapes = (
{
closed = 1;
nodes = (
(561,32,l),
(537,82,o),
(530,141,o),
(530,208,cs),
(530,351,ls),
(530,464,o),
(482,529,o),
(392,529,cs),
(308,529,o),
(175,514,o),
(62,474,c),
(110,338,l),
(180,372,o),
(260,391,o),
(327,391,c),
(341,377,o),
(345,351,o),
(346,325,c),
(196,314,o),
(45,255,o),
(45,131,cs),
(45,19,o),
(130,-12,o),
(215,-12,cs),
(272,-12,o),
(332,8,o),
(380,48,c),
(395,25,o),
(414,-1,o),
(423,-14,c)
);
},
{
closed = 1;
nodes = (
(264,108,o),
(230,117,o),
(230,160,cs),
(230,213,o),
(291,226,o),
(347,228,c),
(347,130,l),
(328,117,o),
(307,106,o),
(290,102,c)
);
}
);
};
guides = (
{
angle = 70.2405;
pos = (108,427);
},
{
angle = -19.6538;
pos = (470,30);
},
{
angle = 19.6538;
pos = (475,5);
}
);
layerId = "494556E7-144A-4E25-B9FC-0C21051BD184";
shapes = (
{
closed = 1;
nodes = (
(270,-12,o),
(330,8,o),
(378,48,c),
(393,25,o),
(412,-1,o),
(421,-14,c),
(558,35,l),
(535,84,o),
(528,142,o),
(528,208,cs),
(528,351,ls),
(528,464,o),
(480,529,o),
(390,529,cs),
(306,529,o),
(173,514,o),
(60,474,c),
(108,338,l),
(178,372,o),
(258,391,o),
(325,391,c),
(339,377,o),
(343,351,o),
(344,326,cs),
(344,325,l),
(194,314,o),
(43,255,o),
(43,131,cs),
(43,19,o),
(128,-12,o),
(213,-12,cs)
);
},
{
closed = 1;
nodes = (
(262,108,o),
(228,117,o),
(228,160,cs),
(228,213,o),
(289,226,o),
(345,228,c),
(345,130,l),
(326,117,o),
(305,106,o),
(288,102,c)
);
}
);
width = 587;
}
);
note = a;
unicode = 97;
userData = {
"terminalChecked_FA803571-32C9-4FEE-972F-1FEF49B82217_103,445 / 116,405" = 0;
"terminalChecked_master01_365,352 / 365,324" = 0;
};
},
{
color = 5;
glyphname = b;
kernRight = o;
lastChange = "2026-05-06 13:17:42 +0000";
layers = (
{
background = {
shapes = (
{
closed = 1;
nodes = (
(90,47,l),
(178,47,l),
(178,770,l),
(90,770,l)
);
},
{
closed = 1;
nodes = (
(92,47,l),
(157,8,o),
(240,-14,o),
(325,-14,cs),
(441,-14,o),
(543,102,o),
(546,272,cs),
(548,403,o),
(469,529,o),
(334,529,cs),
(268,529,o),
(193,480,o),
(105,413,c),
(125,354,l),
(186,403,o),
(264,451,o),
(316,451,cs),
(418,451,o),
(459,337,o),
(459,239,cs),
(459,134,o),
(414,77,o),
(355,47,c),
(315,47,o),
(214,66,o),
(173,95,c)
);
}
);
};
layerId = master01;
shapes = (
{
closed = 1;
nodes = (
(437,-14,o),
(549,114,o),
(548,269,cs,{
"Letterink-NibData" = {
ValidForParentWidth = 21;
};
}),
(547,404,o),
(455,529,o),
(327,529,cs,{
"Letterink-NibData" = {
ValidForParentWidth = 21;
};
}),
(281,529,o),
(232,504,o),
(178,467,c),
(178,770,l,{
"Letterink-NibData" = {
ValidForParentWidth = 21;
};
}),
(90,770,l,{
"Letterink-NibData" = {
ValidForParentWidth = 21;
};
}),
(90,47,l,{
"Letterink-NibData" = {
ValidForParentWidth = 21;
};
}),
(155,8,o),
(238,-14,o),
(323,-14,cs,{
"Letterink-NibData" = {
ValidForParentWidth = 21;
};
})
);
},
{
closed = 1;
nodes = (
(315,44,o),
(223,63,o),
(178,90,c),
(178,394,l),
(226,426,o),
(277,451,o),
(315,451,cs,{
"Letterink-NibData" = {
ValidForParentWidth = 21;
};
}),
(417,451,o),
(460,341,o),
(460,239,cs,{
"Letterink-NibData" = {
ValidForParentWidth = 21;
};
}),
(460,124,o),
(414,72,o),
(353,44,c,{
"Letterink-NibData" = {
ValidForParentWidth = 21;
};
})
);
}
);
width = 593;
},
{
background = {
shapes = (
{
closed = 1;
nodes = (
(97,46,l),
(135,46,l),
(135,770,l),
(97,770,l)
);
},
{
closed = 1;
nodes = (
(96,46,l),
(165,5,o),
(245,-14,o),
(313,-14,cs),
(403,-14,o),
(507,97,o),
(507,246,cs),
(507,376,o),
(445,519,o),
(305,519,c),
(235,519,o),
(155,449,o),
(106,407,c),
(125,382,l),
(170,419,o),
(243,481,o),
(305,481,c),
(414,481,o),
(465,346,o),
(465,250,cs),
(465,104,o),
(385,41,o),
(326,23,c),
(255,23,o),
(186,36,o),
(128,71,c)
);
}
);
};
layerId = "FA803571-32C9-4FEE-972F-1FEF49B82217";
shapes = (
{
closed = 1;
nodes = (
(403,-14,o),
(507,97,o),
(507,246,cs),
(507,382,o),
(444,519,o),
(304,519,cs),
(245,519,o),
(183,469,o),
(135,428,c),
(135,770,l),
(97,770,l),
(97,47,l),
(165,5,o),
(245,-14,o),
(313,-14,cs)
);
},
{
closed = 1;
nodes = (
(258,23,o),
(192,35,o),
(135,67,c),
(135,386,l),
(180,423,o),
(244,481,o),
(304,481,cs),
(413,481,o),
(464,352,o),
(464,250,cs),
(464,104,o),
(385,41,o),
(326,23,c)
);
}
);
width = 572;
},
{
layerId = "494556E7-144A-4E25-B9FC-0C21051BD184";
shapes = (
{
closed = 1;
nodes = (
(480,-14,o),
(595,85,o),
(595,281,cs),
(595,416,o),
(537,534,o),
(420,534,cs),
(374,534,o),
(322,517,o),
(268,483,c),
(268,770,l),
(68,770,l),
(68,67,l),
(162,12,o),
(262,-14,o),
(362,-14,cs)
);
},
{
closed = 1;
nodes = (
(313,136,o),
(291,139,o),
(268,151,c),
(268,342,l),
(285,351,o),
(303,356,o),
(319,356,cs),
(360,356,o),
(391,326,o),
(391,257,cs),
(391,212,o),
(373,161,o),
(334,133,c)
);
}
);
width = 628;
}
);
metricRight = o;
note = b;
unicode = 98;
userData = {
"terminalChecked_FA803571-32C9-4FEE-972F-1FEF49B82217_135,770 / 97,770" = 0;
"terminalChecked_master01_178,770 / 90,770" = 0;
};
},
{
color = 5;
glyphname = c;
kernLeft = o;
lastChange = "2026-07-10 13:45:09 +0000";
layers = (
{
anchors = (
{
name = bottom;
pos = (275,0);
},
{
name = top;
pos = (276,515);
}
);
background = {
shapes = (
{
closed = 1;
nodes = (
(401,84,o),
(343,60,o),
(294,46,c),
(182,55,o),
(131,161,o),
(131,299,cs),
(131,403,o),
(188,454,o),
(267,464,c),
(331,451,o),
(403,419,o),
(440,392,c),
(468,460,l),
(437,486,o),
(357,529,o),
(294,529,cs),
(145,529,o),
(45,420,o),
(45,258,cs),
(45,98,o),
(125,-14,o),
(287,-14,cs),
(350,-14,o),
(414,13,o),
(473,53,c),
(450,116,l)
);
}
);
};
guides = (
{
angle = 250.3462;
pos = (450,427);
},
{
angle = -70.3462;
pos = (339,427);
}
);
layerId = master01;
shapes = (
{
closed = 1;
nodes = (
(347,-14,o),
(415,13,o),
(473,53,c),
(450,116,l,{
"Letterink-NibData" = {
ValidForParentWidth = 21;
};
}),
(401,85,o),
(351,63,o),
(302,48,c,{
"Letterink-NibData" = {
ValidForParentWidth = 21;
};
}),
(176,68,o),
(133,151,o),
(133,299,cs,{
"Letterink-NibData" = {
ValidForParentWidth = 21;
};
}),
(133,411,o),
(175,461,o),
(271,463,c,{
"Letterink-NibData" = {
ValidForParentWidth = 21;
};
}),
(335,448,o),
(401,419,o),
(438,392,c,{
"Letterink-NibData" = {
ValidForParentWidth = 21;
};
}),
(463,462,l),
(430,489,o),
(352,529,o),
(291,529,cs,{
"Letterink-NibData" = {
ValidForParentWidth = 21;
};
}),
(146,529,o),
(45,417,o),
(45,257,cs,{
"Letterink-NibData" = {
ValidForParentWidth = 21;
};
}),
(45,98,o),
(146,-14,o),
(285,-14,cs,{
"Letterink-NibData" = {
ValidForParentWidth = 21;
};
})
);
}
);
width = 503;
},
{
anchors = (
{
name = bottom;
pos = (300,0);
},
{
name = top;
pos = (276,505);
}
);
background = {
shapes = (
{
closed = 1;
nodes = (
(397,49,o),
(334,30,o),
(285,22,c),
(157,41,o),
(107,113,o),
(106,279,cs),
(108,409,o),
(202,483,o),
(294,483,c),
(337,473,o),
(390,456,o),
(439,431,c),
(453,473,l),
(407,500,o),
(351,515,o),
(298,517,cs),
(164,522,o),
(66,415,o),
(66,255,cs),
(66,108,o),
(133,-14,o),
(288,-14,cs),
(337,-14,o),
(415,8,o),
(467,43,c),
(455,79,l)
);
}
);
};
guides = (
{
angle = 250.3462;
pos = (354,427);
},
{
angle = -70.3462;
pos = (329,427);
}
);
layerId = "FA803571-32C9-4FEE-972F-1FEF49B82217";
shapes = (
{
closed = 1;
nodes = (
(336,-14,o),
(414,8,o),
(466,43,c),
(453,81,l),
(395,51,o),
(337,26,o),
(288,18,c),
(163,27,o),
(108,124,o),
(107,283,cs),
(106,412,o),
(173,475,o),
(285,487,c),
(328,477,o),
(383,462,o),
(432,437,c),
(445,475,l),
(399,502,o),
(344,517,o),
(291,519,cs),
(146,519,o),
(65,417,o),
(65,257,cs),
(65,98,o),
(146,-14,o),
(285,-14,cs)
);
}
);
width = 516;
},
{
anchors = (
{
name = bottom;
pos = (273,0);
},
{
name = top;
pos = (284,520);
}
);
guides = (
{
angle = 70.3462;
pos = (501,427);
},
{
angle = -70.3462;
pos = (392,427);
},
{
pos = (-79,329);
},
{
pos = (-80,343);
}
);
layerId = "494556E7-144A-4E25-B9FC-0C21051BD184";
shapes = (
{
closed = 1;
nodes = (
(381,-14,o),
(457,7,o),
(529,42,c),
(481,176,l),
(433,159,o),
(388,146,o),
(333,137,c),
(263,152,o),
(235,197,o),
(235,270,cs),
(235,339,o),
(259,372,o),
(328,387,c),
(383,375,o),
(422,360,o),
(470,338,c),
(521,483,l),
(449,518,o),
(384,534,o),
(295,534,cs),
(136,534,o),
(33,420,o),
(33,264,cs),
(33,98,o),
(123,-14,o),
(292,-14,cs)
);
}
);
width = 547;
}
);
metricLeft = o;
metricRight = "=o-15";
note = c;
unicode = 99;
userData = {
"terminalChecked_FA803571-32C9-4FEE-972F-1FEF49B82217_427,437 / 440,475" = 0;
"terminalChecked_FA803571-32C9-4FEE-972F-1FEF49B82217_461,43 / 448,81" = 0;
};
},
{
color = 5;
glyphname = d;
kernLeft = o;
lastChange = "2026-07-10 13:44:55 +0000";
layers = (
{
anchors = (
{
name = "#stroke";
pos = (440,625);
},
{
name = topright;
pos = (438,515);
}
);
background = {
shapes = (
{
closed = 1;
nodes = (
(413,109,l),
(428,109,l),
(428,83,o),
(457,11,o),
(477,-14,c),
(545,9,l),
(525,44,o),
(501,135,o),
(501,188,cs),
(501,770,l),
(413,770,l)
);
},
{
closed = 1;
nodes = (
(428,452,l),
(371,499,o),
(307,528,o),
(257,528,cs),
(138,528,o),
(47,391,o),
(45,241,cs),
(43,112,o),
(122,-14,o),
(257,-14,cs),
(323,-14,o),
(398,35,o),
(486,102,c),
(466,161,l),
(405,112,o),
(327,64,o),
(275,64,cs),
(173,64,o),
(132,180,o),
(132,278,cs),
(132,383,o),
(178,441,o),
(237,469,c),
(287,462,o),
(362,416,o),
(424,365,c)
);
}
);
};
guides = (
{
angle = -19.6538;
pos = (172,-96);
},
{
angle = 19.6538;
pos = (177,-121);
}
);
layerId = master01;
shapes = (
{
closed = 1;
nodes = (
(319,-14,o),
(374,17,o),
(439,64,c),
(449,35,o),
(465,1,o),
(477,-14,c,{
"Letterink-NibData" = {
ValidForParentWidth = 21;
};
}),
(544,10,l,{
"Letterink-NibData" = {
ValidForParentWidth = 21;
};
}),
(524,46,o),
(501,136,o),
(501,188,cs,{
"Letterink-NibData" = {
ValidForParentWidth = 21;
};
}),
(501,770,l,{
"Letterink-NibData" = {
ValidForParentWidth = 21;
};
}),
(413,770,l,{
"Letterink-NibData" = {
ValidForParentWidth = 21;
};
}),
(413,475,l),
(376,501,o),
(317,529,o),
(270,529,cs,{
"Letterink-NibData" = {
ValidForParentWidth = 21;
};
}),
(156,529,o),
(44,401,o),
(45,246,cs,{
"Letterink-NibData" = {
ValidForParentWidth = 21;
};
}),
(46,111,o),
(138,-14,o),
(266,-14,cs,{
"Letterink-NibData" = {
ValidForParentWidth = 21;
};
})
);
},
{
closed = 1;
nodes = (
(176,64,o),
(133,174,o),
(133,276,cs,{
"Letterink-NibData" = {
ValidForParentWidth = 21;
};
}),
(133,391,o),
(179,443,o),
(240,471,c,{
"Letterink-NibData" = {
ValidForParentWidth = 21;
};
}),
(285,465,o),
(353,425,o),
(413,378,c),
(413,120,l),
(366,89,o),
(315,64,o),
(278,64,cs,{
"Letterink-NibData" = {
ValidForParentWidth = 21;
};
})
);
}
);
width = 605;
},
{
anchors = (
{
name = "#stroke";
pos = (431,625);
},
{
name = topright;
pos = (393,505);
}
);
background = {
shapes = (
{
closed = 1;
nodes = (
(449,394,l),
(408,464,o),
(347,519,o),
(267,519,c),
(126,519,o),
(65,378,o),
(65,248,c),
(65,113,o),
(150,-14,o),
(245,-14,c),
(315,-14,o),
(420,47,o),
(473,107,c),
(451,136,l),
(390,67,o),
(284,22,o),
(237,22,c),
(153,51,o),
(107,180,o),
(107,262,c),
(107,378,o),
(162,483,o),
(268,483,c),
(343,483,o),
(436,392,o),
(449,313,c)
);
},
{
closed = 1;
nodes = (
(437,114,l),
(449,114,l),
(449,87,o),
(478,13,o),
(499,-13,c),
(526,-4,l),
(507,30,o),
(475,109,o),
(475,174,cs),
(475,770,l),
(437,770,l)
);
}
);
};
guides = (
{
angle = -19.6538;
pos = (277,-66);
},
{
angle = 19.6538;
pos = (282,-91);
}
);
layerId = "FA803571-32C9-4FEE-972F-1FEF49B82217";
shapes = (
{
closed = 1;
nodes = (
(337,-14,o),
(404,44,o),
(452,86,c),
(461,54,o),
(485,8,o),
(499,-13,c),
(526,-4,l),
(507,30,o),
(475,109,o),
(475,174,cs),
(475,770,l),
(437,770,l),
(437,437,l),
(384,475,o),
(311,519,o),
(251,519,cs),
(161,519,o),
(65,408,o),
(65,259,cs),
(65,123,o),
(133,-14,o),
(273,-14,cs)
);
},
{
closed = 1;
nodes = (
(164,24,o),
(108,153,o),
(108,255,cs),
(108,401,o),
(179,463,o),
(238,481,c),
(318,470,o),
(379,433,o),
(437,388,c),
(437,115,l),
(393,78,o),
(331,24,o),
(273,24,cs)
);
}
);
width = 586;
},
{
anchors = (
{
name = "#stroke";
pos = (458,625);
},
{
name = topright;
pos = (498,520);
}
);
guides = (
{
angle = -19.6538;
pos = (170,-88);
},
{
angle = 19.6538;
pos = (175,-113);
}
);
layerId = "494556E7-144A-4E25-B9FC-0C21051BD184";
shapes = (
{
closed = 1;
nodes = (
(267,-13,o),
(336,15,o),
(405,70,c),
(417,43,o),
(442,2,o),
(453,-14,c),
(589,35,l),
(566,84,o),
(560,143,o),
(560,208,cs),
(560,769,l),
(360,769,l),
(360,495,l),
(328,522,o),
(294,535,o),
(252,535,cs),
(110,535,o),
(33,390,o),
(33,240,cs),
(33,105,o),
(91,-13,o),
(208,-13,cs)
);
},
{
closed = 1;
nodes = (
(268,165,o),
(237,195,o),
(237,264,cs),
(237,309,o),
(255,360,o),
(294,388,c),
(316,384,o),
(337,375,o),
(360,356,c),
(360,179,l),
(343,170,o),
(325,165,o),
(309,165,cs)
);
}
);
width = 634;
}
);
metricLeft = o;
note = d;
unicode = 100;
userData = {
"terminalChecked_FA803571-32C9-4FEE-972F-1FEF49B82217_470,770 / 432,770" = 0;
"terminalChecked_master01_501,770 / 413,770" = 0;
};
},
{
color = 5;
glyphname = e;
kernLeft = o;
lastChange = "2026-07-10 13:44:55 +0000";
layers = (
{
anchors = (
{
name = "#ogonek";
pos = (312,0);
},
{
name = top;
pos = (293,515);
}
);
background = {
shapes = (
{
closed = 1;
nodes = (
(401,85,o),
(351,63,o),
(302,48,c,{
"Letterink-NibData" = {
ValidForParentWidth = 21;
};
}),
(176,68,o),
(133,151,o),
(133,299,cs,{
"Letterink-NibData" = {
ValidForParentWidth = 21;
};
}),
(133,406,o),
(171,465,o),
(272,465,cs,{
"Letterink-NibData" = {
ValidForParentWidth = 21;
};
}),
(386,465,o),
(398,406,o),
(402,275,c,{
"Letterink-NibData" = {
ValidForParentWidth = 21;
};
}),
(428,322,l,{
"Letterink-NibData" = {
ValidForParentWidth = 21;
};
}),
(331,306,o),
(216,301,o),
(114,301,c,{
"Letterink-NibData" = {
ValidForParentWidth = 21;
};
}),
(108,243,l,{
"Letterink-NibData" = {
ValidForParentWidth = 21;
};
}),
(225,246,o),
(349,253,o),
(462,268,c,{
"Letterink-NibData" = {
ValidForParentWidth = 21;
};
}),
(482,325,l,{
"Letterink-NibData" = {
ValidForParentWidth = 21;
};
}),
(477,452,o),
(400,529,o),
(293,529,cs,{
"Letterink-NibData" = {
ValidForParentWidth = 21;
};
}),
(148,529,o),
(45,417,o),
(45,257,cs,{
"Letterink-NibData" = {
ValidForParentWidth = 21;
};
}),
(45,98,o),
(146,-14,o),
(285,-14,cs,{
"Letterink-NibData" = {
ValidForParentWidth = 21;
};
}),
(348,-14,o),
(414,13,o),
(473,53,c,{
"Letterink-NibData" = {
ValidForParentWidth = 21;
};
}),
(450,116,l,{
"Letterink-NibData" = {
ValidForParentWidth = 21;
};
})
);
}
);
};
guides = (
{
angle = 71.6915;
pos = (509,406);
},
{
angle = -70.3462;
pos = (339,427);
}
);
layerId = master01;
shapes = (
{
closed = 1;
nodes = (
(348,-14,o),
(414,13,o),
(473,53,c,{
"Letterink-NibData" = {
ValidForParentWidth = 21;
};
}),
(450,116,l,{
"Letterink-NibData" = {
ValidForParentWidth = 21;
};
}),
(401,85,o),
(351,63,o),
(302,48,c,{
"Letterink-NibData" = {
ValidForParentWidth = 21;
};
}),
(176,68,o),
(133,151,o),
(133,299,cs,{
"Letterink-NibData" = {
ValidForParentWidth = 21;
};
}),
(133,406,o),
(171,465,o),
(272,465,cs,{
"Letterink-NibData" = {
ValidForParentWidth = 21;
};
}),
(386,465,o),
(398,406,o),
(402,275,c,{
"Letterink-NibData" = {
ValidForParentWidth = 21;
};
}),
(428,322,l,{
"Letterink-NibData" = {
ValidForParentWidth = 21;
};
}),
(331,306,o),
(216,301,o),
(114,301,c,{
"Letterink-NibData" = {
ValidForParentWidth = 21;
};
}),
(108,243,l,{
"Letterink-NibData" = {
ValidForParentWidth = 21;
};
}),
(225,246,o),
(349,253,o),
(462,268,c,{
"Letterink-NibData" = {
ValidForParentWidth = 21;
};
}),
(482,325,l,{
"Letterink-NibData" = {
ValidForParentWidth = 21;
};
}),
(477,452,o),
(400,529,o),
(293,529,cs,{
"Letterink-NibData" = {
ValidForParentWidth = 21;
};
}),
(148,529,o),
(45,417,o),
(45,257,cs,{
"Letterink-NibData" = {
ValidForParentWidth = 21;
};
}),
(45,98,o),
(146,-14,o),
(285,-14,cs,{
"Letterink-NibData" = {
ValidForParentWidth = 21;
};
})
);
}
);
width = 522;
},
{
anchors = (
{
name = "#ogonek";
pos = (345,0);
},
{
name = top;
pos = (274,505);
}
);
background = {
shapes = (
{
closed = 1;
nodes = (
(398,49,o),
(335,30,o),
(286,22,c),
(158,41,o),
(106,117,o),
(105,283,cs),
(104,411,o),
(177,482,o),
(282,482,cs),
(388,482,o),
(432,414,o),
(432,286,c),
(450,313,l),
(339,295,o),
(191,291,o),
(80,291,c),
(83,252,l),
(197,255,o),
(349,260,o),
(459,275,c),
(471,311,l),
(466,436,o),
(401,518,o),
(294,518,cs),
(146,518,o),
(65,430,o),
(65,259,cs),
(65,112,o),
(132,-14,o),
(287,-14,cs),
(338,-14,o),
(416,8,o),
(468,43,c),
(456,79,l)
);
}
);
};
guides = (
{
angle = 250.3462;
pos = (512,427);
},
{
angle = -70.3462;
pos = (329,427);
}
);
layerId = "FA803571-32C9-4FEE-972F-1FEF49B82217";
shapes = (
{
closed = 1;
nodes = (
(336,-14,o),
(414,9,o),
(466,44,c),
(453,81,l),
(395,51,o),
(335,27,o),
(286,19,c),
(161,28,o),
(107,124,o),
(106,283,cs),
(105,411,o),
(177,482,o),
(282,482,cs),
(388,482,o),
(432,414,o),
(432,286,c),
(450,313,l),
(339,295,o),
(191,291,o),
(80,291,c),
(83,252,l),
(197,255,o),
(348,260,o),
(458,275,c),
(471,311,l),
(466,436,o),
(401,518,o),
(294,518,cs),
(146,518,o),
(65,428,o),
(65,257,cs),
(65,98,o),
(146,-14,o),
(285,-14,cs)
);
}
);
width = 531;
},
{
anchors = (
{
name = "#ogonek";
pos = (314,0);
},
{
name = top;
pos = (285,520);
}
);
guides = (
{
angle = 108.3085;
pos = (417,406);
},
{
angle = 70.2405;
pos = (578,413);
},
{
angle = -70.3462;
pos = (561,404);
},
{
angle = 70.2405;
pos = (428,413);
},
{
angle = -70.3462;
pos = (411,404);
}
);
layerId = "494556E7-144A-4E25-B9FC-0C21051BD184";
shapes = (
{
closed = 1;
nodes = (
(394,-14,o),
(468,13,o),
(537,47,c),
(491,181,l),
(440,163,o),
(392,148,o),
(333,139,c),
(263,154,o),
(235,196,o),
(235,269,cs),
(235,383,o),
(253,418,o),
(303,418,cs),
(363,418,o),
(363,378,o),
(362,270,c),
(380,325,l),
(337,319,o),
(233,321,o),
(208,325,c),
(208,217,l),
(324,220,o),
(383,226,o),
(516,241,c),
(537,299,l),
(532,417,o),
(492,534,o),
(303,534,cs),
(134,534,o),
(33,424,o),
(33,254,cs),
(33,98,o),
(124,-14,o),
(295,-14,cs)
);
}
);
width = 565;
}
);
metricLeft = o;
metricRight = "=c+10";
note = e;
unicode = 101;
userData = {
"terminalChecked_FA803571-32C9-4FEE-972F-1FEF49B82217_427,286 / 445,313" = 0;
"terminalChecked_FA803571-32C9-4FEE-972F-1FEF49B82217_453,275 / 466,311" = 0;
"terminalChecked_FA803571-32C9-4FEE-972F-1FEF49B82217_454,275 / 466,311" = 0;
"terminalChecked_FA803571-32C9-4FEE-972F-1FEF49B82217_460,43 / 448,81" = 0;
"terminalChecked_FA803571-32C9-4FEE-972F-1FEF49B82217_461,44 / 448,81" = 0;
"terminalChecked_FA803571-32C9-4FEE-972F-1FEF49B82217_75,291 / 78,252" = 0;
"terminalChecked_master01_114,301 / 108,243" = 0;
"terminalChecked_master01_402,275 / 428,322" = 0;
"terminalChecked_master01_462,268 / 482,325" = 0;
};
},
{
color = 1;
glyphname = f;
kernLeft = f;
kernRight = f;
lastChange = "2026-05-13 13:49:13 +0000";
layers = (
{
background = {
shapes = (
{
closed = 1;
nodes = (
(213,0,l),
(213,616,ls),
(213,639,o),
(213,690,o),
(236,713,c),
(283,709,o),
(344,688,o),
(401,661,c),
(423,728,l),
(369,755,o),
(272,784,o),
(222,784,cs),
(150,784,o),
(128,709,o),
(128,627,cs),
(128,0,l)
);
},
{
closed = 1;
nodes = (
(367,448,l),
(389,515,l),
(33,515,l),
(33,448,l)
);
},
{
closed = 1;
nodes = (
(39,254,l),
(394,254,l),
(372,321,l),
(39,321,l)
);
},
{
closed = 1;
nodes = (
(39,254,l),
(394,254,l),
(372,321,l),
(39,321,l)
);
},
{
closed = 1;
nodes = (
(219,90,l),
(219,606,ls),
(219,649,o),
(224,700,o),
(236,713,c),
(273,714,o),
(336,685,o),
(374,660,c),
(397,729,l),
(350,762,o),
(302,783,o),
(229,783,cs),
(151,783,o),
(133,715,o),
(133,630,cs),
(133,90,l)
);
}
);
};
guides = (
{
angle = 71.6915;
pos = (353,405);
},
{
angle = 250.3462;
pos = (316,427);
},
{
angle = -70.3462;
pos = (291,422);
}
);
layerId = master01;
shapes = (
{
closed = 1;
nodes = (
(213,0,l,{
"Letterink-NibData" = {
ValidForParentWidth = 21;
};
}),
(213,448,l),
(367,448,l,{
"Letterink-NibData" = {
ValidForParentWidth = 21;
};
}),
(389,515,l,{
"Letterink-NibData" = {
ValidForParentWidth = 21;
};
}),
(213,515,l),
(213,616,ls,{
"Letterink-NibData" = {
ValidForParentWidth = 21;
};
}),
(213,639,o),
(216,701,o),
(231,713,c,{
"Letterink-NibData" = {
ValidForParentWidth = 21;
};
}),
(278,709,o),
(343,689,o),
(400,662,c,{
"Letterink-NibData" = {
ValidForParentWidth = 21;
};
}),
(423,728,l,{
"Letterink-NibData" = {
ValidForParentWidth = 21;
};
}),
(369,755,o),
(272,784,o),
(222,784,cs,{
"Letterink-NibData" = {
ValidForParentWidth = 21;
};
}),
(150,784,o),
(125,709,o),
(125,627,cs,{
"Letterink-NibData" = {
ValidForParentWidth = 21;
};
}),
(125,515,l),
(30,515,l,{
"Letterink-NibData" = {
ValidForParentWidth = 21;
};
}),
(30,448,l,{
"Letterink-NibData" = {
ValidForParentWidth = 21;
};
}),
(125,448,l),
(125,0,l,{
"Letterink-NibData" = {
ValidForParentWidth = 21;
};
})
);
}
);
width = 413;
},
{
guides = (
{
angle = 250.3462;
pos = (315,427);
}
);
layerId = "FA803571-32C9-4FEE-972F-1FEF49B82217";
shapes = (
{
closed = 1;
nodes = (
(153,1,l),
(153,474,l),
(332,474,l),
(343,505,l),
(153,505,l),
(153,627,ls),
(153,660,o),
(154,729,o),
(183,752,c),
(233,752,o),
(293,723,o),
(349,693,c),
(362,730,l),
(308,763,o),
(222,784,o),
(189,784,cs),
(147,784,o),
(115,720,o),
(115,638,cs),
(115,505,l),
(30,505,l),
(30,474,l),
(115,474,l),
(115,1,l)
);
}
);
width = 355;
},
{
background = {
shapes = (
{
closed = 1;
nodes = (
(315,0,l),
(315,390,l),
(420,390,l),
(465,520,l),
(315,520,l),
(317,570,o),
(322,618,o),
(339,642,c),
(372,640,o),
(437,625,o),
(482,602,c),
(525,730,l),
(450,763,o),
(349,783,o),
(290,783,cs),
(174,783,o),
(115,704,o),
(115,544,cs),
(115,520,l),
(30,520,l),
(30,390,l),
(115,390,l),
(115,0,l)
);
}
);
};
guides = (
{
angle = 251.4309;
pos = (502,666);
}
);
layerId = "494556E7-144A-4E25-B9FC-0C21051BD184";
shapes = (
{
closed = 1;
nodes = (
(313,0,l),
(313,390,l),
(418,390,l),
(463,520,l),
(313,520,l),
(313,522,ls),
(313,565,o),
(322,621,o),
(337,642,c),
(370,640,o),
(435,625,o),
(480,602,c),
(523,730,l),
(448,763,o),
(347,783,o),
(288,783,cs),
(172,783,o),
(113,704,o),
(113,544,cs),
(113,520,l),
(28,520,l),
(28,390,l),
(113,390,l),
(113,0,l)
);
}
);
width = 479;
}
);
note = f;
unicode = 102;
userData = {
"terminalChecked_FA803571-32C9-4FEE-972F-1FEF49B82217_115,1 / 153,1" = 0;
"terminalChecked_FA803571-32C9-4FEE-972F-1FEF49B82217_30,505 / 30,474" = 0;
"terminalChecked_FA803571-32C9-4FEE-972F-1FEF49B82217_332,474 / 343,505" = 0;
"terminalChecked_FA803571-32C9-4FEE-972F-1FEF49B82217_349,693 / 362,730" = 0;
"terminalChecked_FA803571-32C9-4FEE-972F-1FEF49B82217_350,692 / 362,730" = 1;
"terminalChecked_master01_125,0 / 213,0" = 0;
"terminalChecked_master01_30,515 / 30,448" = 0;
"terminalChecked_master01_367,448 / 389,515" = 0;
};
},
{
color = 5;
glyphname = g;
kernLeft = o;
kernRight = g;
lastChange = "2026-07-10 13:45:09 +0000";
layers = (
{
anchors = (
{
name = bottom;
pos = (307,-230);
},
{
name = top;
pos = (302,515);
}
);
background = {
shapes = (
{
closed = 1;
nodes = (
(151,-210,o),
(239,-244,o),
(302,-244,cs),
(413,-244,o),
(502,-129,o),
(502,35,cs),
(502,346,ls),
(502,402,o),
(509,454,o),
(517,505,c),
(445,527,l),
(414,405,l),
(414,41,ls),
(414,-75,o),
(394,-143,o),
(337,-175,c),
(254,-172,o),
(168,-128,o),
(109,-86,c),
(84,-159,l)
);
},
{
closed = 1;
nodes = (
(405,112,o),
(327,64,o),
(275,64,cs),
(173,64,o),
(132,180,o),
(132,278,cs),
(132,383,o),
(178,441,o),
(237,469,c),
(287,462,o),
(362,416,o),
(424,365,c),
(428,452,l),
(371,499,o),
(307,528,o),
(257,528,cs),
(138,528,o),
(45,391,o),
(45,241,cs),
(43,112,o),
(122,-14,o),
(257,-14,cs),
(323,-14,o),
(398,35,o),
(486,102,c),
(466,161,l)
);
}
);
};
guides = (
{
angle = 161.6915;
pos = (198,609);
},
{
angle = 72.2553;
pos = (96,-125);
}
);
layerId = master01;
shapes = (
{
closed = 1;
nodes = (
(413,-244,o),
(502,-129,o),
(502,35,cs,{
"Letterink-NibData" = {
ValidForParentWidth = 21;
};
}),
(502,346,ls,{
"Letterink-NibData" = {
ValidForParentWidth = 21;
};
}),
(502,402,o),
(509,454,o),
(517,505,c,{
"Letterink-NibData" = {
ValidForParentWidth = 21;
};
}),
(445,527,l,{
"Letterink-NibData" = {
ValidForParentWidth = 21;
};
}),
(429,463,l),
(397,491,o),
(325,529,o),
(270,529,cs,{
"Letterink-NibData" = {
ValidForParentWidth = 21;
};
}),
(156,529,o),
(44,401,o),
(45,246,cs,{
"Letterink-NibData" = {
ValidForParentWidth = 21;
};
}),
(46,111,o),
(138,-14,o),
(266,-14,cs,{
"Letterink-NibData" = {
ValidForParentWidth = 21;
};
}),
(312,-14,o),
(360,10,o),
(414,47,c),
(414,41,ls,{
"Letterink-NibData" = {
ValidForParentWidth = 21;
};
}),
(414,-75,o),
(394,-143,o),
(337,-175,c,{
"Letterink-NibData" = {
ValidForParentWidth = 21;
};
}),
(254,-172,o),
(168,-128,o),
(109,-86,c,{
"Letterink-NibData" = {
ValidForParentWidth = 21;
};
}),
(84,-159,l,{
"Letterink-NibData" = {
ValidForParentWidth = 21;
};
}),
(151,-210,o),
(239,-244,o),
(302,-244,cs,{
"Letterink-NibData" = {
ValidForParentWidth = 21;
};
})
);
},
{
closed = 1;
nodes = (
(133,391,o),
(179,443,o),
(240,471,c,{
"Letterink-NibData" = {
ValidForParentWidth = 21;
};
}),
(287,464,o),
(355,424,o),
(414,377,c),
(414,121,l),
(366,89,o),
(315,64,o),
(278,64,cs,{
"Letterink-NibData" = {
ValidForParentWidth = 21;
};
}),
(176,64,o),
(133,174,o),
(133,276,cs,{
"Letterink-NibData" = {
ValidForParentWidth = 21;
};
})
);
}
);
width = 567;
},
{
anchors = (
{
name = bottom;
pos = (284,-230);
},
{
name = top;
pos = (312,505);
}
);
background = {
shapes = (
{
closed = 1;
nodes = (
(402,-244,o),
(475,-151,o),
(475,5,cs),
(475,377,ls),
(475,413,o),
(479,457,o),
(490,508,c),
(460,518,l),
(437,414,l),
(437,15,ls),
(437,-122,o),
(381,-182,o),
(315,-206,c),
(235,-206,o),
(176,-178,o),
(119,-118,c),
(99,-155,l),
(146,-212,o),
(226,-244,o),
(282,-244,cs)
);
},
{
closed = 1;
nodes = (
(315,-14,o),
(420,47,o),
(473,107,c),
(451,136,l),
(390,67,o),
(284,22,o),
(237,22,c),
(153,51,o),
(107,180,o),
(107,262,c),
(107,378,o),
(162,483,o),
(268,483,c),
(343,483,o),
(436,392,o),
(449,313,c),
(449,394,l),
(408,464,o),
(347,519,o),
(267,519,c),
(126,519,o),
(65,378,o),
(65,248,c),
(65,113,o),
(150,-14,o),
(245,-14,c)
);
}
);
};
guides = (
{
angle = -19.6538;
pos = (470,514);
},
{
angle = 250.3462;
pos = (313,427);
}
);
layerId = "FA803571-32C9-4FEE-972F-1FEF49B82217";
shapes = (
{
closed = 1;
nodes = (
(402,-244,o),
(475,-151,o),
(475,5,cs),
(475,377,ls),
(475,413,o),
(479,456,o),
(490,507,c),
(460,517,l),
(441,434,l),
(388,472,o),
(312,519,o),
(251,519,cs),
(161,519,o),
(65,408,o),
(65,259,cs),
(65,123,o),
(133,-14,o),
(273,-14,cs),
(330,-14,o),
(390,33,o),
(437,73,c),
(437,15,ls),
(437,-122,o),
(381,-182,o),
(315,-206,c),
(235,-206,o),
(175,-177,o),
(117,-122,c),
(103,-161,l),
(150,-214,o),
(228,-244,o),
(282,-244,cs)
);
},
{
closed = 1;
nodes = (
(108,401,o),
(179,468,o),
(238,487,c),
(318,475,o),
(380,433,o),
(437,388,c),
(437,115,l),
(393,78,o),
(331,24,o),
(273,24,cs),
(164,24,o),
(108,153,o),
(108,255,cs)
);
}
);
width = 579;
},
{
anchors = (
{
name = bottom;
pos = (303,-230);
},
{
name = top;
pos = (295,520);
}
);
background = {
shapes = (
{
closed = 1;
nodes = (
(134,-214,o),
(218,-244,o),
(328,-244,cs),
(475,-244,o),
(562,-178,o),
(566,50,cs),
(566,282,ls),
(566,351,o),
(575,397,o),
(592,477,c),
(421,534,l),
(366,394,l),
(366,21,ls),
(366,-35,o),
(360,-92,o),
(329,-107,c),
(241,-104,o),
(166,-67,o),
(109,-32,c),
(67,-160,l)
);
},
{
closed = 1;
nodes = (
(454,234,o),
(373,147,o),
(312,147,cs),
(268,147,o),
(239,181,o),
(239,251,cs),
(239,296,o),
(257,360,o),
(296,388,c),
(342,380,o),
(391,332,o),
(441,249,c),
(441,395,l),
(384,489,o),
(333,535,o),
(254,535,cs),
(112,535,o),
(35,396,o),
(35,246,cs),
(35,101,o),
(100,-13,o),
(216,-13,cs),
(306,-13,o),
(409,50,o),
(509,172,c),
(477,339,l)
);
}
);
};
layerId = "494556E7-144A-4E25-B9FC-0C21051BD184";
shapes = (
{
closed = 1;
nodes = (
(473,-244,o),
(560,-178,o),
(564,50,cs),
(564,282,ls),
(564,351,o),
(573,397,o),
(590,477,c),
(419,534,l),
(391,463,l),
(350,512,o),
(309,535,o),
(252,535,cs),
(110,535,o),
(33,396,o),
(33,246,cs),
(33,101,o),
(98,-13,o),
(214,-13,cs),
(261,-13,o),
(312,4,o),
(364,38,c),
(364,21,ls),
(364,-35,o),
(358,-92,o),
(327,-107,c),
(239,-104,o),
(164,-67,o),
(107,-32,c),
(65,-160,l),
(132,-214,o),
(216,-244,o),
(326,-244,cs)
);
},
{
closed = 1;
nodes = (
(237,296,o),
(255,360,o),
(294,388,c),
(317,384,o),
(341,370,o),
(364,348,c),
(364,166,l),
(346,154,o),
(327,147,o),
(310,147,cs),
(266,147,o),
(237,181,o),
(237,251,cs)
);
}
);
width = 634;
}
);
metricLeft = o;
note = g;
unicode = 103;
userData = {
"terminalChecked_FA803571-32C9-4FEE-972F-1FEF49B82217_112,-122 / 98,-161" = 0;
"terminalChecked_FA803571-32C9-4FEE-972F-1FEF49B82217_112,-122 / 99,-161" = 0;
"terminalChecked_FA803571-32C9-4FEE-972F-1FEF49B82217_432,73 / 432,15" = 0;
"terminalChecked_FA803571-32C9-4FEE-972F-1FEF49B82217_485,507 / 455,517" = 0;
"terminalChecked_master01_414,47 / 414,41" = 0;
};
},
{
color = 5;
glyphname = h;
lastChange = "2026-07-10 13:44:55 +0000";
layers = (
{
anchors = (
{
name = "#stroke";
pos = (158,625);
},
{
name = top;
pos = (134,770);
}
);
guides = (
{
angle = 90;
pos = (134,770);
}
);
layerId = master01;
shapes = (
{
closed = 1;
nodes = (
(500,0,l,{
"Letterink-NibData" = {
ValidForParentWidth = 21;
};
}),
(500,376,ls,{
"Letterink-NibData" = {
ValidForParentWidth = 21;
};
}),
(500,461,o),
(481,529,o),
(403,529,cs,{
"Letterink-NibData" = {
ValidForParentWidth = 21;
};
}),
(344,529,o),
(239,501,o),
(178,471,c),
(178,770,l,{
"Letterink-NibData" = {
ValidForParentWidth = 21;
};
}),
(90,770,l,{
"Letterink-NibData" = {
ValidForParentWidth = 21;
};
}),
(90,0,l,{
"Letterink-NibData" = {
ValidForParentWidth = 21;
};
}),
(178,0,l,{
"Letterink-NibData" = {
ValidForParentWidth = 21;
};
}),
(178,394,l),
(225,424,o),
(343,462,o),
(391,458,c,{
"Letterink-NibData" = {
ValidForParentWidth = 21;
};
}),
(410,438,o),
(412,406,o),
(412,363,cs,{
"Letterink-NibData" = {
ValidForParentWidth = 21;
};
}),
(412,0,l,{
"Letterink-NibData" = {
ValidForParentWidth = 21;
};
})
);
}
);
width = 570;
},
{
anchors = (
{
name = "#stroke";
pos = (143,625);
},
{
name = top;
pos = (120,770);
}
);
background = {
shapes = (
{
pos = (570,0);
ref = dcroat;
scale = (-1,1);
}
);
};
guides = (
{
angle = 90;
pos = (119,770);
}
);
layerId = "FA803571-32C9-4FEE-972F-1FEF49B82217";
shapes = (
{
closed = 1;
nodes = (
(464,0,l),
(464,366,ls),
(464,449,o),
(434,519,o),
(378,519,cs),
(338,519,o),
(205,467,o),
(138,432,c),
(138,770,l),
(100,770,l),
(100,0,l),
(138,0,l),
(138,398,l),
(190,427,o),
(329,484,o),
(385,484,c),
(407,472,o),
(426,434,o),
(426,343,cs),
(426,0,l)
);
}
);
width = 563;
},
{
anchors = (
{
name = "#stroke";
pos = (196,625);
},
{
name = top;
pos = (168,770);
}
);
background = {
shapes = (
{
pos = (632,0);
ref = dcroat;
scale = (-1,1);
}
);
};
guides = (
{
angle = 90;
pos = (168,770);
}
);
layerId = "494556E7-144A-4E25-B9FC-0C21051BD184";
shapes = (
{
closed = 1;
nodes = (
(574,0,l),
(574,346,ls),
(574,460,o),
(545,535,o),
(445,535,cs),
(393,535,o),
(324,504,o),
(268,470,c),
(268,770,l),
(68,770,l),
(68,0,l),
(268,0,l),
(268,293,l),
(290,315,o),
(320,339,o),
(353,339,c),
(374,321,o),
(374,272,o),
(374,239,cs),
(374,0,l)
);
}
);
width = 632;
}
);
metricLeft = "=l";
metricRight = n;
note = h;
unicode = 104;
userData = {
"terminalChecked_FA803571-32C9-4FEE-972F-1FEF49B82217_104,0 / 142,0" = 0;
"terminalChecked_FA803571-32C9-4FEE-972F-1FEF49B82217_142,770 / 104,770" = 0;
"terminalChecked_FA803571-32C9-4FEE-972F-1FEF49B82217_430,0 / 468,0" = 0;
"terminalChecked_master01_173,770 / 85,770" = 0;
"terminalChecked_master01_407,0 / 495,0" = 0;
"terminalChecked_master01_85,0 / 173,0" = 0;
};
},
{
color = 5;
glyphname = k;
lastChange = "2026-07-10 13:45:09 +0000";
layers = (
{
anchors = (
{
name = bottom;
pos = (292,0);
}
);
background = {
shapes = (
{
closed = 1;
nodes = (
(513,0,l),
(271,332,l),
(198,294,l),
(399,0,l)
);
},
{
closed = 1;
nodes = (
(93,0,l),
(181,0,l),
(181,770,l),
(93,770,l)
);
},
{
closed = 1;
nodes = (
(455,490,l),
(379,515,l),
(181,308,l),
(163,198,l)
);
}
);
};
guides = (
{
angle = 90;
pos = (303,0);
},
{
angle = 160.3462;
pos = (462,493);
}
);
layerId = master01;
shapes = (
{
closed = 1;
nodes = (
(539,0,l,{
"Letterink-NibData" = {
ValidForParentWidth = "21";
};
}),
(301,327,l),
(474,489,l,{
"Letterink-NibData" = {
ValidForParentWidth = "21";
};
}),
(399,515,l,{
"Letterink-NibData" = {
ValidForParentWidth = "21";
};
}),
(181,311,l),
(181,770,l,{
"Letterink-NibData" = {
ValidForParentWidth = "21";
};
}),
(93,770,l,{
"Letterink-NibData" = {
ValidForParentWidth = "21";
};
}),
(93,0,l,{
"Letterink-NibData" = {
ValidForParentWidth = "21";
};
}),
(181,0,l,{
"Letterink-NibData" = {
ValidForParentWidth = "21";
};
}),
(181,215,l),
(240,270,l),
(425,0,l,{
"Letterink-NibData" = {
ValidForParentWidth = "21";
};
})
);
}
);
width = 559;
},
{
anchors = (
{
name = bottom;
pos = (276,0);
}
);
guides = (
{
angle = -52.0415;
pos = (297,166);
},
{
angle = 90;
pos = (285,0);
},
{
angle = 160.3462;
pos = (433,502);
}
);
layerId = "FA803571-32C9-4FEE-972F-1FEF49B82217";
shapes = (
{
closed = 1;
nodes = (
(469,0,l),
(228,309,l),
(424,505,l),
(383,520,l),
(143,266,l),
(143,770,l),
(105,770,l),
(105,0,l),
(143,0,l),
(143,223,l),
(204,284,l),
(427,0,l)
);
}
);
width = 499;
},
{
anchors = (
{
name = bottom;
pos = (331,0);
}
);
guides = (
{
angle = 90;
pos = (331,0);
}
);
layerId = "494556E7-144A-4E25-B9FC-0C21051BD184";
shapes = (
{
closed = 1;
nodes = (
(602,0,l),
(423,329,l),
(583,476,l),
(412,533,l),
(268,392,l),
(268,770,l),
(68,770,l),
(68,0,l),
(268,0,l),
(268,187,l),
(298,214,l),
(394,0,l)
);
}
);
width = 606;
}
);
note = k;
unicode = 107;
userData = {
"terminalChecked_FA803571-32C9-4FEE-972F-1FEF49B82217_105,0 / 143,0" = 0;
"terminalChecked_FA803571-32C9-4FEE-972F-1FEF49B82217_143,223 / 204,284" = 0;
"terminalChecked_FA803571-32C9-4FEE-972F-1FEF49B82217_143,770 / 105,770" = 0;
"terminalChecked_FA803571-32C9-4FEE-972F-1FEF49B82217_424,505 / 383,520" = 0;
"terminalChecked_FA803571-32C9-4FEE-972F-1FEF49B82217_425,507 / 383,520" = 1;
"terminalChecked_FA803571-32C9-4FEE-972F-1FEF49B82217_427,0 / 469,0" = 0;
"terminalChecked_master01_181,215 / 240,270" = 0;
"terminalChecked_master01_181,770 / 93,770" = 0;
"terminalChecked_master01_425,0 / 539,0" = 0;
"terminalChecked_master01_474,489 / 399,515" = 0;
"terminalChecked_master01_475,490 / 399,515" = 1;
"terminalChecked_master01_93,0 / 181,0" = 0;
};
},
{
color = 1;
glyphname = l;
kernLeft = l;
kernRight = l;
lastChange = "2026-07-10 13:45:09 +0000";
layers = (
{
anchors = (
{
name = "#slashshort";
pos = (158,0);
},
{
name = bottom;
pos = (171,0);
},
{
name = top;
pos = (134,770);
},
{
name = topright;
pos = (118,515);
}
);
background = {
shapes = (
{
closed = 1;
nodes = (
(90,750,l),
(90,145,ls),
(90,89,o),
(99,37,o),
(110,-14,c),
(192,14,l),
(184,65,o),
(178,111,o),
(178,167,cs),
(178,750,l)
);
}
);
};
guides = (
{
angle = 18.3085;
pos = (98,-29);
},
{
angle = 90;
pos = (134,770);
}
);
layerId = master01;
shapes = (
{
closed = 1;
nodes = (
(212,9,l,{
"Letterink-NibData" = {
ValidForParentWidth = 21;
};
}),
(192,44,o),
(178,135,o),
(178,188,cs,{
"Letterink-NibData" = {
ValidForParentWidth = 21;
};
}),
(178,770,l,{
"Letterink-NibData" = {
ValidForParentWidth = 21;
};
}),
(90,770,l,{
"Letterink-NibData" = {
ValidForParentWidth = 21;
};
}),
(90,169,ls,{
"Letterink-NibData" = {
ValidForParentWidth = 21;
};
}),
(90,73,o),
(129,11,o),
(145,-14,c,{
"Letterink-NibData" = {
ValidForParentWidth = 21;
};
})
);
}
);
width = 278;
},
{
anchors = (
{
name = "#slashshort";
pos = (119,0);
},
{
name = bottom;
pos = (147,0);
},
{
name = top;
pos = (119,770);
},
{
name = topright;
pos = (64,505);
}
);
background = {
shapes = (
{
closed = 1;
nodes = (
(73,93,o),
(122,11,o),
(138,-14,c),
(205,9,l),
(185,44,o),
(161,135,o),
(161,188,cs),
(161,770,l),
(73,770,l),
(73,189,ls)
);
}
);
};
guides = (
{
angle = 90;
pos = (119,770);
},
{
angle = 19.6538;
pos = (424,84);
}
);
layerId = "FA803571-32C9-4FEE-972F-1FEF49B82217";
shapes = (
{
closed = 1;
nodes = (
(178,-4,l),
(156,33,o),
(138,65,o),
(138,168,cs),
(138,770,l),
(100,770,l),
(100,169,ls),
(100,53,o),
(129,11,o),
(150,-14,c)
);
}
);
width = 258;
},
{
anchors = (
{
name = "#slashshort";
pos = (167,0);
},
{
name = bottom;
pos = (187,0);
},
{
name = top;
pos = (168,770);
},
{
name = topright;
pos = (211,520);
}
);
guides = (
{
angle = 90;
pos = (168,238);
}
);
layerId = "494556E7-144A-4E25-B9FC-0C21051BD184";
shapes = (
{
closed = 1;
nodes = (
(306,31,l),
(268,96,o),
(268,199,o),
(268,254,cs),
(268,770,l),
(68,770,l),
(68,222,ls),
(68,76,o),
(115,30,o),
(172,-14,c)
);
}
);
width = 344;
}
);
note = l;
unicode = 108;
userData = {
"terminalChecked_FA803571-32C9-4FEE-972F-1FEF49B82217_147,770 / 109,770" = 0;
"terminalChecked_FA803571-32C9-4FEE-972F-1FEF49B82217_159,-13 / 187,-4" = 1;
"terminalChecked_FA803571-32C9-4FEE-972F-1FEF49B82217_159,-14 / 187,-4" = 0;
"terminalChecked_master01_178,770 / 90,770" = 0;
};
},
{
color = 5;
glyphname = m;
kernLeft = n;
lastChange = "2026-05-13 14:41:38 +0000";
layers = (
{
background = {
shapes = (
{
closed = 1;
nodes = (
(158,0,l),
(158,394,l),
(123,528,l),
(55,505,l),
(63,454,o),
(70,403,o),
(70,347,cs),
(70,0,l)
);
},
{
closed = 1;
nodes = (
(468,0,l),
(468,376,ls),
(468,461,o),
(449,529,o),
(371,529,cs),
(301,529,o),
(179,477,o),
(126,448,c),
(149,388,l),
(190,412,o),
(307,458,o),
(359,458,c),
(378,438,o),
(380,406,o),
(380,363,cs),
(380,0,l)
);
},
{
closed = 1;
nodes = (
(778,0,l),
(778,376,ls),
(778,461,o),
(759,529,o),
(681,529,cs),
(605,529,o),
(470,469,o),
(416,438,c),
(439,378,l),
(483,403,o),
(612,458,o),
(669,458,c),
(688,438,o),
(690,406,o),
(690,363,cs),
(690,0,l)
);
}
);
};
guides = (
{
angle = 18.3085;
pos = (76,514);
}
);
layerId = master01;
shapes = (
{
closed = 1;
nodes = (
(158,0,l,{
"Letterink-NibData" = {
ValidForParentWidth = 21;
};
}),
(158,391,l),
(210,422,o),
(302,461,o),
(344,458,c,{
"Letterink-NibData" = {
ValidForParentWidth = 21;
};
}),
(363,438,o),
(365,406,o),
(365,363,cs,{
"Letterink-NibData" = {
ValidForParentWidth = 21;
};
}),
(365,0,l,{
"Letterink-NibData" = {
ValidForParentWidth = 21;
};
}),
(453,0,l,{
"Letterink-NibData" = {
ValidForParentWidth = 21;
};
}),
(453,385,l,{
"Letterink-NibData" = {
ValidForParentWidth = 21;
};
}),
(500,416,o),
(606,462,o),
(653,458,c,{
"Letterink-NibData" = {
ValidForParentWidth = 21;
};
}),
(672,438,o),
(674,406,o),
(674,363,cs,{
"Letterink-NibData" = {
ValidForParentWidth = 21;
};
}),
(674,0,l,{
"Letterink-NibData" = {
ValidForParentWidth = 21;
};
}),
(762,0,l,{
"Letterink-NibData" = {
ValidForParentWidth = 21;
};
}),
(762,376,ls,{
"Letterink-NibData" = {
ValidForParentWidth = 21;
};
}),
(762,461,o),
(743,529,o),
(665,529,cs,{
"Letterink-NibData" = {
ValidForParentWidth = 21;
};
}),
(605,529,o),
(504,491,o),
(446,458,c),
(435,502,o),
(409,529,o),
(356,529,cs,{
"Letterink-NibData" = {
ValidForParentWidth = 21;
};
}),
(298,529,o),
(200,492,o),
(141,459,c),
(123,528,l,{
"Letterink-NibData" = {
ValidForParentWidth = 21;
};
}),
(55,505,l,{
"Letterink-NibData" = {
ValidForParentWidth = 21;
};
}),
(63,454,o),
(70,403,o),
(70,347,cs,{
"Letterink-NibData" = {
ValidForParentWidth = 21;
};
}),
(70,0,l,{
"Letterink-NibData" = {
ValidForParentWidth = 21;
};
})
);
}
);
width = 832;
},
{
background = {
shapes = (
{
closed = 1;
nodes = (
(794,0,l),
(794,366,ls),
(794,449,o),
(764,519,o),
(708,519,cs),
(667,519,o),
(525,463,o),
(462,429,c),
(450,482,o),
(423,519,o),
(382,519,cs),
(341,519,o),
(202,464,o),
(138,430,c),
(119,518,l),
(89,508,l),
(100,457,o),
(104,413,o),
(104,377,cs),
(104,0,l),
(142,0,l),
(142,398,l),
(194,427,o),
(333,484,o),
(389,484,c),
(411,472,o),
(430,434,o),
(430,343,cs),
(430,0,l),
(468,0,l),
(468,366,ls),
(468,377,o),
(468,387,o),
(467,397,c),
(519,427,o),
(659,484,o),
(715,484,c),
(737,472,o),
(756,434,o),
(756,343,cs),
(756,0,l)
);
}
);
};
guides = (
{
angle = 19.6538;
pos = (133,524);
}
);
layerId = "FA803571-32C9-4FEE-972F-1FEF49B82217";
shapes = (
{
closed = 1;
nodes = (
(142,0,l),
(142,398,l),
(194,427,o),
(333,484,o),
(389,484,c),
(411,472,o),
(430,434,o),
(430,343,cs),
(430,0,l),
(468,0,l),
(468,397,l),
(519,427,o),
(659,484,o),
(715,484,c),
(737,472,o),
(756,434,o),
(756,343,cs),
(756,0,l),
(794,0,l),
(794,366,ls),
(794,449,o),
(764,519,o),
(708,519,cs),
(667,519,o),
(525,463,o),
(462,429,c),
(450,482,o),
(423,519,o),
(382,519,cs),
(341,519,o),
(202,464,o),
(138,430,c),
(119,519,l),
(89,508,l),
(100,457,o),
(104,413,o),
(104,377,cs),
(104,0,l)
);
}
);
width = 893;
},
{
layerId = "494556E7-144A-4E25-B9FC-0C21051BD184";
shapes = (
{
closed = 1;
nodes = (
(267,0,l),
(267,303,l),
(285,322,o),
(309,339,o),
(341,339,c),
(362,321,o),
(362,272,o),
(362,239,cs),
(362,0,l),
(562,0,l),
(562,303,l),
(580,322,o),
(604,339,o),
(636,339,c),
(657,321,o),
(657,272,o),
(657,239,cs),
(657,0,l),
(857,0,l),
(857,346,ls),
(857,460,o),
(828,534,o),
(728,534,cs),
(666,534,o),
(599,497,o),
(546,460,c),
(528,507,o),
(494,534,o),
(433,534,cs),
(368,534,o),
(299,494,o),
(243,454,c),
(212,534,l),
(40,478,l),
(58,398,o),
(67,351,o),
(67,282,cs),
(67,0,l)
);
}
);
width = 915;
}
);
metricLeft = n;
metricRight = n;
note = m;
unicode = 109;
userData = {
"terminalChecked_FA803571-32C9-4FEE-972F-1FEF49B82217_104,0 / 142,0" = 0;
"terminalChecked_FA803571-32C9-4FEE-972F-1FEF49B82217_119,518 / 89,508" = 1;
"terminalChecked_FA803571-32C9-4FEE-972F-1FEF49B82217_119,519 / 89,508" = 0;
"terminalChecked_FA803571-32C9-4FEE-972F-1FEF49B82217_430,0 / 468,0" = 0;
"terminalChecked_FA803571-32C9-4FEE-972F-1FEF49B82217_756,0 / 794,0" = 0;
"terminalChecked_master01_365,0 / 453,0" = 0;
"terminalChecked_master01_674,0 / 762,0" = 0;
"terminalChecked_master01_70,0 / 158,0" = 0;
};
},
{
color = 5;
glyphname = n;
kernLeft = n;
lastChange = "2026-07-10 13:45:09 +0000";
layers = (
{
anchors = (
{
name = bottom;
pos = (277,0);
},
{
name = top;
pos = (275,515);
}
);
background = {
shapes = (
{
closed = 1;
nodes = (
(158,0,l),
(158,394,l),
(123,528,l),
(55,506,l),
(63,455,o),
(70,403,o),
(70,347,cs),
(70,0,l)
);
},
{
closed = 1;
nodes = (
(480,0,l),
(480,376,ls),
(480,461,o),
(461,529,o),
(383,529,cs),
(317,529,o),
(173,479,o),
(126,448,c),
(149,388,l),
(188,414,o),
(320,458,o),
(371,458,c),
(390,438,o),
(392,406,o),
(392,363,cs),
(392,0,l)
);
}
);
};
guides = (
{
angle = 18.3085;
pos = (578,679);
},
{
angle = 90;
pos = (275,0);
}
);
layerId = master01;
shapes = (
{
closed = 1;
nodes = (
(480,0,l,{
"Letterink-NibData" = {
ValidForParentWidth = 21;
};
}),
(480,376,ls,{
"Letterink-NibData" = {
ValidForParentWidth = 21;
};
}),
(480,461,o),
(461,529,o),
(383,529,cs,{
"Letterink-NibData" = {
ValidForParentWidth = 21;
};
}),
(318,529,o),
(197,495,o),
(140,462,c),
(123,528,l,{
"Letterink-NibData" = {
ValidForParentWidth = 21;
};
}),
(55,506,l,{
"Letterink-NibData" = {
ValidForParentWidth = 21;
};
}),
(63,455,o),
(70,403,o),
(70,347,cs,{
"Letterink-NibData" = {
ValidForParentWidth = 21;
};
}),
(70,0,l,{
"Letterink-NibData" = {
ValidForParentWidth = 21;
};
}),
(158,0,l,{
"Letterink-NibData" = {
ValidForParentWidth = 21;
};
}),
(158,393,l,{
"Letterink-NibData" = {
ValidForParentWidth = 21;
};
}),
(205,423,o),
(323,462,o),
(371,458,c,{
"Letterink-NibData" = {
ValidForParentWidth = 21;
};
}),
(390,438,o),
(392,406,o),
(392,363,cs,{
"Letterink-NibData" = {
ValidForParentWidth = 21;
};
}),
(392,0,l,{
"Letterink-NibData" = {
ValidForParentWidth = 21;
};
})
);
}
);
width = 550;
},
{
anchors = (
{
name = bottom;
pos = (285,0);
},
{
name = top;
pos = (275,505);
}
);
background = {
anchors = (
{
name = "#bottom";
pos = (285,0);
},
{
name = "#top";
pos = (275,505);
}
);
shapes = (
{
closed = 1;
nodes = (
(142,0,l),
(142,398,l),
(194,427,o),
(333,484,o),
(389,484,c),
(411,472,o),
(430,434,o),
(430,343,cs),
(430,0,l),
(468,0,l),
(468,366,ls),
(468,449,o),
(438,519,o),
(382,519,cs),
(341,519,o),
(202,464,o),
(138,430,c),
(119,519,l),
(89,508,l),
(98,466,o),
(104,418,o),
(104,377,cs),
(104,0,l)
);
}
);
};
guides = (
{
angle = 90;
pos = (286,0);
},
{
angle = 19.6538;
pos = (433,631);
}
);
layerId = "FA803571-32C9-4FEE-972F-1FEF49B82217";
shapes = (
{
closed = 1;
nodes = (
(468,0,l),
(468,366,ls),
(468,449,o),
(438,519,o),
(382,519,cs),
(341,519,o),
(202,464,o),
(138,430,c),
(119,519,l),
(89,508,l),
(100,457,o),
(104,413,o),
(104,377,cs),
(104,0,l),
(142,0,l),
(142,398,l),
(194,427,o),
(333,484,o),
(389,484,c),
(411,472,o),
(430,434,o),
(430,343,cs),
(430,0,l)
);
}
);
width = 567;
},
{
anchors = (
{
name = bottom;
pos = (319,0);
},
{
name = top;
pos = (310,520);
}
);
guides = (
{
angle = 90;
pos = (319,0);
}
);
layerId = "494556E7-144A-4E25-B9FC-0C21051BD184";
shapes = (
{
closed = 1;
nodes = (
(571,0,l),
(571,346,ls),
(571,460,o),
(542,534,o),
(442,534,cs),
(383,534,o),
(301,494,o),
(242,455,c),
(211,534,l),
(40,477,l),
(57,397,o),
(66,351,o),
(66,282,cs),
(66,0,l),
(266,0,l),
(266,298,l),
(285,319,o),
(311,339,o),
(350,339,c),
(371,321,o),
(371,272,o),
(371,239,cs),
(371,0,l)
);
}
);
width = 629;
}
);
note = n;
unicode = 110;
userData = {
"terminalChecked_FA803571-32C9-4FEE-972F-1FEF49B82217_104,0 / 142,0" = 0;
"terminalChecked_FA803571-32C9-4FEE-972F-1FEF49B82217_119,518 / 89,508" = 1;
"terminalChecked_FA803571-32C9-4FEE-972F-1FEF49B82217_119,519 / 89,508" = 0;
"terminalChecked_FA803571-32C9-4FEE-972F-1FEF49B82217_430,0 / 468,0" = 0;
"terminalChecked_master01_392,0 / 480,0" = 0;
"terminalChecked_master01_70,0 / 158,0" = 0;
};
},
{
color = 1;
glyphname = o;
kernLeft = o;
kernRight = o;
lastChange = "2026-07-10 13:44:55 +0000";
layers = (
{
anchors = (
{
name = top;
pos = (291,515);
}
);
background = {
shapes = (
{
closed = 1;
nodes = (
(437,-14,o),
(533,90,o),
(531,257,cs),
(529,431,o),
(443,529,o),
(291,529,cs),
(139,529,o),
(45,425,o),
(45,257,cs),
(45,84,o),
(133,-14,o),
(285,-14,cs)
);
},
{
closed = 1;
nodes = (
(185,53,o),
(133,160,o),
(133,299,cs),
(133,400,o),
(170,462,o),
(271,462,cs),
(391,462,o),
(443,355,o),
(443,215,cs),
(443,115,o),
(406,53,o),
(305,53,cs)
);
}
);
};
layerId = master01;
shapes = (
{
closed = 1;
nodes = (
(429,-14,o),
(532,108,o),
(531,267,cs,{
"Letterink-NibData" = {
ValidForParentWidth = 21;
};
}),
(530,427,o),
(430,529,o),
(291,529,cs,{
"Letterink-NibData" = {
ValidForParentWidth = 21;
};
}),
(146,529,o),
(45,407,o),
(45,247,cs,{
"Letterink-NibData" = {
ValidForParentWidth = 21;
};
}),
(45,88,o),
(146,-14,o),
(285,-14,cs,{
"Letterink-NibData" = {
ValidForParentWidth = 21;
};
})
);
},
{
closed = 1;
nodes = (
(179,53,o),
(133,160,o),
(133,299,cs,{
"Letterink-NibData" = {
ValidForParentWidth = 21;
};
}),
(133,406,o),
(170,462,o),
(271,462,cs,{
"Letterink-NibData" = {
ValidForParentWidth = 21;
};
}),
(397,462,o),
(443,355,o),
(443,215,cs,{
"Letterink-NibData" = {
ValidForParentWidth = 21;
};
}),
(443,109,o),
(406,53,o),
(305,53,cs,{
"Letterink-NibData" = {
ValidForParentWidth = 21;
};
})
);
}
);
width = 576;
},
{
anchors = (
{
name = top;
pos = (290,505);
}
);
background = {
shapes = (
{
closed = 1;
nodes = (
(428,-14,o),
(509,74,o),
(509,246,cs),
(509,400,o),
(434,519,o),
(294,519,cs),
(146,519,o),
(65,430,o),
(65,259,cs),
(65,105,o),
(140,-14,o),
(280,-14,cs)
);
},
{
closed = 1;
nodes = (
(162,24,o),
(106,126,o),
(105,283,cs),
(104,411,o),
(159,481,o),
(284,481,cs),
(412,481,o),
(468,378,o),
(469,222,cs),
(470,94,o),
(415,24,o),
(290,24,cs)
);
}
);
};
layerId = "FA803571-32C9-4FEE-972F-1FEF49B82217";
shapes = (
{
closed = 1;
nodes = (
(430,-14,o),
(511,88,o),
(511,248,cs),
(511,407,o),
(430,519,o),
(291,519,cs),
(146,519,o),
(65,417,o),
(65,257,cs),
(65,98,o),
(146,-14,o),
(285,-14,cs)
);
},
{
closed = 1;
nodes = (
(164,24,o),
(108,126,o),
(107,283,cs),
(106,405,o),
(161,481,o),
(284,481,cs),
(412,481,o),
(468,379,o),
(469,222,cs),
(470,100,o),
(415,24,o),
(290,24,cs)
);
}
);
width = 576;
},
{
anchors = (
{
name = top;
pos = (293,515);
}
);
layerId = "494556E7-144A-4E25-B9FC-0C21051BD184";
shapes = (
{
closed = 1;
nodes = (
(465,-14,o),
(566,96,o),
(566,262,cs),
(566,428,o),
(472,534,o),
(303,534,cs),
(134,534,o),
(33,424,o),
(33,258,cs),
(33,92,o),
(127,-14,o),
(296,-14,cs)
);
},
{
closed = 1;
nodes = (
(252,146,o),
(234,206,o),
(234,283,cs),
(234,337,o),
(244,374,o),
(291,374,cs),
(348,374,o),
(366,313,o),
(366,236,cs),
(366,181,o),
(355,146,o),
(309,146,cs)
);
}
);
width = 599;
}
);
note = o;
unicode = 111;
},
{
color = 5;
glyphname = p;
kernLeft = p;
kernRight = o;
lastChange = "2026-05-06 14:34:45 +0000";
layers = (
{
background = {
shapes = (
{
closed = 1;
nodes = (
(177,-230,l),
(177,407,l),
(146,527,l),
(74,505,l),
(82,454,o),
(89,402,o),
(89,346,cs),
(89,-230,l)
);
},
{
closed = 1;
nodes = (
(185,403,o),
(263,451,o),
(315,451,cs),
(417,451,o),
(458,335,o),
(458,237,cs),
(458,132,o),
(412,74,o),
(353,46,c),
(303,53,o),
(228,99,o),
(166,150,c),
(162,63,l),
(219,16,o),
(283,-13,o),
(333,-13,cs),
(452,-13,o),
(545,122,o),
(545,272,cs),
(547,403,o),
(468,529,o),
(333,529,cs),
(267,529,o),
(192,480,o),
(104,413,c),
(124,354,l)
);
}
);
};
guides = (
{
angle = -19.6538;
pos = (372,635);
},
{
angle = 19.6538;
pos = (377,610);
}
);
layerId = master01;
shapes = (
{
closed = 1;
nodes = (
(437,-14,o),
(549,114,o),
(548,269,cs,{
"Letterink-NibData" = {
ValidForParentWidth = 21;
};
}),
(548,404,o),
(455,529,o),
(327,529,cs,{
"Letterink-NibData" = {
ValidForParentWidth = 21;
};
}),
(277,529,o),
(224,500,o),
(164,457,c),
(146,528,l,{
"Letterink-NibData" = {
ValidForParentWidth = 21;
};
}),
(74,502,l,{
"Letterink-NibData" = {
ValidForParentWidth = 21;
};
}),
(82,451,o),
(89,402,o),
(89,346,cs,{
"Letterink-NibData" = {
ValidForParentWidth = 21;
};
}),
(89,-230,l,{
"Letterink-NibData" = {
ValidForParentWidth = 21;
};
}),
(177,-230,l,{
"Letterink-NibData" = {
ValidForParentWidth = 21;
};
}),
(177,42,l),
(214,15,o),
(275,-14,o),
(323,-14,cs,{
"Letterink-NibData" = {
ValidForParentWidth = 21;
};
})
);
},
{
closed = 1;
nodes = (
(177,393,l),
(225,425,o),
(277,451,o),
(315,451,cs,{
"Letterink-NibData" = {
ValidForParentWidth = 21;
};
}),
(417,451,o),
(460,341,o),
(460,239,cs,{
"Letterink-NibData" = {
ValidForParentWidth = 21;
};
}),
(460,124,o),
(414,72,o),
(353,44,c,{
"Letterink-NibData" = {
ValidForParentWidth = 21;
};
}),
(305,51,o),
(236,92,o),
(177,139,c)
);
}
);
width = 593;
},
{
background = {
shapes = (
{
closed = 1;
nodes = (
(142,-230,l),
(142,414,l),
(119,518,l),
(89,508,l),
(100,457,o),
(104,413,o),
(104,377,cs),
(104,-230,l)
);
},
{
closed = 1;
nodes = (
(177,419,o),
(250,481,o),
(312,481,c),
(421,481,o),
(472,346,o),
(472,250,c),
(472,104,o),
(400,42,o),
(341,24,c),
(254,36,o),
(189,79,o),
(128,128,c),
(116,87,l),
(169,47,o),
(258,-14,o),
(328,-14,c),
(418,-14,o),
(514,97,o),
(514,246,c),
(514,376,o),
(452,519,o),
(312,519,c),
(242,519,o),
(162,449,o),
(113,407,c),
(132,382,l)
);
}
);
};
guides = (
{
angle = -19.6538;
pos = (472,672);
},
{
angle = 19.6538;
pos = (477,647);
}
);
layerId = "FA803571-32C9-4FEE-972F-1FEF49B82217";
shapes = (
{
closed = 1;
nodes = (
(418,-14,o),
(514,97,o),
(514,246,cs),
(514,382,o),
(446,519,o),
(306,519,cs),
(247,519,o),
(185,469,o),
(139,429,c),
(119,519,l),
(89,508,l),
(100,457,o),
(104,413,o),
(104,377,cs),
(104,-230,l),
(142,-230,l),
(142,68,l),
(195,30,o),
(268,-14,o),
(328,-14,cs)
);
},
{
closed = 1;
nodes = (
(142,390,l),
(186,427,o),
(248,481,o),
(306,481,cs),
(415,481,o),
(472,352,o),
(472,250,cs),
(472,104,o),
(400,36,o),
(341,18,c),
(261,29,o),
(199,77,o),
(142,123,c)
);
}
);
width = 579;
},
{
guides = (
{
angle = -19.6538;
pos = (470,651);
},
{
angle = 19.6538;
pos = (475,626);
}
);
layerId = "494556E7-144A-4E25-B9FC-0C21051BD184";
shapes = (
{
closed = 1;
nodes = (
(521,-13,o),
(598,126,o),
(598,276,cs),
(598,421,o),
(533,535,o),
(417,535,cs),
(363,535,o),
(303,512,o),
(243,467,c),
(217,534,l),
(43,472,l),
(57,421,o),
(72,350,o),
(72,297,cs),
(72,-230,l),
(272,-230,l),
(272,26,l),
(303,0,o),
(337,-13,o),
(379,-13,cs)
);
},
{
closed = 1;
nodes = (
(272,359,l),
(289,369,o),
(306,375,o),
(321,375,cs),
(365,375,o),
(394,341,o),
(394,271,cs),
(394,226,o),
(376,162,o),
(337,134,c),
(315,138,o),
(294,150,o),
(272,170,c)
);
}
);
width = 631;
}
);
metricRight = o;
note = p;
unicode = 112;
userData = {
"terminalChecked_FA803571-32C9-4FEE-972F-1FEF49B82217_104,-230 / 142,-230" = 0;
"terminalChecked_FA803571-32C9-4FEE-972F-1FEF49B82217_119,518 / 89,508" = 1;
"terminalChecked_FA803571-32C9-4FEE-972F-1FEF49B82217_119,519 / 89,508" = 0;
"terminalChecked_master01_164,457 / 146,527" = 1;
"terminalChecked_master01_164,457 / 146,528" = 1;
"terminalChecked_master01_89,-230 / 177,-230" = 0;
};
},
{
color = 5;
glyphname = q;
kernLeft = o;
kernRight = q;
lastChange = "2026-05-06 13:17:42 +0000";
layers = (
{
background = {
shapes = (
{
closed = 1;
nodes = (
(502,-230,l),
(502,346,ls),
(502,402,o),
(509,454,o),
(517,505,c),
(445,527,l),
(414,407,l),
(414,-230,l)
);
},
{
closed = 1;
nodes = (
(428,452,l),
(371,499,o),
(307,528,o),
(257,528,cs),
(138,528,o),
(45,391,o),
(45,241,cs),
(43,112,o),
(122,-14,o),
(257,-14,cs),
(323,-14,o),
(398,35,o),
(486,102,c),
(466,161,l),
(405,112,o),
(327,64,o),
(275,64,cs),
(173,64,o),
(132,180,o),
(132,278,cs),
(132,383,o),
(178,441,o),
(237,469,c),
(287,462,o),
(362,416,o),
(424,365,c)
);
}
);
};
guides = (
{
angle = -19.6538;
pos = (392,547);
},
{
angle = 19.6538;
pos = (397,522);
}
);
layerId = master01;
shapes = (
{
closed = 1;
nodes = (
(312,-14,o),
(360,10,o),
(414,47,c),
(414,-230,l,{
"Letterink-NibData" = {
ValidForParentWidth = 21;
};
}),
(502,-230,l,{
"Letterink-NibData" = {
ValidForParentWidth = 21;
};
}),
(502,346,ls,{
"Letterink-NibData" = {
ValidForParentWidth = 21;
};
}),
(502,401,o),
(509,452,o),
(517,502,c),
(445,528,l,{
"Letterink-NibData" = {
ValidForParentWidth = 21;
};
}),
(429,463,l),
(397,491,o),
(325,529,o),
(270,529,cs,{
"Letterink-NibData" = {
ValidForParentWidth = 21;
};
}),
(156,529,o),
(44,401,o),
(45,246,cs,{
"Letterink-NibData" = {
ValidForParentWidth = 21;
};
}),
(46,111,o),
(138,-14,o),
(266,-14,cs,{
"Letterink-NibData" = {
ValidForParentWidth = 21;
};
})
);
},
{
closed = 1;
nodes = (
(133,391,o),
(179,443,o),
(240,471,c,{
"Letterink-NibData" = {
ValidForParentWidth = 21;
};
}),
(287,464,o),
(355,424,o),
(414,377,c),
(414,121,l),
(366,89,o),
(315,64,o),
(278,64,cs,{
"Letterink-NibData" = {
ValidForParentWidth = 21;
};
}),
(176,64,o),
(133,174,o),
(133,276,cs,{
"Letterink-NibData" = {
ValidForParentWidth = 21;
};
})
);
}
);
width = 597;
},
{
guides = (
{
angle = -19.6538;
pos = (277,584);
},
{
angle = 19.6538;
pos = (282,559);
}
);
layerId = "FA803571-32C9-4FEE-972F-1FEF49B82217";
shapes = (
{
closed = 1;
nodes = (
(330,-14,o),
(390,33,o),
(437,73,c),
(437,-230,l),
(475,-230,l),
(475,377,ls),
(475,413,o),
(479,457,o),
(490,508,c),
(463,518,l),
(442,434,l),
(388,473,o),
(312,519,o),
(251,519,cs),
(161,519,o),
(65,408,o),
(65,259,cs),
(65,123,o),
(133,-14,o),
(273,-14,cs)
);
},
{
closed = 1;
nodes = (
(107,401,o),
(179,463,o),
(238,481,c),
(318,470,o),
(379,433,o),
(437,388,c),
(437,115,l),
(393,78,o),
(331,24,o),
(273,24,cs),
(164,24,o),
(107,153,o),
(107,255,cs)
);
}
);
width = 573;
},
{
guides = (
{
angle = -19.6538;
pos = (470,514);
},
{
angle = 19.6538;
pos = (475,489);
}
);
layerId = "494556E7-144A-4E25-B9FC-0C21051BD184";
shapes = (
{
closed = 1;
nodes = (
(260,-13,o),
(309,3,o),
(359,35,c),
(359,-230,l),
(559,-230,l),
(559,297,ls),
(559,350,o),
(573,421,o),
(587,472,c),
(414,534,l),
(388,467,l),
(348,513,o),
(307,535,o),
(252,535,cs),
(110,535,o),
(33,396,o),
(33,246,cs),
(33,101,o),
(98,-13,o),
(214,-13,cs)
);
},
{
closed = 1;
nodes = (
(237,296,o),
(255,360,o),
(294,388,c),
(316,384,o),
(337,372,o),
(359,352,c),
(359,163,l),
(342,153,o),
(325,147,o),
(310,147,cs),
(266,147,o),
(237,181,o),
(237,251,cs)
);
}
);
width = 630;
}
);
metricLeft = o;
note = q;
unicode = 113;
userData = {
"terminalChecked_FA803571-32C9-4FEE-972F-1FEF49B82217_432,-230 / 470,-230" = 0;
"terminalChecked_FA803571-32C9-4FEE-972F-1FEF49B82217_485,508 / 458,517" = 1;
"terminalChecked_FA803571-32C9-4FEE-972F-1FEF49B82217_485,508 / 458,518" = 0;
"terminalChecked_master01_414,-230 / 502,-230" = 0;
};
},
{
color = 5;
glyphname = r;
kernLeft = n;
kernRight = r;
lastChange = "2026-07-10 13:45:09 +0000";
layers = (
{
anchors = (
{
name = bottom;
pos = (104,-1);
},
{
name = top;
pos = (156,515);
}
);
background = {
shapes = (
{
closed = 1;
nodes = (
(148,0,l),
(148,394,l),
(113,528,l),
(45,505,l),
(53,454,o),
(60,403,o),
(60,347,cs),
(60,0,l)
);
},
{
closed = 1;
nodes = (
(142,335,l),
(154,367,o),
(194,433,o),
(230,455,c),
(258,448,o),
(293,440,o),
(318,425,c),
(344,504,l),
(314,517,o),
(273,529,o),
(240,529,cs),
(188,529,o),
(127,438,o),
(99,384,c)
);
}
);
};
guides = (
{
angle = 90;
pos = (104,0);
}
);
layerId = master01;
shapes = (
{
closed = 1;
nodes = (
(148,0,l,{
"Letterink-NibData" = {
ValidForParentWidth = "21";
};
}),
(148,349,l),
(165,385,o),
(202,440,o),
(233,459,c,{
"Letterink-NibData" = {
ValidForParentWidth = "21";
};
}),
(261,452,o),
(293,439,o),
(318,425,c,{
"Letterink-NibData" = {
ValidForParentWidth = "21";
};
}),
(344,504,l,{
"Letterink-NibData" = {
ValidForParentWidth = "21";
};
}),
(314,517,o),
(273,529,o),
(240,529,cs,{
"Letterink-NibData" = {
ValidForParentWidth = "21";
};
}),
(205,529,o),
(165,487,o),
(135,444,c),
(113,528,l,{
"Letterink-NibData" = {
ValidForParentWidth = "21";
};
}),
(45,505,l,{
"Letterink-NibData" = {
ValidForParentWidth = "21";
};
}),
(53,454,o),
(60,403,o),
(60,347,cs,{
"Letterink-NibData" = {
ValidForParentWidth = "21";
};
}),
(60,0,l,{
"Letterink-NibData" = {
ValidForParentWidth = "21";
};
})
);
}
);
width = 349;
},
{
anchors = (
{
name = bottom;
pos = (113,-1);
},
{
name = top;
pos = (169,505);
}
);
background = {
shapes = (
{
closed = 1;
nodes = (
(144,404,o),
(183,455,o),
(223,486,c),
(250,482,o),
(293,467,o),
(319,453,c),
(333,491,l),
(303,506,o),
(256,518,o),
(227,518,cs),
(187,518,o),
(120,417,o),
(107,395,c),
(123,366,l)
);
},
{
closed = 1;
nodes = (
(129,-1,l),
(129,413,l),
(106,517,l),
(76,507,l),
(87,456,o),
(91,412,o),
(91,376,cs),
(91,-1,l)
);
}
);
};
guides = (
{
angle = 90;
pos = (113,0);
},
{
angle = 19.6538;
pos = (322,595);
}
);
layerId = "FA803571-32C9-4FEE-972F-1FEF49B82217";
shapes = (
{
closed = 1;
nodes = (
(132,0,l),
(132,381,l),
(155,418,o),
(188,459,o),
(223,486,c),
(250,482,o),
(293,467,o),
(319,453,c),
(333,491,l),
(303,506,o),
(256,518,o),
(227,518,cs),
(198,518,o),
(156,466,o),
(129,428,c),
(109,519,l),
(79,508,l),
(90,457,o),
(94,413,o),
(94,377,cs),
(94,0,l)
);
}
);
width = 367;
},
{
anchors = (
{
name = bottom;
pos = (140,-1);
},
{
name = top;
pos = (229,520);
}
);
layerId = "494556E7-144A-4E25-B9FC-0C21051BD184";
shapes = (
{
closed = 1;
nodes = (
(256,0,l),
(256,288,l),
(269,327,o),
(294,359,o),
(322,369,c),
(356,366,o),
(390,352,o),
(410,343,c),
(462,500,l),
(435,521,o),
(383,533,o),
(355,533,cs),
(305,533,o),
(265,491,o),
(236,446,c),
(201,534,l),
(30,477,l),
(48,398,o),
(56,351,o),
(56,282,cs),
(56,0,l)
);
}
);
width = 455;
}
);
metricLeft = "=n-10";
metricRight = "=n-65";
note = r;
unicode = 114;
userData = {
"terminalChecked_FA803571-32C9-4FEE-972F-1FEF49B82217_104,0 / 142,0" = 0;
"terminalChecked_FA803571-32C9-4FEE-972F-1FEF49B82217_119,518 / 89,508" = 1;
"terminalChecked_FA803571-32C9-4FEE-972F-1FEF49B82217_119,519 / 89,508" = 0;
"terminalChecked_master01_110,0 / 198,0" = 0;
};
},
{
color = 5;
glyphname = s;
kernLeft = s;
kernRight = s;
lastChange = "2026-07-10 13:45:09 +0000";
layers = (
{
anchors = (
{
name = bottom;
pos = (228,0);
},
{
name = top;
pos = (254,515);
}
);
background = {
shapes = (
{
closed = 1;
nodes = (
(46,69,l),
(95,10,o),
(188,-14,o),
(251,-14,cs),
(348,-14,o),
(438,52,o),
(438,151,cs),
(438,240,o),
(359,286,o),
(264,318,cs),
(192,342,o),
(147,352,o),
(128,392,c),
(144,439,o),
(183,452,o),
(227,452,cs),
(278,452,o),
(336,432,o),
(391,400,c),
(416,476,l),
(364,512,o),
(310,529,o),
(253,529,cs),
(152,529,o),
(64,465,o),
(64,374,cs),
(64,304,o),
(131,260,o),
(231,225,cs),
(302,200,o),
(358,182,o),
(373,138,c),
(361,79,o),
(314,63,o),
(262,63,cs),
(189,63,o),
(127,91,o),
(71,146,c)
);
}
);
};
guides = (
{
angle = 250.3462;
pos = (398,427);
}
);
layerId = master01;
shapes = (
{
closed = 1;
nodes = (
(348,-14,o),
(438,52,o),
(438,151,cs,{
"Letterink-NibData" = {
ValidForParentWidth = 21;
};
}),
(438,238,o),
(359,284,o),
(264,316,cs,{
"Letterink-NibData" = {
ValidForParentWidth = 21;
};
}),
(192,340,o),
(147,350,o),
(128,390,c,{
"Letterink-NibData" = {
ValidForParentWidth = 21;
};
}),
(144,437,o),
(183,452,o),
(227,452,cs,{
"Letterink-NibData" = {
ValidForParentWidth = 21;
};
}),
(278,452,o),
(333,432,o),
(388,400,c,{
"Letterink-NibData" = {
ValidForParentWidth = 21;
};
}),
(416,476,l,{
"Letterink-NibData" = {
ValidForParentWidth = 21;
};
}),
(364,512,o),
(310,529,o),
(253,529,cs,{
"Letterink-NibData" = {
ValidForParentWidth = 21;
};
}),
(152,529,o),
(64,465,o),
(64,374,cs,{
"Letterink-NibData" = {
ValidForParentWidth = 21;
};
}),
(64,316,o),
(131,265,o),
(231,230,cs,{
"Letterink-NibData" = {
ValidForParentWidth = 21;
};
}),
(302,205,o),
(355,187,o),
(373,143,c,{
"Letterink-NibData" = {
ValidForParentWidth = 21;
};
}),
(361,84,o),
(314,63,o),
(262,63,cs,{
"Letterink-NibData" = {
ValidForParentWidth = 21;
};
}),
(189,63,o),
(130,91,o),
(74,146,c,{
"Letterink-NibData" = {
ValidForParentWidth = 21;
};
}),
(46,69,l,{
"Letterink-NibData" = {
ValidForParentWidth = 21;
};
}),
(95,10,o),
(188,-14,o),
(251,-14,cs,{
"Letterink-NibData" = {
ValidForParentWidth = 21;
};
})
);
}
);
width = 483;
},
{
anchors = (
{
name = bottom;
pos = (234,0);
},
{
name = top;
pos = (229,505);
}
);
background = {
guides = (
{
angle = 66.1135;
pos = (55,111);
}
);
shapes = (
{
closed = 1;
nodes = (
(151,529,o),
(63,465,o),
(63,374,cs),
(63,316,o),
(130,265,o),
(230,230,cs),
(301,205,o),
(354,187,o),
(372,143,c),
(360,84,o),
(313,63,o),
(261,63,cs),
(188,63,o),
(126,91,o),
(70,146,c),
(39,76,l),
(88,12,o),
(164,-14,o),
(240,-14,cs),
(241,-14,ls),
(347,-14,o),
(437,52,o),
(437,151,cs),
(437,238,o),
(358,284,o),
(263,316,cs),
(191,340,o),
(146,350,o),
(127,390,c),
(143,437,o),
(182,452,o),
(226,452,cs),
(277,452,o),
(335,432,o),
(390,400,c),
(418,474,l),
(365,511,o),
(310,529,o),
(252,529,cs)
);
}
);
};
guides = (
{
angle = 250.3462;
pos = (187,427);
},
{
angle = -70.3462;
pos = (361,427);
}
);
layerId = "FA803571-32C9-4FEE-972F-1FEF49B82217";
shapes = (
{
closed = 1;
nodes = (
(337,-14,o),
(421,69,o),
(421,139,cs),
(421,215,o),
(344,263,o),
(268,296,cs),
(137,353,o),
(108,377,o),
(101,408,c),
(117,458,o),
(173,486,o),
(234,486,cs),
(286,486,o),
(340,466,o),
(385,425,c),
(398,462,l),
(342,504,o),
(284,518,o),
(231,518,cs),
(144,518,o),
(67,458,o),
(67,397,cs),
(67,343,o),
(165,293,o),
(235,264,cs),
(342,220,o),
(381,173,o),
(387,132,c),
(372,60,o),
(298,17,o),
(230,17,cs),
(175,17,o),
(123,42,o),
(68,95,c),
(55,56,l),
(108,4,o),
(175,-14,o),
(239,-14,cs)
);
}
);
width = 478;
},
{
anchors = (
{
name = bottom;
pos = (252,0);
},
{
name = top;
pos = (294,520);
}
);
guides = (
{
angle = 70.2405;
pos = (176,427);
},
{
angle = -70.3462;
pos = (497,418);
}
);
layerId = "494556E7-144A-4E25-B9FC-0C21051BD184";
shapes = (
{
closed = 1;
nodes = (
(399,-14,o),
(510,34,o),
(510,156,cs),
(510,222,o),
(444,275,o),
(375,312,cs),
(312,345,o),
(246,365,o),
(225,370,c),
(248,381,o),
(272,386,o),
(296,386,cs),
(345,386,o),
(392,365,o),
(434,337,c),
(486,483,l),
(427,509,o),
(359,534,o),
(296,534,cs),
(168,534,o),
(56,479,o),
(56,364,cs),
(56,307,o),
(124,254,o),
(194,215,cs),
(252,182,o),
(311,159,o),
(331,152,c),
(308,141,o),
(282,136,o),
(255,136,cs),
(196,136,o),
(135,160,o),
(92,194,c),
(38,42,l),
(115,-2,o),
(206,-14,o),
(295,-14,cs)
);
}
);
width = 548;
}
);
note = s;
unicode = 115;
userData = {
"terminalChecked_FA803571-32C9-4FEE-972F-1FEF49B82217_385,425 / 398,462" = 0;
"terminalChecked_FA803571-32C9-4FEE-972F-1FEF49B82217_68,95 / 55,56" = 0;
};
},
{
color = 5;
glyphname = t;
kernLeft = t;
kernRight = t;
lastChange = "2026-07-10 13:45:09 +0000";
layers = (
{
anchors = (
{
name = "#strokeshort";
pos = (193,270);
},
{
name = bottom;
pos = (239,0);
},
{
name = topright;
pos = (190,593);
}
);
background = {
shapes = (
{
closed = 1;
nodes = (
(358,448,l),
(380,515,l),
(25,515,l),
(25,448,l)
);
},
{
closed = 1;
nodes = (
(119,139,ls),
(119,54,o),
(137,-14,o),
(215,-14,cs),
(288,-14,o),
(336,7,o),
(383,40,c),
(360,109,l),
(322,84,o),
(266,57,o),
(229,57,c),
(208,78,o),
(205,120,o),
(205,163,cs),
(205,679,l),
(119,679,l)
);
}
);
};
guides = (
{
angle = 250.3462;
pos = (270,427);
},
{
angle = -70.3462;
pos = (245,427);
}
);
layerId = master01;
shapes = (
{
closed = 1;
nodes = (
(288,-14,o),
(336,7,o),
(383,40,c,{
"Letterink-NibData" = {
ValidForParentWidth = 21;
};
}),
(359,109,l,{
"Letterink-NibData" = {
ValidForParentWidth = 21;
};
}),
(321,84,o),
(259,55,o),
(222,56,c,{
"Letterink-NibData" = {
ValidForParentWidth = 21;
};
}),
(210,69,o),
(205,120,o),
(205,163,cs,{
"Letterink-NibData" = {
ValidForParentWidth = 21;
};
}),
(205,448,l),
(356,448,l,{
"Letterink-NibData" = {
ValidForParentWidth = 21;
};
}),
(380,515,l,{
"Letterink-NibData" = {
ValidForParentWidth = 21;
};
}),
(205,515,l),
(205,679,l,{
"Letterink-NibData" = {
ValidForParentWidth = 21;
};
}),
(117,679,l,{
"Letterink-NibData" = {
ValidForParentWidth = 21;
};
}),
(117,515,l),
(25,515,l,{
"Letterink-NibData" = {
ValidForParentWidth = 21;
};
}),
(25,448,l,{
"Letterink-NibData" = {
ValidForParentWidth = 21;
};
}),
(117,448,l),
(117,139,ls,{
"Letterink-NibData" = {
ValidForParentWidth = 21;
};
}),
(117,54,o),
(137,-14,o),
(215,-14,cs,{
"Letterink-NibData" = {
ValidForParentWidth = 21;
};
})
);
}
);
width = 418;
},
{
anchors = (
{
name = "#strokeshort";
pos = (186,270);
},
{
name = bottom;
pos = (252,0);
},
{
name = topright;
pos = (164,585);
}
);
background = {
shapes = (
{
pos = (3,0);
ref = x;
}
);
};
guides = (
{
angle = 90;
pos = (154,475);
},
{
angle = 90;
pos = (36,490);
},
{
angle = 250.3462;
pos = (321,426);
},
{
angle = -70.3462;
pos = (289,426);
}
);
layerId = "FA803571-32C9-4FEE-972F-1FEF49B82217";
shapes = (
{
closed = 1;
nodes = (
(243,-14,o),
(326,17,o),
(364,43,c),
(351,81,l),
(289,42,o),
(228,23,o),
(195,23,c),
(174,44,o),
(173,102,o),
(173,145,cs),
(173,475,l),
(339,475,l),
(349,505,l),
(173,505,l),
(173,680,l),
(135,680,l),
(135,505,l),
(36,505,l),
(36,475,l),
(135,475,l),
(135,147,ls),
(135,80,o),
(143,-14,o),
(204,-14,cs)
);
}
);
width = 403;
},
{
anchors = (
{
name = "#strokeshort";
pos = (221,210);
},
{
name = bottom;
pos = (277,0);
},
{
name = topright;
pos = (233,604);
}
);
guides = (
{
angle = 70.2405;
pos = (447,427);
},
{
angle = -70.3462;
pos = (419,418);
}
);
layerId = "494556E7-144A-4E25-B9FC-0C21051BD184";
shapes = (
{
closed = 1;
nodes = (
(350,-10,o),
(419,19,o),
(486,60,c),
(439,190,l),
(409,170,o),
(367,144,o),
(333,141,c),
(317,158,o),
(313,208,o),
(313,249,cs),
(313,390,l),
(433,390,l),
(480,520,l),
(313,520,l),
(313,669,l),
(113,669,l),
(113,520,l),
(23,520,l),
(23,390,l),
(113,390,l),
(113,229,ls),
(113,69,o),
(162,-10,o),
(268,-10,cs)
);
}
);
width = 504;
}
);
note = t;
unicode = 116;
userData = {
"terminalChecked_FA803571-32C9-4FEE-972F-1FEF49B82217_170,680 / 132,680" = 0;
"terminalChecked_FA803571-32C9-4FEE-972F-1FEF49B82217_33,505 / 33,475" = 0;
"terminalChecked_FA803571-32C9-4FEE-972F-1FEF49B82217_336,475 / 346,505" = 0;
"terminalChecked_FA803571-32C9-4FEE-972F-1FEF49B82217_361,43 / 348,81" = 0;
"terminalChecked_master01_205,679 / 117,679" = 0;
"terminalChecked_master01_25,515 / 25,448" = 0;
"terminalChecked_master01_358,448 / 380,515" = 0;
};
},
{
color = 1;
glyphname = u;
kernLeft = u;
kernRight = u;
lastChange = "2026-07-10 13:44:55 +0000";
layers = (
{
anchors = (
{
name = "#ogonek";
pos = (467,0);
},
{
name = top;
pos = (267,515);
}
);
guides = (
{
angle = 18.3085;
pos = (79,-125);
}
);
layerId = master01;
shapes = (
{
closed = 1;
nodes = (
(225,-14,o),
(333,22,o),
(394,55,c),
(412,-14,l,{
"Letterink-NibData" = {
ValidForParentWidth = 21;
};
}),
(480,9,l,{
"Letterink-NibData" = {
ValidForParentWidth = 21;
};
}),
(472,60,o),
(465,111,o),
(465,167,cs,{
"Letterink-NibData" = {
ValidForParentWidth = 21;
};
}),
(465,515,l,{
"Letterink-NibData" = {
ValidForParentWidth = 21;
};
}),
(377,515,l,{
"Letterink-NibData" = {
ValidForParentWidth = 21;
};
}),
(377,123,l),
(323,92,o),
(220,54,o),
(177,57,c,{
"Letterink-NibData" = {
ValidForParentWidth = 21;
};
}),
(158,77,o),
(156,109,o),
(156,152,cs,{
"Letterink-NibData" = {
ValidForParentWidth = 21;
};
}),
(156,515,l,{
"Letterink-NibData" = {
ValidForParentWidth = 21;
};
}),
(68,515,l,{
"Letterink-NibData" = {
ValidForParentWidth = 21;
};
}),
(68,139,ls,{
"Letterink-NibData" = {
ValidForParentWidth = 21;
};
}),
(68,54,o),
(87,-14,o),
(165,-14,cs,{
"Letterink-NibData" = {
ValidForParentWidth = 21;
};
})
);
}
);
width = 532;
},
{
anchors = (
{
name = "#ogonek";
pos = (380,0);
},
{
name = top;
pos = (262,505);
}
);
guides = (
{
angle = 19.6538;
pos = (522,20);
}
);
layerId = "FA803571-32C9-4FEE-972F-1FEF49B82217";
shapes = (
{
closed = 1;
nodes = (
(210,-15,o),
(337,34,o),
(406,69,c),
(424,-15,l),
(454,-4,l),
(443,47,o),
(439,91,o),
(439,127,cs),
(439,505,l),
(401,505,l),
(401,100,l),
(343,70,o),
(217,20,o),
(164,20,c),
(142,32,o),
(123,70,o),
(123,161,cs),
(123,505,l),
(85,505,l),
(85,138,ls),
(85,55,o),
(115,-15,o),
(171,-15,cs)
);
}
);
width = 539;
},
{
anchors = (
{
name = "#ogonek";
pos = (476,0);
},
{
name = top;
pos = (308,520);
}
);
layerId = "494556E7-144A-4E25-B9FC-0C21051BD184";
shapes = (
{
closed = 1;
nodes = (
(248,-14,o),
(320,19,o),
(378,55,c),
(405,-14,l),
(576,43,l),
(559,123,o),
(550,169,o),
(550,238,cs),
(550,520,l),
(350,520,l),
(350,203,l),
(333,190,o),
(313,181,o),
(286,181,c),
(265,199,o),
(265,248,o),
(265,281,cs),
(265,520,l),
(65,520,l),
(65,174,ls),
(65,60,o),
(94,-14,o),
(194,-14,cs)
);
}
);
width = 611;
}
);
note = u;
unicode = 117;
userData = {
"terminalChecked_FA803571-32C9-4FEE-972F-1FEF49B82217_133,505 / 95,505" = 0;
"terminalChecked_FA803571-32C9-4FEE-972F-1FEF49B82217_434,-14 / 464,-4" = 1;
"terminalChecked_FA803571-32C9-4FEE-972F-1FEF49B82217_434,-15 / 464,-4" = 0;
"terminalChecked_FA803571-32C9-4FEE-972F-1FEF49B82217_449,505 / 411,505" = 0;
"terminalChecked_master01_178,515 / 90,515" = 0;
"terminalChecked_master01_487,515 / 399,515" = 0;
};
},
{
color = 1;
glyphname = v;
kernLeft = v;
kernRight = v;
lastChange = "2026-05-06 14:12:49 +0000";
layers = (
{
layerId = master01;
shapes = (
{
closed = 1;
nodes = (
(300,0,l,{
"Letterink-NibData" = {
ValidForParentWidth = 21;
};
}),
(475,489,l,{
"Letterink-NibData" = {
ValidForParentWidth = 21;
};
}),
(400,515,l,{
"Letterink-NibData" = {
ValidForParentWidth = 21;
};
}),
(262,71,l),
(119,515,l,{
"Letterink-NibData" = {
ValidForParentWidth = 21;
};
}),
(19,515,l,{
"Letterink-NibData" = {
ValidForParentWidth = 21;
};
}),
(210,0,l,{
"Letterink-NibData" = {
ValidForParentWidth = 21;
};
})
);
}
);
width = 497;
},
{
guides = (
{
angle = 160.3462;
pos = (532,467);
}
);
layerId = "FA803571-32C9-4FEE-972F-1FEF49B82217";
shapes = (
{
closed = 1;
nodes = (
(279,0,l),
(463,492,l),
(426,506,l),
(256,33,l),
(77,505,l),
(35,505,l),
(229,0,l)
);
}
);
width = 498;
},
{
layerId = "494556E7-144A-4E25-B9FC-0C21051BD184";
shapes = (
{
closed = 1;
nodes = (
(367,0,l),
(562,473,l),
(378,534,l),
(298,217,l),
(220,520,l),
(3,520,l),
(197,0,l)
);
}
);
width = 565;
}
);
note = v;
unicode = 118;
userData = {
"terminalChecked_FA803571-32C9-4FEE-972F-1FEF49B82217_229,0 / 279,0" = 0;
"terminalChecked_FA803571-32C9-4FEE-972F-1FEF49B82217_463,492 / 426,505" = 1;
"terminalChecked_FA803571-32C9-4FEE-972F-1FEF49B82217_463,492 / 426,506" = 0;
"terminalChecked_FA803571-32C9-4FEE-972F-1FEF49B82217_77,505 / 35,505" = 0;
"terminalChecked_master01_119,515 / 19,515" = 0;
"terminalChecked_master01_210,0 / 300,0" = 0;
"terminalChecked_master01_475,489 / 400,515" = 1;
"terminalChecked_master01_477,490 / 400,515" = 1;
};
},
{
color = 1;
glyphname = w;
kernLeft = v;
kernRight = v;
lastChange = "2026-07-10 13:44:55 +0000";
layers = (
{
anchors = (
{
name = top;
pos = (343,515);
}
);
guides = (
{
angle = -19.6538;
pos = (487,551);
}
);
layerId = master01;
shapes = (
{
closed = 1;
nodes = (
(230,0,l,{
"Letterink-NibData" = {
ValidForParentWidth = 21;
};
}),
(339,398,l),
(457,0,l,{
"Letterink-NibData" = {
ValidForParentWidth = 21;
};
}),
(547,0,l,{
"Letterink-NibData" = {
ValidForParentWidth = 21;
};
}),
(661,489,l,{
"Letterink-NibData" = {
ValidForParentWidth = 21;
};
}),
(586,515,l,{
"Letterink-NibData" = {
ValidForParentWidth = 21;
};
}),
(505,79,l),
(392,515,l,{
"Letterink-NibData" = {
ValidForParentWidth = 21;
};
}),
(302,515,l,{
"Letterink-NibData" = {
ValidForParentWidth = 21;
};
}),
(195,105,l),
(119,515,l,{
"Letterink-NibData" = {
ValidForParentWidth = 21;
};
}),
(19,515,l,{
"Letterink-NibData" = {
ValidForParentWidth = 21;
};
}),
(140,0,l,{
"Letterink-NibData" = {
ValidForParentWidth = 21;
};
})
);
}
);
width = 683;
},
{
anchors = (
{
name = top;
pos = (333,505);
}
);
background = {
shapes = (
{
ref = v;
}
);
};
guides = (
{
angle = 160.3462;
pos = (433,560);
}
);
layerId = "FA803571-32C9-4FEE-972F-1FEF49B82217";
shapes = (
{
closed = 1;
nodes = (
(209,0,l),
(331,449,l),
(449,0,l),
(499,0,l),
(622,493,l),
(584,506,l),
(476,44,l),
(354,505,l),
(316,505,l),
(189,46,l),
(77,505,l),
(35,505,l),
(159,0,l)
);
}
);
width = 657;
},
{
anchors = (
{
name = top;
pos = (416,520);
}
);
layerId = "494556E7-144A-4E25-B9FC-0C21051BD184";
shapes = (
{
closed = 1;
nodes = (
(365,0,l),
(417,186,l),
(469,0,l),
(639,0,l),
(798,473,l),
(613,534,l),
(551,250,l),
(497,520,l),
(336,520,l),
(276,250,l),
(219,520,l),
(3,520,l),
(195,0,l)
);
}
);
width = 801;
}
);
metricLeft = v;
metricRight = v;
note = w;
unicode = 119;
userData = {
"terminalChecked_FA803571-32C9-4FEE-972F-1FEF49B82217_159,0 / 209,0" = 0;
"terminalChecked_FA803571-32C9-4FEE-972F-1FEF49B82217_354,505 / 316,505" = 0;
"terminalChecked_FA803571-32C9-4FEE-972F-1FEF49B82217_449,0 / 499,0" = 0;
"terminalChecked_FA803571-32C9-4FEE-972F-1FEF49B82217_622,493 / 584,505" = 1;
"terminalChecked_FA803571-32C9-4FEE-972F-1FEF49B82217_622,493 / 584,506" = 0;
"terminalChecked_FA803571-32C9-4FEE-972F-1FEF49B82217_77,505 / 35,505" = 0;
"terminalChecked_master01_119,515 / 19,515" = 0;
"terminalChecked_master01_140,0 / 230,0" = 0;
"terminalChecked_master01_392,515 / 302,515" = 0;
"terminalChecked_master01_457,0 / 547,0" = 0;
"terminalChecked_master01_661,489 / 586,515" = 0;
"terminalChecked_master01_665,490 / 586,515" = 1;
};
},
{
color = 1;
glyphname = x;
kernLeft = x;
lastChange = "2026-05-06 13:17:42 +0000";
layers = (
{
guides = (
{
angle = 160.3462;
pos = (462,489);
},
{
angle = -19.6538;
pos = (472,487);
},
{
angle = 19.6538;
pos = (477,462);
}
);
layerId = master01;
shapes = (
{
closed = 1;
nodes = (
(491,0,l,{
"Letterink-NibData" = {
ValidForParentWidth = 21;
};
}),
(302,262,l),
(464,489,l,{
"Letterink-NibData" = {
ValidForParentWidth = 21;
};
}),
(389,515,l,{
"Letterink-NibData" = {
ValidForParentWidth = 21;
};
}),
(263,319,l),
(135,516,l,{
"Letterink-NibData" = {
ValidForParentWidth = 21;
};
}),
(30,516,l,{
"Letterink-NibData" = {
ValidForParentWidth = 21;
};
}),
(208,263,l),
(21,0,l,{
"Letterink-NibData" = {
ValidForParentWidth = 21;
};
}),
(113,0,l,{
"Letterink-NibData" = {
ValidForParentWidth = 21;
};
}),
(248,204,l),
(381,0,l,{
"Letterink-NibData" = {
ValidForParentWidth = 21;
};
})
);
}
);
width = 501;
},
{
guides = (
{
angle = 160.3462;
pos = (433,499);
}
);
layerId = "FA803571-32C9-4FEE-972F-1FEF49B82217";
shapes = (
{
closed = 1;
nodes = (
(457,0,l),
(280,256,l),
(452,492,l),
(414,506,l),
(262,282,l),
(111,505,l),
(63,505,l),
(237,254,l),
(55,0,l),
(97,0,l),
(255,228,l),
(409,0,l)
);
}
);
width = 512;
},
{
layerId = "494556E7-144A-4E25-B9FC-0C21051BD184";
shapes = (
{
closed = 1;
nodes = (
(590,0,l),
(395,264,l),
(543,463,l),
(374,520,l),
(306,403,l),
(232,520,l),
(12,520,l),
(192,270,l),
(2,0,l),
(217,0,l),
(285,130,l),
(365,0,l)
);
}
);
width = 595;
}
);
note = x;
unicode = 120;
userData = {
"terminalChecked_FA803571-32C9-4FEE-972F-1FEF49B82217_111,505 / 63,505" = 0;
"terminalChecked_FA803571-32C9-4FEE-972F-1FEF49B82217_409,0 / 457,0" = 0;
"terminalChecked_FA803571-32C9-4FEE-972F-1FEF49B82217_452,492 / 414,505" = 1;
"terminalChecked_FA803571-32C9-4FEE-972F-1FEF49B82217_452,492 / 414,506" = 0;
"terminalChecked_FA803571-32C9-4FEE-972F-1FEF49B82217_55,0 / 97,0" = 0;
"terminalChecked_master01_135,516 / 30,515" = 1;
"terminalChecked_master01_135,516 / 30,516" = 0;
"terminalChecked_master01_21,0 / 113,0" = 0;
"terminalChecked_master01_381,0 / 491,0" = 0;
"terminalChecked_master01_464,489 / 389,515" = 1;
"terminalChecked_master01_465,490 / 389,515" = 1;
};
},
{
color = 1;
glyphname = y;
kernLeft = v;
kernRight = v;
lastChange = "2026-07-10 13:44:55 +0000";
layers = (
{
anchors = (
{
name = top;
pos = (258,515);
}
);
guides = (
{
angle = 160.3462;
pos = (462,500);
}
);
layerId = master01;
shapes = (
{
closed = 1;
nodes = (
(226,-230,l,{
"Letterink-NibData" = {
ValidForParentWidth = 21;
};
}),
(296,37,l,{
"Letterink-NibData" = {
ValidForParentWidth = 21;
};
}),
(495,489,l,{
"Letterink-NibData" = {
ValidForParentWidth = 21;
};
}),
(420,515,l,{
"Letterink-NibData" = {
ValidForParentWidth = 21;
};
}),
(269,123,l),
(119,515,l,{
"Letterink-NibData" = {
ValidForParentWidth = 21;
};
}),
(19,515,l,{
"Letterink-NibData" = {
ValidForParentWidth = 21;
};
}),
(221,40,l,{
"Letterink-NibData" = {
ValidForParentWidth = 21;
};
}),
(126,-230,l,{
"Letterink-NibData" = {
ValidForParentWidth = 21;
};
})
);
}
);
width = 517;
},
{
anchors = (
{
name = top;
pos = (260,505);
}
);
background = {
shapes = (
{
closed = 1;
nodes = (
(425,520,l),
(233,74,l),
(282,74,l),
(108,514,l),
(3,514,l),
(203,40,l),
(83,-228,l),
(190,-230,l),
(283,37,l),
(498,495,l)
);
}
);
};
guides = (
{
angle = 160.3462;
pos = (433,512);
}
);
layerId = "FA803571-32C9-4FEE-972F-1FEF49B82217";
shapes = (
{
closed = 1;
nodes = (
(190,-230,l),
(267,47,l),
(487,493,l),
(450,506,l),
(253,93,l),
(79,505,l),
(35,505,l),
(232,50,l),
(148,-230,l)
);
}
);
width = 522;
},
{
anchors = (
{
name = top;
pos = (316,520);
}
);
layerId = "494556E7-144A-4E25-B9FC-0C21051BD184";
shapes = (
{
closed = 1;
nodes = (
(311,-230,l),
(387,46,l),
(621,473,l),
(439,534,l),
(321,229,l),
(220,520,l),
(3,520,l),
(217,46,l),
(97,-230,l)
);
}
);
width = 624;
}
);
metricLeft = v;
metricRight = v;
note = y;
unicode = 121;
userData = {
"terminalChecked_FA803571-32C9-4FEE-972F-1FEF49B82217_148,-230 / 190,-230" = 0;
"terminalChecked_FA803571-32C9-4FEE-972F-1FEF49B82217_487,493 / 450,505" = 1;
"terminalChecked_FA803571-32C9-4FEE-972F-1FEF49B82217_487,493 / 450,506" = 0;
"terminalChecked_FA803571-32C9-4FEE-972F-1FEF49B82217_79,505 / 35,505" = 0;
"terminalChecked_master01_119,515 / 19,515" = 0;
"terminalChecked_master01_126,-230 / 226,-230" = 0;
"terminalChecked_master01_495,489 / 420,515" = 1;
"terminalChecked_master01_497,490 / 420,515" = 1;
};
},
{
color = 1;
glyphname = z;
kernLeft = z;
kernRight = z;
lastChange = "2026-07-10 13:44:55 +0000";
layers = (
{
anchors = (
{
name = top;
pos = (269,515);
}
);
background = {
shapes = (
{
closed = 1;
nodes = (
(460,456,l),
(370,472,l),
(52,61,l),
(162,63,l)
);
},
{
closed = 1;
nodes = (
(465,0,l),
(489,71,l),
(52,61,l),
(74,0,l)
);
},
{
closed = 1;
nodes = (
(460,456,l),
(439,515,l),
(58,515,l),
(58,446,l)
);
}
);
};
guides = (
{
angle = -70.3462;
pos = (-79,427);
},
{
angle = 250.3462;
pos = (616,427);
}
);
layerId = master01;
shapes = (
{
closed = 1;
nodes = (
(73,0,l,{
"Letterink-NibData" = {
ValidForParentWidth = 21;
};
}),
(464,0,l,{
"Letterink-NibData" = {
ValidForParentWidth = 21;
};
}),
(489,74,l,{
"Letterink-NibData" = {
ValidForParentWidth = 21;
};
}),
(162,60,l,{
"Letterink-NibData" = {
ValidForParentWidth = 21;
};
}),
(460,456,l,{
"Letterink-NibData" = {
ValidForParentWidth = 21;
};
}),
(439,515,l,{
"Letterink-NibData" = {
ValidForParentWidth = 21;
};
}),
(58,515,l,{
"Letterink-NibData" = {
ValidForParentWidth = 21;
};
}),
(58,443,l,{
"Letterink-NibData" = {
ValidForParentWidth = 21;
};
}),
(356,455,l),
(52,61,l,{
"Letterink-NibData" = {
ValidForParentWidth = 21;
};
})
);
}
);
width = 525;
},
{
anchors = (
{
name = top;
pos = (269,505);
}
);
background = {
guides = (
{
angle = 109.5923;
pos = (452,486);
},
{
angle = 109.8321;
pos = (65,31);
}
);
shapes = (
{
closed = 1;
nodes = (
(452,478,l),
(416,494,l),
(67,28,l),
(114,28,l)
);
},
{
closed = 1;
nodes = (
(452,478,l),
(442,505,l),
(60,505,l),
(60,472,l)
);
},
{
closed = 1;
nodes = (
(459,0,l),
(459,34,l),
(67,28,l),
(77,0,l)
);
}
);
};
guides = (
{
angle = -70.3462;
pos = (470,427);
},
{
angle = -70.3462;
pos = (-75,427);
},
{
angle = 250.3462;
pos = (599,427);
}
);
layerId = "FA803571-32C9-4FEE-972F-1FEF49B82217";
shapes = (
{
closed = 1;
nodes = (
(78,0,l),
(447,0,l),
(461,41,l),
(115,30,l),
(452,478,l),
(442,505,l),
(60,505,l),
(60,465,l),
(403,476,l),
(67,28,l)
);
}
);
width = 511;
},
{
anchors = (
{
name = top;
pos = (297,520);
}
);
guides = (
{
angle = 108.3187;
pos = (470,447);
}
);
layerId = "494556E7-144A-4E25-B9FC-0C21051BD184";
shapes = (
{
closed = 1;
nodes = (
(84,0,l),
(460,0,l),
(514,162,l),
(267,157,l),
(494,373,l),
(445,521,l),
(39,521,l),
(39,361,l),
(259,367,l),
(33,152,l)
);
}
);
width = 527;
}
);
note = z;
unicode = 122;
userData = {
"terminalChecked_FA803571-32C9-4FEE-972F-1FEF49B82217_447,0 / 461,41" = 0;
"terminalChecked_FA803571-32C9-4FEE-972F-1FEF49B82217_448,0 / 461,41" = 1;
"terminalChecked_FA803571-32C9-4FEE-972F-1FEF49B82217_452,478 / 442,505" = 0;
"terminalChecked_FA803571-32C9-4FEE-972F-1FEF49B82217_452,478 / 443,505" = 0;
"terminalChecked_FA803571-32C9-4FEE-972F-1FEF49B82217_60,505 / 60,465" = 0;
"terminalChecked_FA803571-32C9-4FEE-972F-1FEF49B82217_67,28 / 77,0" = 0;
"terminalChecked_FA803571-32C9-4FEE-972F-1FEF49B82217_67,28 / 78,0" = 0;
"terminalChecked_master01_460,456 / 439,515" = 0;
"terminalChecked_master01_460,456 / 441,515" = 1;
"terminalChecked_master01_464,0 / 489,74" = 0;
"terminalChecked_master01_465,0 / 489,71" = 0;
"terminalChecked_master01_52,61 / 72,0" = 1;
"terminalChecked_master01_52,61 / 73,0" = 0;
"terminalChecked_master01_58,515 / 58,443" = 0;
"terminalChecked_master01_58,515 / 58,446" = 0;
};
},
{
color = 5;
glyphname = zero;
kernLeft = zero;
kernRight = zero;
lastChange = "2026-05-13 14:08:08 +0000";
layers = (
{
background = {
shapes = (
{
closed = 1;
nodes = (
(455,-14,o),
(549,92,o),
(549,358,cs,{
"Letterink-NibData" = {
ValidForParentWidth = "21";
};
}),
(549,630,o),
(463,750,o),
(301,750,cs,{
"Letterink-NibData" = {
ValidForParentWidth = "21";
};
}),
(139,750,o),
(45,644,o),
(45,378,cs,{
"Letterink-NibData" = {
ValidForParentWidth = "21";
};
}),
(45,106,o),
(131,-14,o),
(293,-14,cs,{
"Letterink-NibData" = {
ValidForParentWidth = "21";
};
})
);
},
{
closed = 1;
nodes = (
(183,53,o),
(133,172,o),
(133,410,cs,{
"Letterink-NibData" = {
ValidForParentWidth = "21";
};
}),
(133,609,o),
(170,683,o),
(281,683,cs,{
"Letterink-NibData" = {
ValidForParentWidth = "21";
};
}),
(411,683,o),
(461,564,o),
(461,326,cs,{
"Letterink-NibData" = {
ValidForParentWidth = "21";
};
}),
(461,127,o),
(424,53,o),
(313,53,cs,{
"Letterink-NibData" = {
ValidForParentWidth = "21";
};
})
);
}
);
};
layerId = master01;
shapes = (
{
closed = 1;
nodes = (
(455,-14,o),
(549,92,o),
(549,358,cs,{
"Letterink-NibData" = {
ValidForParentWidth = 21;
};
}),
(549,628,o),
(463,748,o),
(301,748,cs,{
"Letterink-NibData" = {
ValidForParentWidth = 21;
};
}),
(139,748,o),
(45,642,o),
(45,378,cs,{
"Letterink-NibData" = {
ValidForParentWidth = 21;
};
}),
(45,106,o),
(131,-14,o),
(293,-14,cs,{
"Letterink-NibData" = {
ValidForParentWidth = 21;
};
})
);
},
{
closed = 1;
nodes = (
(183,53,o),
(133,172,o),
(133,410,cs,{
"Letterink-NibData" = {
ValidForParentWidth = 21;
};
}),
(133,607,o),
(170,681,o),
(281,681,cs,{
"Letterink-NibData" = {
ValidForParentWidth = 21;
};
}),
(411,681,o),
(461,562,o),
(461,326,cs,{
"Letterink-NibData" = {
ValidForParentWidth = 21;
};
}),
(461,127,o),
(424,53,o),
(313,53,cs,{
"Letterink-NibData" = {
ValidForParentWidth = 21;
};
})
);
}
);
width = 594;
},
{
background = {
shapes = (
{
closed = 1;
nodes = (
(462,-11,o),
(536,68,o),
(536,246,cs),
(536,406,o),
(462,530,o),
(306,530,cs),
(144,530,o),
(70,451,o),
(70,273,cs),
(70,113,o),
(144,-11,o),
(300,-11,cs)
);
},
{
closed = 1;
nodes = (
(160,24,o),
(112,141,o),
(112,304,cs),
(112,424,o),
(159,495,o),
(294,495,cs),
(446,495,o),
(494,378,o),
(494,215,cs),
(494,95,o),
(447,24,o),
(312,24,cs)
);
}
);
};
layerId = "FA803571-32C9-4FEE-972F-1FEF49B82217";
shapes = (
{
closed = 1;
nodes = (
(462,-14,o),
(536,97,o),
(536,349,cs),
(536,573,o),
(462,748,o),
(306,748,cs),
(144,748,o),
(70,637,o),
(70,387,cs),
(70,161,o),
(144,-14,o),
(300,-14,cs)
);
},
{
closed = 1;
nodes = (
(160,24,o),
(112,188,o),
(112,430,cs),
(112,603,o),
(159,710,o),
(294,710,cs),
(446,710,o),
(494,546,o),
(494,306,cs),
(494,131,o),
(447,24,o),
(312,24,cs)
);
}
);
width = 616;
},
{
layerId = "494556E7-144A-4E25-B9FC-0C21051BD184";
shapes = (
{
closed = 1;
nodes = (
(571,-14,o),
(631,162,o),
(631,366,cs),
(631,597,o),
(547,748,o),
(335,748,cs),
(93,748,o),
(33,569,o),
(33,366,cs),
(33,134,o),
(117,-14,o),
(329,-14,cs)
);
},
{
closed = 1;
nodes = (
(244,140,o),
(198,229,o),
(198,408,cs),
(198,540,o),
(229,595,o),
(316,595,cs),
(419,595,o),
(465,506,o),
(465,328,cs),
(465,195,o),
(434,140,o),
(348,140,cs)
);
}
);
width = 664;
}
);
note = zero;
unicode = 48;
},
{
color = 5;
glyphname = one;
kernLeft = one;
kernRight = one;
lastChange = "2026-05-13 14:40:17 +0000";
layers = (
{
background = {
shapes = (
{
closed = 1;
nodes = (
(225,735,l),
(186,702,o),
(111,667,o),
(61,654,c),
(81,593,l),
(160,611,l),
(249,611,l),
(249,735,l)
);
}
);
};
guides = (
{
angle = 250.3462;
pos = (148,427);
},
{
angle = -70.3462;
pos = (123,422);
}
);
layerId = master01;
shapes = (
{
closed = 1;
nodes = (
(249,-2,l,{
"Letterink-NibData" = {
ValidForParentWidth = 21;
};
}),
(249,610,l,{
"Letterink-NibData" = {
ValidForParentWidth = 21;
};
}),
(249,685,l,{
"Letterink-NibData" = {
ValidForParentWidth = 21;
};
}),
(249,734,l,{
"Letterink-NibData" = {
ValidForParentWidth = 21;
};
}),
(225,734,l,{
"Letterink-NibData" = {
ValidForParentWidth = 21;
};
}),
(180,696,o),
(123,674,o),
(43,645,c),
(74,558,l),
(97,571,o),
(133,585,o),
(161,592,c),
(161,-2,l,{
"Letterink-NibData" = {
ValidForParentWidth = 21;
};
})
);
}
);
width = 359;
},
{
background = {
shapes = (
{
closed = 1;
nodes = (
(234,-2,l),
(234,455,l),
(196,455,l),
(196,-2,l)
);
},
{
closed = 1;
nodes = (
(117,391,o),
(164,420,o),
(205,436,c),
(205,447,l),
(234,447,l),
(234,505,l),
(210,505,l),
(180,469,o),
(117,432,o),
(75,415,c),
(88,373,l)
);
}
);
};
guides = (
{
angle = 250.3462;
pos = (175,427);
},
{
angle = -70.3462;
pos = (143,427);
}
);
layerId = "FA803571-32C9-4FEE-972F-1FEF49B82217";
shapes = (
{
closed = 1;
nodes = (
(224,-2,l),
(224,677,l),
(224,685,l),
(224,735,l),
(200,735,l),
(170,699,o),
(107,662,o),
(65,645,c),
(80,603,l),
(106,619,o),
(148,646,o),
(186,662,c),
(186,-2,l)
);
}
);
width = 354;
},
{
guides = (
{
angle = -70.3462;
pos = (98,427);
}
);
layerId = "494556E7-144A-4E25-B9FC-0C21051BD184";
shapes = (
{
closed = 1;
nodes = (
(348,-2,l),
(348,556,l),
(348,685,l),
(348,750,l),
(209,750,l),
(168,713,o),
(90,679,o),
(18,652,c),
(78,484,l),
(98,496,o),
(131,515,o),
(148,523,c),
(148,-2,l)
);
}
);
width = 446;
}
);
note = one;
unicode = 49;
userData = {
"terminalChecked_FA803571-32C9-4FEE-972F-1FEF49B82217_161,-2 / 199,-2" = 0;
"terminalChecked_FA803571-32C9-4FEE-972F-1FEF49B82217_199,677 / 199,685" = 0;
"terminalChecked_FA803571-32C9-4FEE-972F-1FEF49B82217_199,735 / 175,735" = 0;
"terminalChecked_master01_161,-2 / 249,-2" = 0;
"terminalChecked_master01_249,734 / 225,734" = 0;
};
},
{
color = 5;
glyphname = two;
lastChange = "2026-05-13 13:57:35 +0000";
layers = (
{
guides = (
{
angle = 250.3462;
pos = (614,427);
},
{
angle = -70.3462;
pos = (589,422);
},
{
angle = 109.7468;
pos = (50,39);
}
);
layerId = master01;
shapes = (
{
closed = 1;
nodes = (
(461,0,l,{
"Letterink-NibData" = {
ValidForParentWidth = "21";
};
}),
(493,87,l,{
"Letterink-NibData" = {
ValidForParentWidth = "21";
};
}),
(125,65,l),
(280,233,o),
(477,381,o),
(477,522,cs,{
"Letterink-NibData" = {
ValidForParentWidth = 21;
};
}),
(477,671,o),
(366,750,o),
(242,750,cs,{
"Letterink-NibData" = {
ValidForParentWidth = 21;
};
}),
(191,750,o),
(101,714,o),
(57,681,c),
(85,605,l),
(130,631,o),
(213,675,o),
(264,680,c,{
"Letterink-NibData" = {
ValidForParentWidth = 21;
};
}),
(336,670,o),
(389,595,o),
(389,523,cs,{
"Letterink-NibData" = {
ValidForParentWidth = 21;
};
}),
(389,416,o),
(234,302,o),
(36,78,c,{
"Letterink-NibData" = {
ValidForParentWidth = "21";
};
}),
(64,0,l,{
"Letterink-NibData" = {
ValidForParentWidth = "21";
};
})
);
}
);
width = 541;
},
{
guides = (
{
angle = 250.3462;
pos = (621,427);
},
{
angle = -70.3462;
pos = (589,427);
},
{
angle = 250.3462;
pos = (-40,427);
},
{
angle = -70.3462;
pos = (-72,427);
}
);
layerId = "FA803571-32C9-4FEE-972F-1FEF49B82217";
shapes = (
{
closed = 1;
nodes = (
(468,0,l),
(483,41,l),
(117,30,l),
(249,163,o),
(478,440,o),
(478,578,cs),
(478,683,o),
(378,750,o),
(295,750,cs),
(233,750,o),
(139,720,o),
(79,689,c),
(93,650,l),
(136,676,o),
(207,709,o),
(290,719,c),
(373,700,o),
(435,663,o),
(435,569,cs),
(435,445,o),
(230,210,o),
(70,29,c),
(80,0,l)
);
}
);
width = 563;
},
{
background = {
shapes = (
{
closed = 1;
nodes = (
(488,0,l),
(547,166,l),
(240,155,l),
(256,140,l),
(418,248,o),
(526,402,o),
(526,529,c),
(526,671,o),
(411,748,o),
(265,748,c),
(188,748,o),
(105,709,o),
(37,660,c),
(95,502,l),
(129,529,o),
(196,579,o),
(241,589,c),
(291,581,o),
(333,536,o),
(333,466,cs),
(333,338,o),
(210,269,o),
(42,147,c),
(94,0,l)
);
}
);
};
guides = (
{
angle = -70.3462;
pos = (-60,427);
},
{
angle = 250.3462;
pos = (638,427);
},
{
angle = 181.3062;
pos = (392,163);
},
{
angle = -70.3462;
pos = (119,427);
},
{
angle = 182.251;
pos = (332,158);
},
{
angle = 30.7453;
pos = (150,536);
},
{
angle = 250.3462;
pos = (-28,427);
},
{
angle = -70.3462;
pos = (-60,427);
}
);
layerId = "494556E7-144A-4E25-B9FC-0C21051BD184";
shapes = (
{
closed = 1;
nodes = (
(486,0,l),
(545,166,l),
(278,156,l),
(426,263,o),
(524,408,o),
(524,529,cs),
(524,671,o),
(409,748,o),
(263,748,cs),
(186,748,o),
(103,709,o),
(35,660,c),
(93,502,l),
(127,529,o),
(194,579,o),
(239,589,c),
(289,581,o),
(331,536,o),
(331,466,cs),
(331,338,o),
(208,269,o),
(40,147,c),
(92,0,l)
);
}
);
width = 593;
}
);
note = two;
unicode = 50;
userData = {
"terminalChecked_FA803571-32C9-4FEE-972F-1FEF49B82217_30,29 / 40,0" = 0;
"terminalChecked_FA803571-32C9-4FEE-972F-1FEF49B82217_39,689 / 53,650" = 0;
"terminalChecked_FA803571-32C9-4FEE-972F-1FEF49B82217_428,0 / 443,41" = 0;
"terminalChecked_master01_36,78 / 62,0" = 0;
"terminalChecked_master01_463,0 / 493,87" = 0;
};
},
{
color = 5;
glyphname = three;
kernLeft = three;
kernRight = three;
lastChange = "2026-05-13 14:33:56 +0000";
layers = (
{
guides = (
{
angle = 250.3462;
pos = (174,427);
},
{
angle = -70.3462;
pos = (149,422);
}
);
layerId = master01;
shapes = (
{
closed = 1;
nodes = (
(371,-14,o),
(466,82,o),
(466,207,cs,{
"Letterink-NibData" = {
ValidForParentWidth = 21;
};
}),
(466,297,o),
(398,377,o),
(314,400,c,{
"Letterink-NibData" = {
ValidForParentWidth = 21;
};
}),
(377,426,o),
(447,485,o),
(447,562,cs,{
"Letterink-NibData" = {
ValidForParentWidth = 21;
};
}),
(447,677,o),
(359,748,o),
(241,748,cs,{
"Letterink-NibData" = {
ValidForParentWidth = 21;
};
}),
(190,748,o),
(100,712,o),
(56,679,c),
(83,603,l),
(128,629,o),
(210,670,o),
(261,678,c,{
"Letterink-NibData" = {
ValidForParentWidth = "21";
};
}),
(320,670,o),
(359,618,o),
(359,563,cs,{
"Letterink-NibData" = {
ValidForParentWidth = 21;
};
}),
(359,478,o),
(282,435,o),
(152,414,c),
(178,341,l),
(199,345,o),
(228,351,o),
(249,354,c,{
"Letterink-NibData" = {
ValidForParentWidth = 21;
};
}),
(322,337,o),
(378,281,o),
(378,207,cs,{
"Letterink-NibData" = {
ValidForParentWidth = 21;
};
}),
(378,107,o),
(330,53,o),
(219,53,c,{
"Letterink-NibData" = {
ValidForParentWidth = 21;
};
}),
(179,61,o),
(98,102,o),
(54,134,c),
(27,58,l),
(71,25,o),
(160,-14,o),
(226,-14,cs,{
"Letterink-NibData" = {
ValidForParentWidth = 21;
};
})
);
}
);
width = 511;
},
{
guides = (
{
angle = 250.3462;
pos = (214,427);
},
{
angle = -70.3462;
pos = (182,427);
}
);
layerId = "FA803571-32C9-4FEE-972F-1FEF49B82217";
shapes = (
{
closed = 1;
nodes = (
(388,-12,o),
(476,75,o),
(476,197,cs),
(476,283,o),
(397,376,o),
(312,396,c),
(414,425,o),
(457,509,o),
(457,578,cs),
(457,683,o),
(357,750,o),
(284,750,cs),
(225,750,o),
(145,722,o),
(87,693,c),
(101,654,l),
(142,673,o),
(196,705,o),
(275,718,c),
(347,714,o),
(414,664,o),
(414,569,cs),
(414,465,o),
(320,414,o),
(194,392,c),
(207,353,l),
(230,360,o),
(258,366,o),
(274,366,c),
(360,345,o),
(433,285,o),
(433,197,cs),
(433,89,o),
(350,28,o),
(256,20,c),
(175,37,o),
(120,80,o),
(79,112,c),
(64,72,l),
(105,33,o),
(182,-12,o),
(253,-12,cs)
);
}
);
width = 576;
},
{
guides = (
{
angle = -70.3462;
pos = (115,427);
},
{
angle = 250.3462;
pos = (138,427);
},
{
angle = 90;
pos = (281,526);
},
{
angle = 90;
pos = (67,525);
},
{
angle = 30.7453;
pos = (140,555);
}
);
layerId = "494556E7-144A-4E25-B9FC-0C21051BD184";
shapes = (
{
closed = 1;
nodes = (
(361,-14,o),
(485,67,o),
(485,206,cs),
(485,289,o),
(440,367,o),
(354,396,c),
(417,422,o),
(467,484,o),
(467,561,cs),
(467,688,o),
(364,748,o),
(244,748,cs),
(170,748,o),
(90,725,o),
(25,680,c),
(82,519,l),
(124,546,o),
(159,573,o),
(198,588,c),
(229,583,o),
(281,565,o),
(281,525,cs),
(281,474,o),
(201,442,o),
(113,431,c),
(160,300,l),
(176,305,o),
(212,310,o),
(226,311,c),
(252,300,o),
(282,282,o),
(282,235,cs),
(282,185,o),
(247,148,o),
(198,148,c),
(154,166,o),
(108,195,o),
(66,226,c),
(8,67,l),
(78,7,o),
(150,-14,o),
(229,-14,cs)
);
}
);
width = 503;
}
);
note = three;
unicode = 51;
userData = {
"terminalChecked_FA803571-32C9-4FEE-972F-1FEF49B82217_49,112 / 35,72" = 0;
"terminalChecked_FA803571-32C9-4FEE-972F-1FEF49B82217_57,693 / 71,654" = 0;
};
},
{
color = 5;
glyphname = four;
kernLeft = four;
kernRight = four;
lastChange = "2026-05-13 14:32:36 +0000";
layers = (
{
background = {
shapes = (
{
closed = 0;
nodes = (
(424,736,l),
(445,675,l)
);
}
);
};
guides = (
{
angle = 250.3462;
pos = (680,427);
},
{
angle = -70.3462;
pos = (655,422);
}
);
layerId = master01;
shapes = (
{
closed = 1;
nodes = (
(357,183,l),
(357,-2,l,{
"Letterink-NibData" = {
ValidForParentWidth = 21;
};
}),
(445,-2,l,{
"Letterink-NibData" = {
ValidForParentWidth = 21;
};
}),
(445,183,l),
(593,183,l,{
"Letterink-NibData" = {
ValidForParentWidth = 21;
};
}),
(625,272,l,{
"Letterink-NibData" = {
ValidForParentWidth = 21;
};
}),
(445,262,l),
(445,735,l,{
"Letterink-NibData" = {
ValidForParentWidth = 21;
};
}),
(357,735,l,{
"Letterink-NibData" = {
ValidForParentWidth = 21;
};
}),
(20,244,l,{
"Letterink-NibData" = {
ValidForParentWidth = 21;
};
}),
(41,183,l,{
"Letterink-NibData" = {
ValidForParentWidth = 21;
};
})
);
},
{
closed = 1;
nodes = (
(357,614,l),
(357,257,l),
(101,243,l)
);
}
);
width = 654;
},
{
background = {
shapes = (
{
closed = 1;
nodes = (
(572,219,l),
(586,260,l),
(74,246,l),
(93,227,l),
(409,716,l),
(378,736,l),
(62,249,l),
(72,219,l)
);
},
{
closed = 1;
nodes = (
(416,-2,l),
(416,736,l),
(378,736,l),
(378,-2,l)
);
}
);
};
guides = (
{
pos = (277,732);
},
{
angle = 250.3462;
pos = (646,427);
},
{
angle = -70.3462;
pos = (614,427);
}
);
layerId = "FA803571-32C9-4FEE-972F-1FEF49B82217";
shapes = (
{
closed = 1;
nodes = (
(378,219,l),
(378,-2,l),
(416,-2,l),
(416,219,l),
(572,219,l),
(586,260,l),
(416,255,l),
(416,736,l),
(378,736,l),
(62,249,l),
(72,219,l)
);
},
{
closed = 1;
nodes = (
(378,668,l),
(378,254,l),
(106,247,l)
);
}
);
width = 642;
},
{
guides = (
{
angle = -70.3462;
pos = (-27,427);
},
{
angle = 250.3462;
pos = (682,427);
},
{
angle = 182.251;
pos = (332,326);
}
);
layerId = "494556E7-144A-4E25-B9FC-0C21051BD184";
shapes = (
{
closed = 1;
nodes = (
(321,173,l),
(321,-2,l),
(521,-2,l),
(521,173,l),
(591,173,l),
(650,338,l),
(521,333,l),
(521,736,l),
(321,736,l),
(18,303,l),
(65,173,l)
);
},
{
closed = 1;
nodes = (
(321,511,l),
(321,326,l),
(188,321,l)
);
}
);
width = 668;
}
);
note = four;
unicode = 52;
userData = {
"terminalChecked_FA803571-32C9-4FEE-972F-1FEF49B82217_358,-2 / 396,-2" = 0;
"terminalChecked_FA803571-32C9-4FEE-972F-1FEF49B82217_396,736 / 358,736" = 0;
"terminalChecked_FA803571-32C9-4FEE-972F-1FEF49B82217_42,249 / 54,219" = 0;
"terminalChecked_FA803571-32C9-4FEE-972F-1FEF49B82217_554,219 / 566,260" = 0;
"terminalChecked_master01_10,244 / 32,183" = 0;
"terminalChecked_master01_347,-2 / 435,-2" = 0;
"terminalChecked_master01_435,735 / 347,735" = 0;
"terminalChecked_master01_586,183 / 615,272" = 0;
};
},
{
color = 5;
glyphname = five;
kernLeft = five;
kernRight = five;
lastChange = "2026-05-13 14:30:42 +0000";
layers = (
{
background = {
shapes = (
{
closed = 1;
nodes = (
(394,-14,o),
(496,94,o),
(496,235,cs,{
"Letterink-NibData" = {
ValidForParentWidth = "21";
};
}),
(496,363,o),
(409,467,o),
(242,467,cs,{
"Letterink-NibData" = {
ValidForParentWidth = "21";
};
}),
(222,467,o),
(201,465,o),
(179,461,c,{
"Letterink-NibData" = {
ValidForParentWidth = "21";
};
}),
(234,703,l,{
"Letterink-NibData" = {
ValidForParentWidth = "21";
};
}),
(179,667,l,{
"Letterink-NibData" = {
ValidForParentWidth = "21";
};
}),
(459,650,l,{
"Letterink-NibData" = {
ValidForParentWidth = "21";
};
}),
(490,736,l,{
"Letterink-NibData" = {
ValidForParentWidth = "21";
};
}),
(157,736,l,{
"Letterink-NibData" = {
ValidForParentWidth = "21";
};
}),
(91,428,l,{
"Letterink-NibData" = {
ValidForParentWidth = "21";
};
}),
(112,369,l,{
"Letterink-NibData" = {
ValidForParentWidth = "21";
};
}),
(150,381,o),
(188,387,o),
(223,387,cs,{
"Letterink-NibData" = {
ValidForParentWidth = "21";
};
}),
(329,387,o),
(412,334,o),
(412,226,cs,{
"Letterink-NibData" = {
ValidForParentWidth = "21";
};
}),
(412,152,o),
(351,66,o),
(240,56,c,{
"Letterink-NibData" = {
ValidForParentWidth = "21";
};
}),
(193,68,o),
(127,101,o),
(67,146,c,{
"Letterink-NibData" = {
ValidForParentWidth = "21";
};
}),
(37,74,l,{
"Letterink-NibData" = {
ValidForParentWidth = "21";
};
}),
(102,13,o),
(169,-14,o),
(238,-14,cs,{
"Letterink-NibData" = {
ValidForParentWidth = "21";
};
})
);
}
);
};
guides = (
{
angle = 250.3462;
pos = (405,497);
},
{
angle = -70.3462;
pos = (380,492);
}
);
layerId = master01;
shapes = (
{
closed = 1;
nodes = (
(394,-14,o),
(496,94,o),
(496,235,cs,{
"Letterink-NibData" = {
ValidForParentWidth = "21";
};
}),
(496,363,o),
(409,467,o),
(242,467,cs,{
"Letterink-NibData" = {
ValidForParentWidth = "21";
};
}),
(222,467,o),
(201,465,o),
(179,461,c,{
"Letterink-NibData" = {
ValidForParentWidth = "21";
};
}),
(225,663,l),
(459,649,l,{
"Letterink-NibData" = {
ValidForParentWidth = "21";
};
}),
(490,735,l,{
"Letterink-NibData" = {
ValidForParentWidth = "21";
};
}),
(157,735,l,{
"Letterink-NibData" = {
ValidForParentWidth = "21";
};
}),
(91,428,l,{
"Letterink-NibData" = {
ValidForParentWidth = "21";
};
}),
(112,369,l,{
"Letterink-NibData" = {
ValidForParentWidth = "21";
};
}),
(150,381,o),
(188,387,o),
(223,387,cs,{
"Letterink-NibData" = {
ValidForParentWidth = "21";
};
}),
(329,387,o),
(412,334,o),
(412,226,cs,{
"Letterink-NibData" = {
ValidForParentWidth = "21";
};
}),
(412,152,o),
(346,63,o),
(235,53,c,{
"Letterink-NibData" = {
ValidForParentWidth = "21";
};
}),
(195,61,o),
(110,102,o),
(66,134,c),
(39,58,l),
(83,25,o),
(172,-14,o),
(238,-14,cs,{
"Letterink-NibData" = {
ValidForParentWidth = "21";
};
})
);
}
);
width = 536;
},
{
background = {
shapes = (
{
closed = 1;
nodes = (
(389,-12,o),
(500,94,o),
(500,220,cs),
(500,413,o),
(367,462,o),
(262,462,cs),
(220,462,o),
(183,454,o),
(160,444,c),
(216,716,l),
(200,709,l),
(473,696,l),
(488,737,l),
(182,737,l),
(116,419,l),
(151,407,l),
(188,417,o),
(224,423,o),
(259,423,cs),
(371,423,o),
(462,364,o),
(462,220,cs),
(462,118,o),
(373,29,o),
(261,20,c),
(169,40,o),
(167,51,o),
(85,113,c),
(69,71,l),
(120,23,o),
(199,-12,o),
(258,-12,cs)
);
}
);
};
guides = (
{
angle = 250.3462;
pos = (377,427);
},
{
angle = -70.3462;
pos = (345,427);
}
);
layerId = "FA803571-32C9-4FEE-972F-1FEF49B82217";
shapes = (
{
closed = 1;
nodes = (
(389,-12,o),
(500,94,o),
(500,220,cs),
(500,413,o),
(367,462,o),
(262,462,cs),
(220,462,o),
(183,454,o),
(160,444,c),
(214,708,l),
(473,696,l),
(488,737,l),
(182,737,l),
(121,442,l),
(140,389,l),
(169,408,o),
(225,423,o),
(259,423,cs),
(371,423,o),
(462,364,o),
(462,220,cs),
(462,118,o),
(373,29,o),
(261,20,c),
(169,40,o),
(167,51,o),
(85,113,c),
(70,71,l),
(121,23,o),
(199,-12,o),
(258,-12,cs)
);
}
);
width = 585;
},
{
background = {
shapes = (
{
closed = 1;
nodes = (
(432,-14,o),
(524,94,o),
(524,255,cs),
(524,438,o),
(411,499,o),
(320,499,cs),
(306,499,o),
(281,498,o),
(265,493,c),
(301,626,l),
(244,585,l),
(466,573,l),
(525,737,l),
(144,737,l),
(66,466,l),
(118,322,l),
(144,335,o),
(192,347,o),
(218,347,cs),
(275,347,o),
(321,306,o),
(321,252,cs),
(321,196,o),
(296,148,o),
(232,148,c),
(197,161,o),
(122,207,o),
(71,245,c),
(15,88,l),
(80,27,o),
(147,-14,o),
(266,-14,cs)
);
}
);
};
guides = (
{
angle = 253.943;
pos = (294,602);
}
);
layerId = "494556E7-144A-4E25-B9FC-0C21051BD184";
shapes = (
{
closed = 1;
nodes = (
(430,-14,o),
(522,94,o),
(522,255,cs),
(522,438,o),
(409,499,o),
(318,499,cs),
(304,499,o),
(279,498,o),
(263,493,c),
(289,583,l),
(466,575,l),
(523,734,l),
(149,734,l),
(68,454,l),
(116,322,l),
(147,338,o),
(180,346,o),
(211,346,cs),
(287,346,o),
(321,296,o),
(321,246,cs),
(321,197,o),
(288,148,o),
(230,148,c),
(195,161,o),
(120,207,o),
(69,245,c),
(13,88,l),
(78,27,o),
(145,-14,o),
(264,-14,cs)
);
}
);
width = 561;
}
);
note = five;
unicode = 53;
userData = {
"terminalChecked_FA803571-32C9-4FEE-972F-1FEF49B82217_433,696 / 448,737" = 0;
"terminalChecked_FA803571-32C9-4FEE-972F-1FEF49B82217_45,113 / 30,71" = 0;
"terminalChecked_master01_459,649 / 490,735" = 0;
};
},
{
color = 5;
glyphname = six;
kernLeft = zero;
kernRight = six;
lastChange = "2026-05-13 14:08:01 +0000";
layers = (
{
background = {
shapes = (
{
closed = 1;
nodes = (
(514,688,l),
(461,722,o),
(377,752,o),
(317,752,cs),
(131,752,o),
(45,523,o),
(45,309,cs),
(45,106,o),
(119,-14,o),
(271,-14,cs),
(447,-14,o),
(527,99,o),
(527,243,cs),
(527,344,o),
(447,475,o),
(345,485,c),
(276,485,o),
(161,430,o),
(124,400,c),
(142,478,o),
(190,664,o),
(300,681,c),
(356,666,o),
(436,636,o),
(485,605,c)
);
},
{
closed = 1;
nodes = (
(406,364,o),
(441,288,o),
(441,207,cs),
(441,128,o),
(405,47,o),
(303,47,cs),
(165,47,o),
(125,197,o),
(132,330,c),
(170,363,o),
(282,413,o),
(332,414,c)
);
}
);
};
guides = (
{
pos = (456,761);
},
{
angle = 250.3462;
pos = (418,427);
},
{
angle = -70.3462;
pos = (393,422);
}
);
layerId = master01;
shapes = (
{
closed = 1;
nodes = (
(457,-14,o),
(527,108,o),
(527,243,cs,{
"Letterink-NibData" = {
ValidForParentWidth = 21;
};
}),
(527,343,o),
(447,475,o),
(345,485,c,{
"Letterink-NibData" = {
ValidForParentWidth = 21;
};
}),
(276,483,o),
(161,430,o),
(124,400,c,{
"Letterink-NibData" = {
ValidForParentWidth = 21;
};
}),
(142,485,o),
(197,659,o),
(291,684,c,{
"Letterink-NibData" = {
ValidForParentWidth = 21;
};
}),
(344,680,o),
(441,637,o),
(485,614,c,{
"Letterink-NibData" = {
ValidForParentWidth = 21;
};
}),
(512,690,l,{
"Letterink-NibData" = {
ValidForParentWidth = 21;
};
}),
(468,713,o),
(373,748,o),
(311,748,cs,{
"Letterink-NibData" = {
ValidForParentWidth = 21;
};
}),
(135,748,o),
(45,483,o),
(45,309,cs,{
"Letterink-NibData" = {
ValidForParentWidth = 21;
};
}),
(45,116,o),
(119,-14,o),
(271,-14,cs,{
"Letterink-NibData" = {
ValidForParentWidth = 21;
};
})
);
},
{
closed = 1;
nodes = (
(155,47,o),
(125,187,o),
(132,330,c,{
"Letterink-NibData" = {
ValidForParentWidth = 21;
};
}),
(170,363,o),
(282,414,o),
(332,420,c,{
"Letterink-NibData" = {
ValidForParentWidth = 21;
};
}),
(413,370,o),
(441,297,o),
(441,207,cs,{
"Letterink-NibData" = {
ValidForParentWidth = 21;
};
}),
(441,127,o),
(398,47,o),
(303,47,cs,{
"Letterink-NibData" = {
ValidForParentWidth = 21;
};
})
);
}
);
width = 567;
},
{
background = {
shapes = (
{
closed = 1;
nodes = (
(436,-14,o),
(536,99,o),
(536,243,cs),
(536,351,o),
(433,475,o),
(340,485,c),
(271,477,o),
(147,404,o),
(110,384,c),
(118,462,o),
(173,699,o),
(329,716,c),
(395,709,o),
(465,684,o),
(514,656,c),
(528,691,l),
(474,719,o),
(398,749,o),
(342,749,cs),
(156,749,o),
(70,523,o),
(70,309,cs),
(70,106,o),
(164,-14,o),
(286,-14,cs)
);
},
{
closed = 1;
nodes = (
(134,21,o),
(108,200,o),
(108,340,c),
(146,365,o),
(262,442,o),
(348,449,c),
(442,414,o),
(500,320,o),
(500,233,cs),
(500,118,o),
(412,21,o),
(298,21,cs)
);
},
{
closed = 0;
nodes = (
(368,703,l),
(411,693,o),
(466,678,o),
(515,653,c),
(529,691,l),
(483,718,o),
(427,733,o),
(374,735,c)
);
}
);
};
guides = (
{
angle = 250.3462;
pos = (434,427);
},
{
angle = -70.3462;
pos = (402,427);
}
);
layerId = "FA803571-32C9-4FEE-972F-1FEF49B82217";
shapes = (
{
closed = 1;
nodes = (
(436,-14,o),
(536,99,o),
(536,243,cs),
(536,351,o),
(434,485,o),
(340,485,cs),
(271,485,o),
(151,404,o),
(114,384,c),
(122,462,o),
(173,697,o),
(329,716,c),
(395,704,o),
(466,677,o),
(515,653,c),
(529,694,l),
(475,719,o),
(398,748,o),
(342,748,cs),
(156,748,o),
(70,523,o),
(70,309,cs),
(70,106,o),
(164,-14,o),
(286,-14,cs)
);
},
{
closed = 1;
nodes = (
(134,24,o),
(112,200,o),
(112,340,c),
(150,365,o),
(264,439,o),
(348,454,c),
(438,415,o),
(494,320,o),
(494,233,cs),
(494,118,o),
(412,24,o),
(298,24,cs)
);
}
);
width = 621;
},
{
background = {
shapes = (
{
closed = 1;
nodes = (
(454,-14,o),
(575,49,o),
(575,253,cs),
(575,392,o),
(491,487,o),
(371,487,cs),
(327,487,o),
(285,473,o),
(233,454,c),
(233,526,o),
(276,603,o),
(327,617,c),
(383,599,o),
(463,562,o),
(522,524,c),
(551,687,l),
(498,721,o),
(384,751,o),
(324,751,cs),
(111,751,o),
(35,539,o),
(35,322,cs),
(35,147,o),
(100,-14,o),
(293,-14,cs)
);
},
{
closed = 1;
nodes = (
(246,126,o),
(233,193,o),
(233,303,c),
(259,322,o),
(288,334,o),
(326,343,c),
(360,321,o),
(378,269,o),
(378,221,cs),
(378,171,o),
(358,126,o),
(315,126,cs)
);
}
);
};
guides = (
{
angle = 259.9118;
pos = (535,606);
},
{
angle = 250.3462;
pos = (486,427);
}
);
layerId = "494556E7-144A-4E25-B9FC-0C21051BD184";
shapes = (
{
closed = 1;
nodes = (
(452,-14,o),
(573,49,o),
(573,253,cs),
(573,392,o),
(489,487,o),
(369,487,cs),
(325,487,o),
(283,473,o),
(231,454,c),
(231,523,o),
(274,600,o),
(325,614,c),
(381,596,o),
(461,559,o),
(520,521,c),
(574,670,l),
(511,715,o),
(382,748,o),
(322,748,cs),
(109,748,o),
(33,536,o),
(33,322,cs),
(33,147,o),
(98,-14,o),
(291,-14,cs)
);
},
{
closed = 1;
nodes = (
(244,126,o),
(231,193,o),
(231,303,c),
(257,322,o),
(286,334,o),
(324,343,c),
(358,321,o),
(376,269,o),
(376,221,cs),
(376,171,o),
(356,126,o),
(313,126,cs)
);
}
);
width = 604;
}
);
metricLeft = zero;
note = six;
unicode = 54;
userData = {
"terminalChecked_FA803571-32C9-4FEE-972F-1FEF49B82217_495,653 / 510,694" = 0;
};
},
{
color = 5;
glyphname = seven;
kernLeft = seven;
kernRight = seven;
lastChange = "2026-05-13 14:39:37 +0000";
layers = (
{
guides = (
{
angle = 250.3462;
pos = (619,427);
},
{
angle = -70.3462;
pos = (594,422);
}
);
layerId = master01;
shapes = (
{
closed = 1;
nodes = (
(175,0,l,{
"Letterink-NibData" = {
ValidForParentWidth = 21;
};
}),
(504,675,l,{
"Letterink-NibData" = {
ValidForParentWidth = 21;
};
}),
(482,735,l,{
"Letterink-NibData" = {
ValidForParentWidth = 21;
};
}),
(46,735,l,{
"Letterink-NibData" = {
ValidForParentWidth = 21;
};
}),
(77,649,l,{
"Letterink-NibData" = {
ValidForParentWidth = 21;
};
}),
(411,670,l),
(75,0,l,{
"Letterink-NibData" = {
ValidForParentWidth = 21;
};
})
);
}
);
width = 534;
},
{
background = {
shapes = (
{
closed = 1;
nodes = (
(451,737,l),
(45,737,l),
(59,696,l),
(433,709,l),
(417,716,l)
);
}
);
};
guides = (
{
angle = 250.3462;
pos = (593,427);
},
{
angle = -70.3462;
pos = (561,427);
}
);
layerId = "FA803571-32C9-4FEE-972F-1FEF49B82217";
shapes = (
{
closed = 1;
nodes = (
(132,0,l),
(470,681,l),
(451,734,l),
(45,734,l),
(60,693,l),
(439,705,l),
(89,0,l)
);
}
);
width = 519;
},
{
guides = (
{
angle = -70.3462;
pos = (139,427);
},
{
angle = 2.8692;
pos = (295,584);
}
);
layerId = "494556E7-144A-4E25-B9FC-0C21051BD184";
shapes = (
{
closed = 1;
nodes = (
(277,0,l),
(560,589,l),
(511,736,l),
(30,736,l),
(85,573,l),
(374,588,l),
(49,0,l)
);
}
);
width = 580;
}
);
note = seven;
unicode = 55;
userData = {
"terminalChecked_FA803571-32C9-4FEE-972F-1FEF49B82217_476,681 / 457,734" = 0;
"terminalChecked_FA803571-32C9-4FEE-972F-1FEF49B82217_51,734 / 66,693" = 0;
"terminalChecked_FA803571-32C9-4FEE-972F-1FEF49B82217_95,0 / 138,0" = 0;
"terminalChecked_master01_46,735 / 77,649" = 0;
"terminalChecked_master01_504,675 / 483,735" = 0;
"terminalChecked_master01_75,0 / 175,0" = 0;
};
},
